<mxfile host="drawio-plugin" modified="2024-07-29T16:26:52.810Z" agent="Mozilla/5.0 (Macintosh; Intel Mac OS X 10_15_7) AppleWebKit/537.36 (KHTML, like Gecko) Chrome/122.0.0.0 Safari/537.36" version="22.1.22" etag="axs1poUwXfqyfrvZqk4T" type="embed">
  <diagram id="J7lnTFfuFTRev6jJwrMw" name="Page-1">
    <mxGraphModel dx="636" dy="664" grid="1" gridSize="10" guides="1" tooltips="1" connect="1" arrows="1" fold="1" page="1" pageScale="1" pageWidth="850" pageHeight="1100" math="0" shadow="0">
      <root>
        <mxCell id="0" />
        <mxCell id="1" parent="0" />
        <mxCell id="2" value="" style="shape=image;verticalLabelPosition=bottom;labelBackgroundColor=default;verticalAlign=top;aspect=fixed;imageAspect=0;image=data:image/png,iVBORw0KGgoAAAANSUhEUgAABRIAAAMuCAYAAABlyf9eAAAMQGlDQ1BJQ0MgUHJvZmlsZQAASImVVwdYU8kWnluSkJDQAghICb0JIlICSAmhBZBeBBshCRBKiIGgYkcWFVwLKhawoasiih0QO2JnUex9QUVBWRcLduVNCui6r3xvvm/u/PefM/85c2ZuGQDUT3LF4mxUA4AcUb4kJtifMS4pmUHqBgSgCzQBFWBcXp6YFRUVDmAZbP9e3t0EiKy95iDT+mf/fy2afEEeDwAkCuJUfh4vB+KDAOBVPLEkHwCijDefmi+WYViBtgQGCPFCGU5X4CoZTlXgvXKbuBg2xC0AqFC5XEk6AGpXIM8o4KVDDbU+iJ1EfKEIAHUGxD45Obl8iFMgtoE2Yohl+szUH3TS/6aZOqTJ5aYPYcVc5EUlQJgnzuZO/z/T8b9LTrZ00IcVrNQMSUiMbM4wb7ezcsNkmApxryg1IhJiLYg/CPlye4hRSoY0JF5hjxry8tgwZ3ClAerE5waEQWwIcZAoOyJcyaemCYM4EMMdgk4T5nPiINaDeKEgLzBWabNJkhuj9IXWp0nYLCV/niuR+5X5eijNimcp9V9nCDhKfUytMCMuEWIKxBYFwoQIiNUgdszLig1T2owpzGBHDNpIpDGy+C0gjhGIgv0V+lhBmiQoRmlfmpM3OF9sU4aQE6HE+/Mz4kIU+cFaeFx5/HAu2BWBiBU/qCPIGxc+OBe+ICBQMXesWyCKj1XqfBDn+8coxuIUcXaU0h43E2QHy3gziF3yCmKVY/GEfLghFfp4mjg/Kk4RJ16YyQ2NUsSDLwPhgA0CAANIYU0FuSATCNt6G3rhnaInCHCBBKQDAXBQMoMjEuU9IniNBYXgT4gEIG9onL+8VwAKIP91iFVcHUCavLdAPiILPIU4B4SBbHgvlY8SDXlLAE8gI/yHdy6sPBhvNqyy/n/PD7LfGRZkwpWMdNAjQ33QkhhIDCCGEIOItrgB7oN74eHw6gerM87EPQbn8d2e8JTQTnhEuEHoINyZLCyS/BTlWNAB9YOUuUj9MRe4FdR0xf1xb6gOlXFd3AA44C7QDwv3hZ5dIctWxi3LCuMn7b/N4IfVUNqRncgoeRjZj2zz80g1OzXXIRVZrn/MjyLW1KF8s4d6fvbP/iH7fNiG/WyJLcQOYOewU9gF7CjWABjYCawRa8WOyfDQ7noi312D3mLk8WRBHeE//A2urCyTeU61Tj1OXxR9+YJpsnc0YOeKp0uE6Rn5DBb8IggYHBHPcQTD2cnZBQDZ90Xx+noTLf9uILqt37n5fwDgfWJgYODIdy70BAD73OHjf/g7Z8OEnw5VAM4f5kklBQoOl10I8C2hDp80fWAMzIENnI8zcANewA8EglAQCeJAEpgEo8+A+1wCpoKZYB4oAWVgGVgF1oGNYAvYAXaD/aABHAWnwFlwCVwBN8A9uHu6wAvQB96BzwiCkBAaQkf0ERPEErFHnBEm4oMEIuFIDJKEpCDpiAiRIjOR+UgZUo6sQzYjNcg+5DByCrmAtCN3kE6kB3mNfEIxlIpqo0aoFToSZaIsNAyNQyei6egUtBAtRpega9BqdBdaj55CL6E30A70BdqPAUwV08VMMQeMibGxSCwZS8Mk2GysFKvAqrE6rAmu8zWsA+vFPuJEnI4zcAe4g0PweJyHT8Fn44vxdfgOvB5vwa/hnXgf/o1AIxgS7AmeBA5hHCGdMJVQQqggbCMcIpyBz1IX4R2RSNQlWhPd4bOYRMwkziAuJq4n7iGeJLYTHxP7SSSSPsme5E2KJHFJ+aQS0lrSLtIJ0lVSF+mDiqqKiYqzSpBKsopIpUilQmWnynGVqyrPVD6TNciWZE9yJJlPnk5eSt5KbiJfJneRP1M0KdYUb0ocJZMyj7KGUkc5Q7lPeaOqqmqm6qEarSpUnau6RnWv6nnVTtWPVC2qHZVNnUCVUpdQt1NPUu9Q39BoNCuaHy2Zlk9bQquhnaY9pH1Qo6s5qnHU+Gpz1CrV6tWuqr1UJ6tbqrPUJ6kXqleoH1C/rN6rQdaw0mBrcDVma1RqHNa4pdGvSdccpRmpmaO5WHOn5gXNbi2SlpVWoBZfq1hri9Zprcd0jG5OZ9N59Pn0rfQz9C5tora1Nkc7U7tMe7d2m3afjpaOi06CzjSdSp1jOh26mK6VLkc3W3ep7n7dm7qfhhkNYw0TDFs0rG7Y1WHv9Ybr+ekJ9Er19ujd0Pukz9AP1M/SX67foP/AADewM4g2mGqwweCMQe9w7eFew3nDS4fvH37XEDW0M4wxnGG4xbDVsN/I2CjYSGy01ui0Ua+xrrGfcabxSuPjxj0mdBMfE6HJSpMTJs8ZOgwWI5uxhtHC6DM1NA0xlZpuNm0z/WxmbRZvVmS2x+yBOcWcaZ5mvtK82bzPwsRirMVMi1qLu5ZkS6ZlhuVqy3OW762srRKtFlg1WHVb61lzrAuta63v29BsfG2m2FTbXLcl2jJts2zX216xQ+1c7TLsKu0u26P2bvZC+/X27SMIIzxGiEZUj7jlQHVgORQ41Dp0Ouo6hjsWOTY4vhxpMTJ55PKR50Z+c3J1ynba6nRvlNao0FFFo5pGvXa2c+Y5VzpfH00bHTR6zujG0a9c7F0ELhtcbrvSXce6LnBtdv3q5u4mcatz63G3cE9xr3K/xdRmRjEXM897EDz8PeZ4HPX46Onmme+53/MvLwevLK+dXt1jrMcIxmwd89jbzJvrvdm7w4fhk+KzyafD19SX61vt+8jP3I/vt83vGcuWlcnaxXrp7+Qv8T/k/57tyZ7FPhmABQQHlAa0BWoFxgeuC3wYZBaUHlQb1BfsGjwj+GQIISQsZHnILY4Rh8ep4fSFuofOCm0Jo4bFhq0LexRuFy4JbxqLjg0du2Ls/QjLCFFEQySI5ESuiHwQZR01JepINDE6Kroy+mnMqJiZMedi6bGTY3fGvovzj1sady/eJl4a35ygnjAhoSbhfWJAYnlix7iR42aNu5RkkCRMakwmJSckb0vuHx84ftX4rgmuE0om3JxoPXHaxAuTDCZlTzo2WX0yd/KBFEJKYsrOlC/cSG41tz+Vk1qV2sdj81bzXvD9+Cv5PQJvQbngWZp3Wnlad7p3+or0ngzfjIqMXiFbuE74KjMkc2Pm+6zIrO1ZA9mJ2XtyVHJScg6LtERZopZc49xpue1ie3GJuGOK55RVU/okYZJteUjexLzGfG34I98qtZH+Iu0s8CmoLPgwNWHqgWma00TTWqfbTV80/VlhUOFvM/AZvBnNM01nzpvZOYs1a/NsZHbq7OY55nOK53TNDZ67Yx5lXta834ucisqL3s5PnN9UbFQ8t/jxL8G/1JaolUhKbi3wWrBxIb5QuLBt0ehFaxd9K+WXXixzKqso+7KYt/jir6N+XfPrwJK0JW1L3ZZuWEZcJlp2c7nv8h3lmuWF5Y9XjF1Rv5KxsnTl21WTV12ocKnYuJqyWrq6Y034msa1FmuXrf2yLmPdjUr/yj1VhlWLqt6v56+/usFvQ91Go41lGz9tEm66vTl4c321VXXFFuKWgi1PtyZsPfcb87eabQbbyrZ93S7a3rEjZkdLjXtNzU7DnUtr0Vppbc+uCbuu7A7Y3VjnULd5j+6esr1gr3Tv830p+27uD9vffIB5oO6g5cGqQ/RDpfVI/fT6voaMho7GpMb2w6GHm5u8mg4dcTyy/ajp0cpjOseWHqccLz4+cKLwRP9J8cneU+mnHjdPbr53etzp6y3RLW1nws6cPxt09vQ51rkT573PH73geeHwRebFhktul+pbXVsP/e76+6E2t7b6y+6XG694XGlqH9N+/Krv1VPXAq6dvc65fulGxI32m/E3b9+acKvjNv92953sO6/uFtz9fG/ufcL90gcaDyoeGj6s/sP2jz0dbh3HOgM6Wx/FPrr3mPf4xZO8J1+6ip/SnlY8M3lW0+3cfbQnqOfK8/HPu16IX3zuLflT88+qlzYvD/7l91dr37i+rleSVwOvF7/Rf7P9rcvb5v6o/ofvct59fl/6Qf/Djo/Mj+c+JX569nnqF9KXNV9tvzZ9C/t2fyBnYEDMlXDlvwIYrGhaGgCvtwNASwKADs9nlPGK85+8IIozqxyB/4QVZ0R5cQOgDv6/R/fCv5tbAOzdCo9fUF99AgBRNADiPAA6evRQHTyryc+VskKE54BNkV9Tc1LBvymKM+cPcf/cApmqC/i5/RcmxnxGVi8a/wAAAJZlWElmTU0AKgAAAAgABQESAAMAAAABAAEAAAEaAAUAAAABAAAASgEbAAUAAAABAAAAUgEoAAMAAAABAAIAAIdpAAQAAAABAAAAWgAAAAAAAACQAAAAAQAAAJAAAAABAAOShgAHAAAAEgAAAISgAgAEAAAAAQAABRKgAwAEAAAAAQAAAy4AAAAAQVNDSUkAAABTY3JlZW5zaG90ekZ1hgAAAAlwSFlzAAAWJQAAFiUBSVIk8AAAAtxpVFh0WE1MOmNvbS5hZG9iZS54bXAAAAAAADx4OnhtcG1ldGEgeG1sbnM6eD0iYWRvYmU6bnM6bWV0YS8iIHg6eG1wdGs9IlhNUCBDb3JlIDYuMC4wIj4KICAgPHJkZjpSREYgeG1sbnM6cmRmPSJodHRwOi8vd3d3LnczLm9yZy8xOTk5LzAyLzIyLXJkZi1zeW50YXgtbnMjIj4KICAgICAgPHJkZjpEZXNjcmlwdGlvbiByZGY6YWJvdXQ9IiIKICAgICAgICAgICAgeG1sbnM6ZXhpZj0iaHR0cDovL25zLmFkb2JlLmNvbS9leGlmLzEuMC8iCiAgICAgICAgICAgIHhtbG5zOnRpZmY9Imh0dHA6Ly9ucy5hZG9iZS5jb20vdGlmZi8xLjAvIj4KICAgICAgICAgPGV4aWY6VXNlckNvbW1lbnQ+U2NyZWVuc2hvdDwvZXhpZjpVc2VyQ29tbWVudD4KICAgICAgICAgPGV4aWY6UGl4ZWxYRGltZW5zaW9uPjEyOTg8L2V4aWY6UGl4ZWxYRGltZW5zaW9uPgogICAgICAgICA8ZXhpZjpQaXhlbFlEaW1lbnNpb24+ODE0PC9leGlmOlBpeGVsWURpbWVuc2lvbj4KICAgICAgICAgPHRpZmY6UmVzb2x1dGlvblVuaXQ+MjwvdGlmZjpSZXNvbHV0aW9uVW5pdD4KICAgICAgICAgPHRpZmY6WFJlc29sdXRpb24+MTQ0LzE8L3RpZmY6WFJlc29sdXRpb24+CiAgICAgICAgIDx0aWZmOllSZXNvbHV0aW9uPjE0NC8xPC90aWZmOllSZXNvbHV0aW9uPgogICAgICAgICA8dGlmZjpPcmllbnRhdGlvbj4xPC90aWZmOk9yaWVudGF0aW9uPgogICAgICA8L3JkZjpEZXNjcmlwdGlvbj4KICAgPC9yZGY6UkRGPgo8L3g6eG1wbWV0YT4K36YRUgAAQABJREFUeAHsnQvALtW8/9e79+6e7jfRjYpSSolDORJyiyMUdQpFlyP+COXWRUQo6eqSqERxIpSiy8nRUUSIonQjSvfSbnfb+93z/31nv2v2mnlnnpnnedY8z/O+72ft/bwzs9aadfms36y15jfrMpaYcRgIQAACEIAABCAAAQhAAAIQgAAEIAABCEAAAh0IzOrghhMEIAABCEAAAhCAAAQgAAEIQAACEIAABCAAgZQAikQEAQIQgAAEIAABCEAAAhCAAAQgAAEIQAACEKglgCKxFhEeIAABCEAAAhCAAAQgAAEIQAACEIAABCAAARSJyAAEIAABCEAAAhCAAAQgAAEIQAACEIAABCBQSwBFYi0iPEAAAhCAAAQgAAEIQAACEIAABCAAAQhAAAIoEpEBCEAAAhCAAAQgAAEIQAACEIAABCAAAQhAoJYAisRaRHiAAAQgAAEIQAACEIAABCAAAQhAAAIQgAAEUCQiAxCAAAQgAAEIQAACEIAABCAAAQhAAAIQgEAtARSJtYjwAAEIQAACEIAABCAAAQhAAAIQgAAEIAABCKBIRAYgAAEIQAACEIAABCAAAQhAAAIQgAAEIACBWgIoEmsR4QECEIAABCAAAQhAAAIQgAAEIAABCEAAAhBAkYgMQAACEIAABCAAAQhAAAIQgAAEIAABCEAAArUEUCTWIsIDBCAAAQhAAAIQgAAEIAABCEAAAhCAAAQggCIRGYAABCAAAQhAAAIQgAAEIAABCEAAAhCAAARqCaBIrEWEBwhAAAIQgAAEIAABCEAAAhCAAAQgAAEIQABFIjIAAQhAAAIQgAAEIAABCEAAAhCAAAQgAAEI1BKYU+ujDw9//etf3f3335+FMDY25p7znOdk101ObrrpJvfQQw+lXldeeWW3wQYbTLqtiZ9JN2HRkcCf//xn9+ijj6Z+Zs2a5bbccsuO/nEsJwDHci7YQqBfAkmSuJ/97GdZPaW2YZNNNuk3WBc+s1VtTt+REEApgZB9v+3O73//e3fHHXek8Sy99NJuhx12KI0Ty3oCM41lTDmsp4sPCECgLQIzre7qhiN9qG5oTfb7xBNPuGuvvTZzmD17tnv2s5/tpOsYlqHtGhb5uPFOJb3WmFUkSdzsLw5to402coIRmt/97nddKaVe+cpXup/+9KdpEMsss4x75JFHwuDS8yZ+Jt2ERUcCUviqAZZZbrnl3MMPP9zRP47lBOBYzgVbCPRL4IEHHnCrrLJKFsyBBx7ojjnmmOy615PwmX3yk5+cKaN6DY/7mhMI2ffb7oRhUY7Ny6DM50xjGea3Xzks44kdBCAwGALhs0w7kGdOHyrPo9ur2267za233nq526666iq3zTbb5OwGeRHKO23XIMnHjWsq6bVaG5F4+eWXT1IiCvOZZ57ZlSIxLJrHH388vCw9b+Kn9EYsuyLw2GOPubPPPtvNnz8/vW/TTTd12267bVdhTGXPMz3/U7nsSDsEpjOB6Vw3Tee8xZJJGMUiOXPCQWZmTllPh5wir9OhFEc3D8hXd2UDr+54det71PVarSkSTzvttFJW3/72t91nP/tZpyHAmKlLQNPW99prrywD+++//4xSJM70/GcFzwkEIDBSBKZz3TSd8xZLiGAUi+TMCQeZmTllPR1yirxOh1Ic3TwgX92VDby64zXdfLey2cq8efPcf//3f5ey+uc//+kuvfTSUjcsR4fAGmus4ZZffvnsNzopm1opgePUKi9SC4GQwLLLLhtect4yAerLlgETfCMCyGEjTHiCAAQg0JHAdO5DLbHEEkNdD7EMPG1XGRXs2iTQyojE733ve27u3LmV6f7mN7/pdtxxx0p3HIZPwK9LOfyUTO0UwHFqlx+pn3kEfv3rX7uFCxemGZ8zp5UmcuZBbZhj6suGoPDWKgHksFW8BA4BCExjAjOlD6U1N6+77rp0P4Hdd989LVFt0DdMQ9s1TPozM+5WRiQWpzV//OMfz9E999xznUYtYiAAAQhAAAKjREDKwyWXXDL9aedgDAQgAAEIQAACEIBAPYGZ1IfaZJNNXLiG3VOf+tR6QPiAwDQiEH24hebK/+xnP8sQrbPOOu6www5zX/va19ydd96Z2kuJKGXiHnvskfkb9IkWB/3DH/7gtIv0o48+6vTwa9v2DTfc0I3yy6M22f773/+ebmSjHbG12Yk2OnnWs57lNKR5qhjtvn3NNdekO6IuvfTSbv3110/zMTY21nMWxObGG29Mvw6Jy0477eRWXHHF0vD+9re/uVtvvdVJXhcsWODWXntt95SnPMVtsMEGboUVVii9Z1iWSudvfvMbJ07aDWyttdbqOikaYfXnP//Z3X777U7PpHhrF/RBmVF/3oYtj92UQ5uyG0PWuslLm3KhvFxxxRXuwQcfTOv2LbbYotVnO7YMaUfFq6++2l1//fVpR1W7Az7taU9L6/qlllqqG8z4LRBQXXjzzTen9aFGFTzvec/rqV5VsG3KcCHZI3kZk2Wbddsg4cWqR4fdbjdhNgryH7vubZLvpn7Gx8fTPuktt9zi7r///rT+3mqrrVyvUz5j8W7rXWKUy6JYZjHrrmHlO5Y8FNnomj5UGZXJdpqFKaP3M72nlZm2nreyuPqxi9V2dZOGNp6dbvQBYVpj5X+69GVCNpXnBjuq+cQnPpFYZNnvIx/5SBr+e97znsxO7ja1uVG8r3jFK7L7TMFXek8TP/7GK6+8MrHt0RPb7CULN0yvNe7JQQcdlJhy0d+SO/77v/978qQnPSn72e7UOffwwl5cM3+6xzaZCZ1z59/61rdyfn/0ox/l3HXxk5/8JDFlZ2m6lYfVV189+djHPpaYYmzSvd1a7LbbbokpVdOf8uGNz79tK59Lh60VkaX/TW96k/eeO1qDl3zoQx9KTOlZyt+UW4kpnZOHHnood1/xYuedd87i+o//+I/U2ToEyQte8IJcmkz5lrvVKqvklFNOSTbbbLOcv7D87QU9Ud5NGZ671190m/8qjj48HV/4whdm+Xnta1+bOpmSO1E+TTk8Ka2m9E7e8Y53JOJZZ2yYe/Lyl788MYVqLhyV19ve9rZE3J544olku+22y362vmldsI3d+3neTGmScdHzY0siNIo3lA/dd95555XeN2x5LE1UhWUM2VXQbcpaRdJLrfuRCx+gvZTlZPrAAw9M676DDz44MWV7zk3PuH2kSOuen//85z6I0uM+++yT1X3i1cnEkqEwjgsvvDDZeOONJ6Xf11P2wSM58cQTE/sKHt6WdFs35W4uufDh+fZuEG1dVX3p09JNu7PllltmDE1ZmOZQdcFzn/vczN4z1VH16gEHHNC4/Ywhw2EfYaONNiophbzVsccem6sTwzLphVE+9OqrNln2W7e10U5UyaEn1HY9Oqh2ux+ZiSH/nmcvx37q3g9+8IO556hTP8Gn7fWvf32y0korpf1s1cF6JkzRmzo//PDDyeabb561G5/+9KdT+5NOOilRvzasZ3Su9w9TOiS//e1vffC1x5i8Y79L9FMWtRkPPPQir23WXYPKd4AgO40hD/Sh+utD6V1V72z++T711FOz8glPYj9vYdjF80G2Xb08jz69sZ6d8H2viT6gzba7376MZ6NjN3qt8L5hnLuYkapRVafOP1Q6/ulPf0qj+MUvfpGzV0N6xx131EbfBGYTP0rb5z//+UQKlDB9Ved6kSt74dxvv/1y93/yk58szYON/Mr5Uzwve9nLSv3KUkqdMC227kLO75577plzD/0Wz7fffvvENrXJ3d/tRdj46uXNm6233ro2Ha95zWu89+z4l7/8JVXgFtNadr3uuusm//M//5PdWzwJy1tKwV/+8pdJ8QVT4YaKRMlaJwViWTq+8IUvFKNOus1/Fccw4NDPS1/60uTLX/5yIzm1EZeTlAk+XMm7ZFPK97K8eTvbUCe5+OKLc36OP/54H0zPxxjPm41YzqXLK1k7Jeree+/NsVM9U/YsDFseO+Wh6BZLdhVuG7JWTG+n6xhy4cMvdoKlXH/lK1+Zkxkv5+FRMnHIIYckNmrZB5U7hoy8AirnYeIipgwpSH0A0ocgKTzD9Fad2yi63PPfbd1UlqfQbhhtXci+33YnDEvlqPa/Cdu3vOUtHZWJMWXYRodnZd1J1ny56GNkKA/hB6/Y5e/j1LEtljHqtjbaiTC/oRx6JqF7rDZbYQ+63e5FZmLKv+fZ7bHfuve+++5L9LyFz5KUgzZ6vTQpZ5xxRs6v7pOdN8W26H3ve1/yX//1X5PuCePTuT5c66NQJxObd+x3iX7LolPei269yGv4rMZsBwaZ75BDTHkoyi19qO7eb23UWfaMS4llo4/DokrPYz9vkyIoWITy3nbb1cvzqOTGfHa61QeEfGK23TH6MmFRhvmqGkQX+h/meVRFojq1YUOpL//eqPKTgih0P/roo71z5bEJzCZ+qh5mm96ZrLrqqrl0+TTqhdOmPufS9sMf/jDnV6O9ysy3v/3tnD+FqdGOGv1VZjQawserL5ihOfLIIzM370dhaQRDsTPk3aUIrXpRDsOuOg8ftrAy6qXiuOSSS9Kvvz5tTY4qFymfy0xY3qusskqiX1mYoSLx+c9/fqkfdR7FUQq1sjCKo/O6zX8VxzBfoR+locnLrk+rFNBl5s1vfnNpfvx94dHWg8v5jaFIjPG8XXTRRbl0qdP9r3/9qyy7md1Xv/rV3D1lSu1RkMcswQ1OYsmuompD1hpkIfMSQy58YMVOcCjTTc4/+tGP+qByx5BRlXIntgwpAfqyWpZutUM2XabU7d3vfneW9m7rpuzGipNhtHUh+37bnTCsMq6d7N71rndVUEmSmDI8FRWJnbiVuXViGaNua6OdCGUnlEMvFKG78hyjzVbYg263e6kzYsq/59nNMVbd++Mf/3hSnarR6EWjD5G2gULO7y677JLz1qQtUp+2Sk6++MUv5sILL2Lyjv0uEasswvx2Ou9FXovPalkdVWVXVXcNOt8hk5jy0ERuq9jIfqb3oWz5mXQGm2ZLlSkRYz9voRxUnYfy3nbb1cvzGPvZ6VYfEPKRDFfVyWVyX/W+rbKI0ZcJyzTM14xSJL797W/PNbbHHXdcyCWd1hoWTjhlNucxuGgCs85PUcGpNGjUgRRNXtlm6w0mGpZc7DBIGRpWEJrCECpe9KD6MIJkJ8XRHD7f//d//xd6S89vuOGGHLew8dIUaykN/f0aUakRa+G0NltzMtEUClvbL/Mn//LXqwkftrAysnVe0lGmtiZELi51gDX6VL/bbrsti1bDl4ujVDUFW19z5U/5+NWvfpUcc8wxk5R5UqhKAV00YXl7LjrqYdO0dT3smp7up0hfeumlubTaQsDJEUcckbkrfMWjFxLJZBhmscPYbf6rOIZ5Cv2EcWu6sV7mbR3HRF++vvOd7yS2hmMufZJFn08fpobRh+Ho/FWvelWiKZO33nprctVVVyVSFqociv50XXxufbhNj7GeNz13UvSGadQSAJ2MvjCF/ouK4FGQx07pL7rFlF2FHVvWiuntdB1LLnwcVZ1gdQxUh6p+V/2i50cdveIyAXqx+8c//uGDy44hozJFYhsypKmModzq/HWve12ielbKcz0Laif01bvoz38w6bZuyjJccTLotk7JCNn30+4UwwqZaQkM1YX33HNPohHMYm8Lpue4SjbUrhZNbBmOqUiMXf5h3sNyicUyVt3WRjsR5jeUQ88kdA959NpmK9xhtNvdykxs+fc8mx5j171SHIblp3PJZWg0pTn0Y+tpJxrRGJqqtkj1iPqad911V+pd/fnvfve7k5au0HtHMUzdEJN37HeJ2GUR8qw671ZeFU7Vs9prOzCMfHseMeVBYVbJLX2oZu+3vlzKjrGft7I4yuxCeW+77er2eWzj2elWHxDyCev1ftruWH2ZsDzDfM0YReLcuXNz00ulrLn77rtDLumLXVhwOv/jH/+Y81O8aAKzkx8piLQWSRivhm+HysEwTq07oYcv9F9UrGiKcuiuqbVF84xnPCPnx/v/1Kc+VfSanHzyyTm/559/fubnggsuyLl9+MMfztyKJ0W/6gD1asKHrawy0tp6Pk867r///qVRfe5zn8v50xcM23Sn1K+UrFqrJgxXXy+KJixv71cKp//93/8tek2vDz300FyYmuJWZdThC9cT1EjRMtM0/3UcFXbox+dHipAyGdWQ8OIIzHA9Td1TXEez6quhbdpTOlW7KO9l+a+yi/28ab07z0RHjdqqMho5oNFb3r9GGocKd903CvJYlf4y+9iyG1PWytJbZRdbLhRPWSdYI/f0QaDMSBFXHBW/1157TfIaMipTJMaWIT2zxQ8YL37xi0s/UCmxWpfGy7iORx11VC4PTeum3E0VF4Ns65SEkH0/7U4xLM9LdaFksWikVFxvvfVyXNWehqYNGY6pSPRpjVn+PsywXGKwVLgx67bY7USY3zI5DN09j17bbLEYdrvdRGbakH/lvRsTu+7Ve0vx46w+fPuPCGeddVauTpCCRR8eiqasLdJHfymHy4zqm+LHi/e+9705r7F5F98P+n2XiF0WuczXXDSRVx9E2bPaTzswrHzHlgfxKZNb+lBJuna8r9d1rHq/9TJWdoz9vJXFUWYXyvsg2i6loenz2Maz060+IOTjy7iftlv5j9mXUXgyYb5mjCLxG9/4Rq7B1fptZUbTSH3h6aiRY51ME5id/GgUVxifpvyqQu5kzjnnnNw9xanGWjsvDLO4iYoUGqF7eF62TqI2J/F+VIlrwU5vpPTybjoWXxq9Px3VGQ1fTLSpSa8mfNjKKqMmFYcUyeEoSXWsrr322o5JKrLffffdJ/kPy1tMxOxWG2lXZRSGZ6gHUutXdjIveclLMv/qOJaZJvnXfXUci36Uzmc+85kd1+jSYro+Pzp+5StfyZJ45pln5tykRO8k7yoPMQnD60eRGPt5U/rCtOkLv0ZKlZkTTjgh5zec9in/oyKPZWmvsostu6E8ims/slaV5jL72HKhOMo6wVpjsJP5/ve/n5MRKZ71lTQ0IaOiIrENGSo+sxrxUvWxRek899xzc3nQupChaVo3hfdUnQ+yrVMaQva9tjs+L2FYknW1h1VLi+gevViHdY2WSQhNGzIcttdFWQvj9ued1kj0fmKWvw8zNkuFG7Nui9lOKG1hfsvkMHSPUY8W64BBt9tNZKYN+RfrpqaNuldx6wN0sQ+kNQ71UXm11VbL1QnFPoVPe1lbtO+++3rn0uNll12WC1uzS8LZTbF5x3yXaKssSkGVWDaRV39b8Vntpx0YZr5jy4P4lMktfajmijEvY2XHmM9bWfhVdqG8D6LtUjqaPI9tPTvd6gNCPjHabuU/Zl9G4cmE+Rp1ReIsAxnFnHbaablwbB2H3LW/sCmw/jQ92lqCzhQdObuYF/b1MBecNe7OlEM5u+KFjeRzNg0us9Y23jZMObt+9atfnZ3rxDZlqby2zoGzqbaZ+xVXXOGss5BdK+/WociuTYnlTFmSXduoquxcJzYl1V1//fU5O39hwuauueYaZ4rM9BeG6/0M8mibeDibdptFuffeeztrxLPrshOxtxfpzMlemnPsM4fgxHbgc6bsDWzyp7YTp7MX4vRn09dz4ed9ulQWrXEtWg/02jZJcabgqIzTRi/l3Gx6XnZdLHMbqdFR3lUeu+66a3Z/vyexnzelz0axZsnSc2hrG2XX4Yl1tMJLZ6PNctejIo+5RNVctC27/chaTdJzzrHlIhf4xMWaa67pPvKRj5Q5ZXY2XThXV9jHF6f6valpQ4ZsY6lc9Pb12ykvVUZ5ePrTn54521qy2Xnsk0G2dbHTXgzv8MMPd/Yxq2idXdsIoexcJ2G9qutByLDimQqmX5bKY8y6LWY70Qv/fuvRYbfbTfI8bPlvo+5Vvm2Et3v/+9+fQ6B+9ote9KJcHaD6wUbU5Px1ujjwwAM7OTvbFNHZwIrMj33kcLYMR3Ydm3fMd4m2yiLLfIsn/dRdw8x3bHkoQ0wfqoxKb3Yxn7feUtDsrn7brmaxODeoZ6dOH1BMb4z8x+zLFNM3Fa6jKBJtnnxOmWZTQ51edsqMrU2Ys7Y1qnKKtJxjhAtb+zALRQpEW8cxu646kRLH1pTLnE057MJwbNqys+kPmbtNyc0pQ20di8zNFuB0tttsdm2jDZ2tUZddS/Fna6Nk18UXN5vilrnpxHYGclIk2dp97rzzznM2BSPnbmutuLXWWiv92Rp4ObdBX9g03FyU2267be667ELsQ39SHNlowzKvmZ2tG5adl53Ydu9pR1GdxbLylzLXpvmmFZ2tm5IqY8vCGZSdjTDqGNXmm2+ecw9l4Oabb87cpFjeYYcdsuuqEylvY5nwOYn1vIWKeKXTRq1OSq7KL1So2PRut9VWW+X8jYo85hJVc9G27PYjazVJzzm3IRe5COzCdjF29gW2aJ27Vv3yxje+MWen9qupaUOGwmdW6bDR/B2To+f6uuuuczYyN/3pw1FbZpBtXVt58OEWFYXe3h9tyQh/mh7FNzSDkOEwvlE+75el8ha7bovVTvTCvd96NKwDhtFuN8nzsOW/jbrX59s2Rch95FafMIxPHyBsnd3cR35/b9lRH8NVd9aZ4of1UA5i8475LhGyUR7DPntVnnvp21eF1Y99P3XXMPMdWx7KGNKHKqPSm13M5623FDS7q9+2q1ksLlef6p626ow6fUAxvTHyH7svU0zjqF/PiZHA008/Xbs/Z0HZOnfONtPIrutO1EDbJgl13npyDytfKdiKXwmqArUpRzknW1/LhQocKfxOPPHE1I8thp8qn2yjj/Tapkpk90qRo1GG6hz6kZdSNPqHyBbpzPzqpKhIlMLyDW94g7MpeZk/fbmUMkU/W4syHbFlu0enyk8pLtVgj4IRs9Acdthh7utf/3poVXpumwfk7KU83XTTTXN24UVdxyD0K6WBvuz99re/dTrXF2ApocJRoqH/QZ/r2bEdpDtG28k97IhKdqRYrjO2blydl8bubTxv+vjwgQ98ICsjW3skHaUajty1BcxzdVCZwngU5bExWPMYW3b7lbVu0t6GXBTjt7Wuilal18XRy90oEtuQofCZ1Qh2346UJn7C0nYwd/oNwgyqrWs7L8VyL8antrSTGYQMd4p/lNz6ZVnMS4y6LVY7UUxb3XWMejSsA4bRbtflUe7Dlv826l6fb9Wlemf5t3/7t6yf4d10VN81nBkRupWd29T0MutJdlIk/uAHP8jsQzmIzTvmu0SbZZHBaOmkn7prmPmOLQ9leOlDlVHpzS7m89ZbCurvitF21ceyyMegnp1u9AFt5D9GX6Yp01Hx17nn3CCVUiBKkRgajTK0XYtDq47nUpLZhiPOdifu6K9bR43+kxLKm6Jy0NuXHYsKRymcQqMRi16RKHtNb9YLoC2i7Gzn4syrlIga6WDz8lPllRykSLR1KFI/4bS24ugPH8jZZ5/tbF08Zzt4eqvsuGDBAme7Hqc/28gljcs2k3G2cLOzDUgyf8M4KX6908jCutGFZekMp5UX3aWgrRuFpHtszTFnu+e5U045xYnZqJpQOdZtGm1jEWfrP2a3FWU4cyicxFIktvW8aWStnjfbVCZNuUZg2iLmzjZeyXKiZ8QbjR74z//8T3+ZHUdJHrNENThpS3b7kbUGyc68tCUXWQQTJ3UvCN6/baDkT9Oj2qumJrYM2fqMuWfW1uRqmpSB+RtkW9dWptQGN2knquIflAxXxe/tww+23m7Qx35ZhumNWbfFaifC9DU577ceHXa73SSPoyD/seveYr41g8HWQHTHHntszkkvprZ+as6u7qJpPV78QK6P2jJt8Y71LtF2WdTx7dW937prWPluSx6KHOlDFYn0dx3reesvFdV399t2VYc82WUQz05TfYBPXcz8x+zL+PRNlWPfU5u1tks3a0yVgbGd09wPf/jDMqe+7Gyx5Nz9TUZn+RvCtf1kV+wYFNcy9KMQw/USbROQ9Aun7rdNVnRIjV8nUaPgQv+vec1rvJfcUYoRjT5UHJqG2knhqvX9bJFXp6mdxS8AuUAHcFHk32uU6mj3Y8R7ww03dF/60pcqlYiqgNRhtN2bXNOvcv2kqerefkaTPvjgg9moV4Xf9MVZeY9hiuUd83l761vfmktiOL1ZX/HDUawaQRWucepvLKbP23d77Fceu4mvTdntR9a6yUORe0y5CNPRND8a0R0avVw0NcW8NL2v6M/LkKYlh8ohLQsyamaQbV1bee939Gax3NuS4br8F/sldf7bcO+XpU9TG3VbjHbCp6/psWm9UxXesNvtqnSF9qMg/8U0hOnr5tzXvcV7tF7ulVdeWbR2+tB02223TbLvZNG071UcBe379sW8xqpvYr1LFNPXiUUnt6qy6HRPP2791l3Dyncx3ljyUGTZtC6jD1UkV34d63krD71/26bl3X9MzhVluNcwY9YZsfLfRl+mVz7DuK/vEYmnnXZaLt1SSjRRTGiar5/qqwA0vVmj7mIa2wUxN6W4m7WkwpFdSpOGKYdGmuztt9/eXXjhhan15Zdfnr4QarShN5o37xsuTd32CzXr65LWSdQLZLi+XXFasw/HH7UotH4axSKlopS4ik9KFHWCQiOFoub+a3RkTK17GEfd+XrrrZcbbXPSSSe5pl+8wrCbTPUL/YfnUlLvscceOc5au08vx/pJ4SrFoTYv8J04cetl5GQY7zDOpTyTvPmK1nbJapSMpv7qAmvzedO6cVL4+I1wzj///DSfym9xk5Wyac1K+yjIYx3D0H26yG6bchHy8rIR2pWdF+v2bj4cxJYhLW6u+sgrE4sbfJSlf9B2w2jrBp3HuvgGJcN16XjggQfqvEwJ97bqthjtxKABDrvdbpLfUZD/2HVvMd+2I7r75S9/WbR2klX1KdTfbvJuowCKM5gmBTphURwN7z9qtc2733eJtsuiitew7YeV77blwXOlD+VJxD32+7zFTc1wQhvWs9N2btvqy7Sd7pjh96VIFMDidFutPVfcVbYswdooJNyQ5aKLLko11p12qywLp5OdRgRqGpv/muiPne7xbsXRfEVFovxJ8ecViXoBlNLOj0yUuxRV3my33XZO61/5LzlSAIZTbDVXX7vENTHKl20Nnv7kXy8XWvfvq1/9am7jGnVmfve736WLmjcJN7afjTfe2ElT741e2MNNbLx9m0eNXAuVgvpSrCmynTYhmaova1JIrL/++tlIVD9Npo7v1VdfXeelkXubz5sUhtrxXaNKZTQyR3WGNjIKpzVrelvVyN5RkMdGICc8TRfZbVMuQp7FqROhW3hebAfK6vbQf3geW4b08UJLUPgXSi2NoQ9FYtbJaGOhUCEac+f1sniH1daVpWUYdoOS4bq8hW1Znd9Rdm+rbovRTgya27Db7Sb5HQX5j133hvn+/e9/77Sbb5XRzCFNedZazU3MH//4xybe0vW5Q49+OZpB8VY8vbxLtFkWIY9ROx9WvgclD/Sh2pW4Xp+3dlM1mNCH9ey0nbu2+jJtpztm+H3NadQGBxpd581mm23WSIko/2q8VlppJX9rOqLurLPOyq5jnWy00UZZUJpCEk6BzBwKJ5rrrp2YvVHnVLuwFU1xBKHWerz22mszb6EiUS+M2hHYGykSw/URNWJRisaiOeSQQ9yBBx6Y/jRqs8xomLsWGld4e++9d85Lk/zmboh4oYojNNqhuomRssjnWes+hiNXm9wf+il26D7xiU90VCJKQSVl+FQ1oVJEmwDdeOONtVmJuaxAm89b2bQ1Ke/DMtbaiJpOUGZGQR7L0lVlF+ZLfqay7LYpF55fWJ96u+JRdcm5556bsw6fmZxDyUUbMlQMU6PbOxmNXpTiUIp1/Q466KBO3qO4DaKti5LQFgNpQ4alRPLmvvvuK93owbtrKZSwX+Ltp+Kxzbqt33ZiGDzDOmgY7XaTPLch/03i9X6K9WSs/qRmcEhmwg331B/XKMTQaF3z6667LrSqPNdH/OKu70XPqsf1MTQ0WqfRm9i8Y75LtFUWPu+jehxmvmPLQxlj+lBlVHqzi/m89ZaC0bprmM9OmyTa7Mu0me6YYfelSCxOa95zzz0bp01Ks+I23VWKssaBlnjUBiah+eIXvxhelp5LQRpOFdbotbIpDer8heFL6eWnqGnk2/Oe97xc+OE6iZdcckmj9RHFWF9C9dMLY51SbZdddsnFKeXpsEzIRmmQgjDsrJWlS4pYv+C18nzmmWeWsi+7t8yu+IWtbkcnTV8JR4qWhTnKduELidLpp9NXpVlThPWLZYplHvN5046KYWOkkaXFOmOvvfaqzEoxbcOQx8rElThMJ9ktso8pFx6d1mDxG/J4u+JRm/SEa/qqju5mXcJiPmLI0Oabb55LpjYe62TU2Q83ERvEKO9BtHWd8jwKbsWyjyHD4cdUzVbopKj4yle+UqucGAVOTdLQZt3WbzvRJP2x/Qy73W6Snzbkv0m83k8x/hh1r8I+9NBDcx8jtZSDZveo/xkOIChTOPq0FY96D6hri7Rbc7gxo6avhv2bYn77rW9ivksU0xarLIocR+16mPkuxt2vPJSxpQ9VRqU3u5jPW28pGK27ivI7XeqMNvsyo1WC1anpWZGorejDr+NStO2+++7VMZW4aDRFaDQS7M9//nNo1fe5Ns8IF9SUkjBMdzECxf/JT34yZ60vC1UmfInz05bld9ttt500MkpfOatMGE7oZ5tttskuNVJSU9o6GU3RCE34hTO0j31etraGpphq7UFvNKVQ6yRWGSnwNHUkVJZ2K1PFsNU5C42fQhja+XPtfr3vvvv6y66OZfnvKoBInrUeZDjK5YwzznBVI5zUidUIvpB3v8lo+3kLR5tISX7UUUdlSdZamlrzssqMgjxWpa3MflCyWxZ3bLu25cKn94Mf/KDTyK4yo7VADz744JzTxz/+8dx13UUbMvT+978/W0tX8WvZj0svvbQ0KdrB/oADDsi5VbUd3lOsuimMp422zqe3m2OsvDWJsw0ZXmuttXJRV40O19ptTadV5gK0i0EyKsZddd123dZPO1GV5jbth91uF/NWJjNtyH8x3k7XbdS9ehc4+uijc9EeccQR6ZroUvJLeR8avaMU3w9C9/B8v/32yykKQze1UVJghmbnnXcOL9ON/2K+u8R8l2ijLHKZ7/KiTF67DKKR92Hme1DPH32oyaLQi3zFfN4mp2i0bcp4DfPZaZNW232ZNtMeLWz7ctaTsRewxBKR/Wwab9fh2MtIYosLZ2EovI985CO5cGwKdOZuysqcm7+o87PPPvtkYSgOm6qc2AYN/vbsaKPhEltTMefXRhFm7mUnNjUh598zMQXHJO82Gi+xtRAn+bc1JSf59Rb21Snn39bTSi6++GLvnB1tinliSqPERnpm/sXLOiyZn25OttxyyywcG1056VZTyGXuyrPtPpf8+te/TmwkZ/rzN9hot5w/+f3whz+cmNLQe0mPpphOnv/85+f82pTtRPEUTV15h/5NcZkL0zqHie3MF3pJxM6+QCf2JTrn15dlGcOm+a/jqISEfqxSyqWt7MLW4cyl86Mf/WjOm01vz7lLJuzremKK3JS78m+jZ5N1110358/n97jjjsuF1+1Fm8+bTRlKTFFamu7jjz++NqnDlsfaBAYe2pDd2LIWJLf2NLZcWGelVA423XTTxEbtZelRnWQvgMkzn/nMnH+xKDN1jNqQIVvKIZc2tVG29meiNtIb+/KZ2AeqnD9TRCU2hc57SY9N66bcTQ0u2m7rlISQfT/tTjGsJvWqrXecY1usVxVmbBk+7LDDcnGqblM9ZtNbFV2iMrcRqonafV8/h0dbIiX1F/5po/zDconBso26LWTQbzsR5rdMDkP3Jjzq2mylfZjtdlOZiS3/YZk1OY9Z99oa74mNBM09V1tvvfWkvqnNtMr5UV/XPjrnklvVFtkIw8Q+CiW27m3m36ZkJ/aBPRem6nv1z4omJu/Y7xIxy6KY77rrpvKqcLp9VuvagWHmO6Y8iE2V3NKHavZ+K4ZVJvbzVhVP0T6U90G1XU2fxzaenW70AWIV8onRdrfVl+k2X0U5GOS1puJ2bfRits466+Qawq9//etdh6Mb3vGOd+TCkXLDRkhlYTWBWefHdmtOll9++Vw86oyvttpqyY477phIWSiBCjvoOreFUScpnbKETZyog6CHtXhvsaPh77NdBSf5LSpPvV8dFb4NCc7do5cN+9qRqIPzvve9L7GNXHIKRJ+WTuGGcZSdhw9bWWUkGVDnx8flj1Je2peHXJC2IcYkfyoP29U6ef3rX5/mT/f5MPzRRmfkwvEXdeXt/emoCk7KQx+mP9ouWik/hVWm3PX+dFSn7+Uvf3milxNvmua/jqPCC/3EqNhs5FVpnpUX+8I9iUWYV533q0hs83kTL320KKZZylLb8EjOtWaY8libuMBDG7IbW9aC5NaexpaLqk6wlw0pX5773OcmNnV5krzYOpqJXhjKTBNGsWVIHyvUHvm0+6M+btj067SOLD67ui5TJDWtm8ry3smu7bZOcYfs+213wrCa1Kt1L5BKX2wZlqJQsujL2x/L2kPvFh4HVf6xWbZRt6l8QtNPOxHmt0wOQ/cmstVEkTjMdrtpnRFb/sPyanoeq+61EYO5504KQtuccFIyVDfrg0343KlPrg/Q3tS1RarH1d8tvjf5MG0UpA8qd4zJu413iVhlkct0g4um8qqgun1Wm7QDw8p3THkQmzq5pQ+1eLCUntWy91txLDNtPG9l8RTtQnkfVNvVzfMY+9npRh8gViGfGG13W32ZbvNVlINBXvekSNSION8A6qhG0n9B7zbxZaMcLrvssiyYJjCb+LnqqqsmfX0M81A8t63KE9vNNktHpxPbfTrHY4UVVpj0VdPfX/xKoXhteoV3Lj2qE1qmtCumObxWp0UjIHs14cNWVhkp3Le97W25fPv4i4pE2wU5sWnspX79PcWjTR+pTHqT8g5v/ta3vtU4bpu+l35BLqZH1zbtPQy2Uf6bcAz9xKjYlEhbayuxtaJq873hhhsmNt0/509fWPo1bT5v3/jGN3LpVdm88Y1vbJzkYctj44Sax9iy24asdZOfmHJR7ATro4rtejlJNorPshSLtkZtZbKbMIotQ0qM7cib2PT82vQrP/qYdMwxx1TmoWndXBlAhUPbbV3Ivt92JwyrSb3a5AVSWGLKsMKztdQate9SZpx66qk5+ShTJCrM2OXfBsvYdZvyHZp+2okwv2VyGLo3ka0mikSlfZjtdlOZiS3/YZk1OY9R915wwQW550h1qi17URm9bdA1yf//+3//L/NfbIs0y6iofCy2Q/56//33z8IpO4nJO/a7RIyyKMtzE7um8trts9qkHRhmvmPKQ1Fu6UMtlrym8rX4jslnsZ+3yTFMtgnlfZBtV1NesZ+dbvUBIZ9YbXcbfZlu8zVZEgZn05Mi8b3vfW+uUZWSqFcjZdfqq6+eCy9s0EPttb4GlJkmfnSflJ22u3EuLt+Yh0cVYNPRTQr3y1/+ci7MoiJNfryxHX5yfjW1uzjN1/sNjxq5oNGTYTrLzjX6Ti+Y4ZS4MJym5xoF48Nfc801S2+zNRtLR4dV5f/0009PpGT14RaPejm23UFz0xLLIm5a3uG93/ve9yqnhykdG2ywQWKL46a3aERsmZzYmoJhkEmT/DfhGPqxndlycZRdNH0p0VeiL3zhC4mm6xQV0RoRautPpiNsNPUmLAtNqYxh2nrebGftxHZBz6XZ1pXrOsnDlMduEhtTdtuStW7yE0suFE44cutrX/ta+vHHNi/JyUYo27bZUvqy3im93XQ0YsmQT49GudiGQaWj1Hw+1D6VjZzxYejYpG4K/Tc9b7utC+Wz33YnDKtJvWpryebkpmxqs+cUS4Z9eD/96U8rFQ8aefrOd74zsQ120o+OXg50/M1vfuODyB1jl39bLGPWbTkAdtFPOxHmt0wOQ/cmstW0zVYehtVudyMzseW/WHZNrvupe/UBNXyOdG3rz3aMdrfddsvdo/7qDTfckN5TVMjY2tOp22abbZa7J4xT06rPOeecjnF6x5i823iX6KcsfB67PTaV126f1W7agWHkW5xiyYPCoQ9VLnlN5av87sW2bTxvi0OffBbK+yDbrm55xXp2utUHhHxitt2x+zLd5muyJAzOZkxRWeM2o4x27dSmJPpp625Tqjj7gphu1KCjTTEbWR5aHFo7O95yyy3pTxtO2HTwdHFobWyinaEHmX6Jjw3tdVZZOu1qZ4pRZ52nlGkZRFvPy9lLsNOi1dqh2aZ1OZtC7mzKhzMFZG7XurL7+7GzFwtnL2wpv5tvvtmZUtPZmpjOpoanP+sYZsErX9p8RfJhDa2zCsfZKE9n018yPzrpNv+5mwd4oY1srr/+emeKCrfGGmukuxFq53QZWy/UmeI0S402etBO5bHMKD9vw5THbvi2IbvdxN+G37bkQs+kjZpP6xlbjsBp0XxbfzX92RfI2qxo0x6/aZX8hzskl93chgypLrW1tJwpipzqKtVTqoO0852OTcxUqZua5KXoZ1TyFluGb7/9dmczIdKyV7to63qmfRO18d2aUWFUl+7pWLfV5bmp+6Db7W5lJrb8N+Xi/bVR9/qwuznaKJu07+vv0SZ2Z555Znppo9/dFVdc4bTZoPjqmX7Ws57ltPmifeD1tzQ6xuQd+11iGGXRrbw2gtylp2Hk2ycxpjz4MHUUV/pQcd/vYj9vYXmNynm3z+Mwn502mM3UvsyMVCS2IUCECYFRIKCKXD9vpAStM9o11qbcZ96k4FVHFwOBmUigW0XiTGREniEAgXgEaLfjsRxGSJ0UicNID3FCYJgE6EMNkz5xQ2CwBOq1DINND7FBAAJ9EDj66KOdTYXLfocffnjH0PRFyHbSyvzYuj7Opn9m15xAYKYRsCluMy3L5BcCEBgiAdrtIcInaghAICoB+lBRcRIYBEaaAIrEkS4eEgeB7gjYTpW5G0488UQ3b968nJ2/sHU03Rve8AZ30003eSu38847p1O5MwtOIDCDCGjqv6aXemMbs/hTjhCAAARaIUC73QpWAoUABAZMgD7UgIETHQSGTABF4pALgOghEJOAbazibPOiLMj77rsvXf/Rdkd3c+fOTac92wLh7owzznC2A2u6Dor3rPUq99tvP3/JEQIzhsCRRx7p9t13X7fNNts4jdL1Zu211/anHCEAAQi0QoB2uxWsBAoBCAyIAH2oAYEmGgiMGIH8zhEjljiSAwEIdEdAG8Ycd9xxbo899nC2+3R6szaOsJ1e03MpC22n9NJAP/WpT6UL+5c6YgmBaUzghBNOcHfdddekHErZjoEABCDQJgHa7TbpEjYEINA2AfpQbRMmfAiMJgFGJI5muZAqCPRMYLfddnNq1LVWYtGUKRGlXNQaTR/60IeK3rmGwIwloJ3MNUoRAwEIQKBtArTbbRMmfAhAYJAE6EMNkjZxQWA4BNi1eTjciRUCrRP429/+lioUv/nNb7q77757UnzaWGXXXXd1++yzj9tss80muWMBgZlCYIcddnB6XjSVedNNN02XA9hzzz1nSvbJJwQgMCIEaLdHpCC6SIaWjdlxxx2zOzQDpG6ju8wzJxCYBgToQ02DQiQLEOiBAIrEHqBxCwSmGgGt+6YXFK2ZuOqqqzopEVdZZRWnKVUYCEAAAhCAAARGiwDt9miVB6mBAAQgAAEIQGAxARSJi1lwBgEIQAACEIAABCAAAQhAAAIQgAAEIAABCFQQYI3ECjBYQwACEIAABCAAAQhAAAIQgAAEIAABCEAAAosJoEhczIIzCEAAAhCAAAQgAAEIQAACEIAABCAAAQhAoIIAisQKMFhDAAIQgAAEIAABCEAAAhCAAAQgAAEIQAACiwmgSFzMgjMIQAACEIAABCAAAQhAAAIQgAAEIAABCECgggCKxAowWEMAAhCAAAQgAAEIQAACEIAABCAAAQhAAAKLCaBIXMyCMwhAAAIQgAAEIAABCEAAAhCAAAQgAAEIQKCCAIrECjBYQwACEIAABCAAAQhAAAIQgAAEIAABCEAAAosJoEhczIIzCEAAAhCAAAQgAAEIQAACEIAABCAAAQhAoIIAisQKMFhDAAIQgAAEIAABCEAAAhCAAAQgAAEIQAACiwmgSFzMgjMIQAACEIAABCAAAQhAAAIQgAAEIAABCECgggCKxAowWEMAAhCAAAQgAAEIQAACEIAABCAAAQhAAAKLCaBIXMyCMwhAAAIQgAAEIAABCEAAAhCAAAQgAAEIQKCCAIrECjBYQwACEIAABCAAAQhAAAIQgAAEIAABCEAAAosJoEhczIIzCEAAAhCAAAQgAAEIQAACEIAABCAAAQhAoIIAisQKMFhDAAIQgAAEIAABCEAAAhCAAAQgAAEIQAACiwnMWXzKGQSmJoEvfelL7sorr0wTf9RRR7m111574Bn5/e9/7+6444403qWXXtrtsMMOfafhz3/+s3v00UfTcGbNmuW23HLLvsOsCqCN9FfFhf3oEkAORrdsuk3ZIOuPbtPW1P90lsebbrrJKX833HCDu/POO90KK6zgjjzyyKZo8NclgXe+853uiSeecGuuuab7/Oc/3+XdeIcABCAAAQhAAAIQCAmMJWZCC84hMJUI6GV5iy22cPPnz3frrLOO08vZkksuOfAsPOc5z0lfChXxk5/85Eyp2E9CwjCXW2459/DDD/cTXMd7w7hipb9jhDiOJAHkYCSLpadEhWXZdv3RUwIb3BTmYbrUSwsXLkwVhp/4xCfc+Ph4RmHZZZd18+bNy645iUvg7W9/uzv99NPTQHV861vfGjcCQoMABCAAAQhAAAIziMDIjEh87LHH3Nlnn50qhMR/0003ddtuu+20L4qZmu9YBXvAAQdkMnPwwQcPRYkYKy+EAwEIQGAmEJjJ7d5xxx3nDj300IEX80xmLtgf//jH3Zlnnpkqbz/4wQ+6nXbaya2yyioDLwcihAAEIAABCEAAAtOBwMgoEv/617+6vfbaK2O6//77zwhF4kzNd1bQfZycddZZ7rLLLktD0GiVd7zjHX2Exq0QgAAEIDAIAjO53dMH06JZffXV3YYbbli0jno9k5kLpPjuscce6ajEe+65x+nD4ymnnBKVMYFBAAIQgAAEIACBmUKAzVZmSklPs3w+9NBD7gMf+ECWqw996ENOaxNOJ7PGGmu45ZdfPvtNp7yRFwhAoF0C1B/t8u019Jtvvjm7dWxszP3yl790d999t7viiisye07aIaBRibNnz04DP/XUU2HeDmZChQAEIAABCEBgBhBAkTgDCnk6ZvHoo492//znP9Osrbbaam6//fabdtn86U9/6ubOnZv+tBg/BgIQgEBTAtQfTUkN1p82/PBmvfXWc89//vP9JceWCWhU4q677prGouXBtTSK1qzEQAACEIAABCAAAQh0RwBFYne88D0CBB588EF3/PHHZynRlHgtVI+BAAQgAAEIjDKBcNMsLcmBGSyBd73rXVmE2jX73HPPza45gQAEIAABCEAAAhBoRiDaGon6uvv3v/893TVXO+dqF11tmPKsZz3LaYpV20bx33jjjenOuYpbC2mvuOKKbUebC/+BBx5wV199tbv++uvd448/7jTa4GlPe1rKYKmllsr5HeWLXlg+8sgj7pprrkl3K9YU4/XXXz8tf03dim20WP2//vWvNFiFP+qjEbWztKaz3X777emOzs973vPcWmutFRtLGl4bMjjI9BehaF0vPU933XWXe8pTnuI22mij9Lkq+tP1ggULUhn805/+lK6HtdVWW7lenru//e1v7tZbb3WKW2GuvfbaadwbbLCBW2GFFcqiHkm72LIQUw7aZqzy+81vfpMud7DNNtv0/LxptJLyrWdXu8KrXltmmWX6Ku9B1pX9JDQWw37S0OnemPKoeIZRLr3UT52YTDW3YfQ1tttuO7f55pu7P/7xjymuL3zhC+6Nb3zjVENHeiEAAQhAAAIQgMBwCVhHrm/zk5/8JHn2s5+dWE5Kf7aQePKxj30ssZfySXH9+7//e/KkJz0pWW655XL3LrHEEqm93N70pjdl9+28886Z/X/8x3+k9vZCkbzgBS/I3W8vkdk9W2yxRXaPKSIy+6qTY489NvOv+C+//PIqr6n9hRdemGy88ca5+EMWpgBJTjzxxMSUi1k43eZbN8bORy8sswzYie0CmdjahIkpixNbd2hS/u2lOznssMMSW88wvK2vc5sWlqy88spZXC972csmhefZquzqyi9kKr+f/exnJ4XnLb71rW/l5OJHP/qRd0q23HLLLE02yiS1P++885LnPve5mX0oE0996lMTm1ZV+kz4QHfbbbfEpmKlP6Wzk+lFBsPw2kh/GH6n8xe+8IUZ1x133DH1+qtf/Sp56UtfWsru1a9+dWLKwizICy64IHnJS15SWoeYEimxDXkyv1UnpkRIbOH9ZLPNNiuNU2VnL/2JyuRnP/tZaTBKg5c5HY855phSf0XL4n2XXHJJ0UtX1/3IQptyEIOxBxHKzGtf+9rU+g9/+EOiOs0+XE0qQz1vthlTWmf5MDodbVpw8vKXvzyxj1G5sNQuve1tb0vU5qguMqVE9vvv//7vyiCHUVfW1R9tMyyD4evmpu19m/Ko9A2qXA455JCsLg/bAVNKZ/am3MohC9umfvot3TJXImLF7TM0an0N+xiZe66vuuoqn1SOEIAABCAAAQhAAAINCLgGfjp62XPPPXMdsrCTXDzffvvtE1vXLhfe1ltvXXv/a17zmuyeV7ziFZl/vfTbQuWTFAiKN1Qk2kiS7B6v5MkCLDmRMilMe5XiQIpRKUhtVFzOf3hveG4j0TJlYrf5VjJj56MXlh7XX/7yl+Q5z3lOo3yvu+66yf/8z//4W/s6SikUMpWCtmhshGLOzyc/+cmil/TaRhnl/CncMsWkv1kKhDDu6667zjtNUiR+/vOfbyQXb3nLWyqVieFLtF68y0w/MhiGF8alZyRG+sPwO52HcT/96U9PLrrookQv2CHr4rmehXvvvTdVVBfditdi94tf/KIyCXfccUdHBWIxPF3bKJZJ4X3mM5/JpVlKzDpz22235eREiirbUbTutlL3GLIQlkVMOYjF2Gc8TKcUzl/+8pcTsSsrq9DORqpndbAPKzzaCMRE9cWsWbM6hmWbICUXX3xxzo8ttxAGlZ0Pq64MGZXVH6F7TIZZxktOum33wjTGlEclbZDloj5MKIdl57Y8R45YrPa+W+ZKRKy4fYZGra+hD1FhGRx00EE+qRwhAAEIQAACEIAABBoQ6EuReOSRR+Y6Y+qYqTOsr+fq9IcdNX+ukXs29ThLWred3LBDusoqqyT6+bDD4yAUifrKHsbpzzU6z6b3lrq9+93vTvPebb51U5ud+6YslQ6NmNKIK5/fJkcphjopcxRuE3PwwQfn4v3tb3876bYf/vCHOT8aWVRmvv3tb+f8KR+SX400KjMa1eTzqtGWoQlfeL2fpkdbsykMKjsPwyxTBMhjPzKYRWQnYVxN0+39VaU/DL/TeTHuqmfHx+ePa665ZlYe3q7qqJFl//jHP0qTYZsdlIajkcSqy6Q0Kgu3OALNpuvmlIK6x6ZHl8bpLTX6OQzbj67z7t0cY8hCsSzCtNWdd5KDWIw9j2I6m37MUR70QaDKvPnNb86VR6c8L7nkkjm/ZYrEYdaVIaOy+iN0Vz5jMaxiK/tu271iGjuVR9GtkzwOulxQJC7+ADwKfQ19MLBN2rLnt27EfyeZxg0CEIAABCAAAQjMRAI9KxIfffTRVOniO+8aDaJRIeH03Xnz5iUnnXRSYuuKZR02+Zc/b2655ZZ0muL3vve9nB+90OmrsX4ateNNqEj0ceuoESQaIaeXRH1dDqfTxlbAKdBm9p4AAEAASURBVC2a+hbGr/PXve51ifJh6/cl4+PjyQ033JBo+nXRn5Sc3eZbccbORy8sNRXM1n3M5UlT188444y0nFT+mpaqaZ1FBYyUb+rA92PU4fc89XJcNl3eFrNPwpd8+QuV1z7+4shFH+7//d//eS/ZUWXp3XUsvqRWvfBqyr2mmmqUmUbQSW422WSTXFhSsupZKZowzDJFQL8yGMYXxhXms5/0h+F3Oq+K+1WvelWqtNbI0SuuuCKpklel9xnPeEYixbDqix//+MeJyraokNR0tqK59NJLc2UxZ86c5IgjjsjVH5JZjZIMZU9x7rLLLsXgkhe/+MW58OqmN2t6acj7O9/5zqQwm1jEkoWqsuhHDmIzFo+qdGqqsT4kSIErxa542tqWOcaqG8L2wfPVEh1hWehcMqjn99Zbb000/VHKQtV3RX+6LsrXsOvKkFFZ/RG6h/nph6FnWXXstt2rSmM/8jiMclEfxvdnQoWtRsB7e02XD02s9r5b5kpDrLh9fqrq7k79trbLqfjhpThbxqedIwQgAAEIQAACEIDAZAI9KxK1Lln48vHhD394cugTNkW/r3/96yf5VSc6DG///fef5EcWZR1SjRz63//931L/sozdKZaSsKhUkAKhTFml+LVGUZi3o446StapaZpveY6dj15Yfu5zn8vlRSNM7rzzzkWZKfyVQq44crGf9d80PTLkqLXlqoxe0EK/mgJfNFI+hX78+ac+9ami1+Tkk0/O+T3//PNzfspeeD/60Y+WKk6lVLSNeHLh6RkpmjDMoiIgpgwq3jAuz6Hf9BfzU3VdFvenP/3pSd6lpLYNnHLclFaN9tFLZ9EUR/uV1TuHHnpoLjxN6a4ytuFLbs08jVAtGq2z6Pnp+G//9m9FL9m1bU6VGwWmDy76QNOtiSkLZWXRrxzEZiw+ZemUcl8sikZTWIsj18P1TeVf9xXX+VW+y4zKrWxkXVGROMy6UukOGRXrj6K7l9l+GJaxqrJr2u6FefBp7Fceh10uoSJRyqwqE7u9b8pc6Ykd9yj2NYrtw+mnn15VFNhDAAIQgAAEIAABCBQIzLLOeU/G1ofL3bfSSivlrsML60SmO156O+2uHMtoh2BTWDlT1sUKsjacs846K90d1nvUrq428sXZaCZvlTu+//3vz13bmou561G5qGNpCjBnSrYsuTYK1Vnn29kU08wuPNl2223dN77xjdDKff3rX89dd3NhL0I576bMzV2HF7YhR3jpTNGcuzblp7NRhjk7f1FWPrbGo3dOd4LdYYcdsuuyE+1Wfvjhhzt7aZzkbFOqnG2EkLO3abe567qLtmWw7fR3yp8pD5xNYZ/kxUaSORv1m7O3qejOlLyluzPbJk05v9r5uWi0w7w3NjrG7b777v5y0lG7z2snaG+0k2/RKM5wJ1Ybneuqyvb73/++PuRkQWjnUD2D3Zo2ZSGGHMRmXMbnmc98prPRgk5lWDQ2Pd2pDQqNjT4KL50Y2mYtmZ12eg7ruszBTkyBnNZ7ZXF5f8OuK306ujn2y7CbuHr12688TsVy6ZXVKN83Cn0N+3CQQ2RLr+SuuYAABCAAAQhAAAIQqCYw+a2r2m/OZdVVV81d6yXu+uuvz9n5C71wXXPNNU4vb/pddtll3qnv4wc/+EFnU2b7DqebAEKlku6z0ZOVyjS5S/lhm0joNDWj2mGtY2mbCzibEuiz4fbee2+nF7tOxkaBOSlavTn33HOdjbryl10d9RIYmqIMhm5FReLPf/7z0NmF11JQ2ZT4zN2m0TobXZpd29TWnMzaSEhn05Ez97ITKRGlaK0yNr0552TTnnPXdRdty2Db6e+UP9vhtFQhpHtCWdK1FES2mY9OJxkbqZxT7t93332T/NjO2c42Tkl/p5566qTwwxskB/fff39oNelcH1RsQ4/MXopCW+4guw5PbI3F8NL953/+Z+666UWbshBDDmIzLuNiG6Q4W5u2zCm1K350KD5vxTZJiuyyjwA+AtV7u+66q7+cdBx2XTkpQQ0s+mXYIIq+vfQrj1OxXPqGNoIBjEJfo9h/0MdFDAQgAAEIQAACEIBAMwI9KxJtKm8uBpt26vSyZuuGufPOO8/Zmm8595VXXtmttdZa6c/WmMq59XNhaxD2c3tP99588825+0LFQc5h4kKKVI3gtLX70l9xNEzZPcOwq2NpUwRzydKIwzqjl/vQn5SItt5Y3W2l7kVFYqdRsDZt2dlajlk4GrUqRZA34ahD2wjC2SYX3sk98sgjztZDy66lBA+VUEUlZeYxOCkqCgOn9NSmWuasJBvdmLZlsO30d8prJ+W0TZXP3Roq6HMOdiFFUDhqzNbTLHpxtkah04hh/d7+9rdPcpfM2FRWJwWErcuWG4k8yfOExR577JFzOuecc3LXulB9GX5QkIJUCupeTJuyEEMO2mBc5PTKV76yaJW73nzzzXPXxfYpZCiZqRtxrMD0kaTKDLuurEpXJ/t+GXYKO5Zbv/I4FcslFrtRCmcU+hpFReLdd989SohICwQgAAEIQAACEBhpAnN6TZ2UNG94wxucpud5Y7vdOr0066dpvraOlLMdc50tWO+krOk0YsSH0e2x7sWi2/Ca+A9fOjWazTZ5qb1N0x3DKY+1NwzBQx3L4lTgww47rNFUZdtcJpcbKVFsrbucXZOLoiJRyulORgq/E088MfViG+CkSiBfVuFUZykNpMSRAsErG6Vo9ApQ2ywiF00TRWLdKNmqafC5iDpctC2Dbae/Q9YqRxjqnuIosbp0doqn6GabEjjbtMTZTuBO57ZhR6pEDEenFu8pu5Z8SDYfeOCB1FkKQ308sJ3sM+8apRhOa9ZU91DpmXlscNKmLNTx7VaOYzEOsUi5bBs7hVaTzuvcQ4Zq2+rqFkVQNRJWbsOuK5WGbkwMht3E16vffuVxqpVLr5xG/b5R6GsUP+aVLX0x6hxJHwQgAAEIQAACEBgWgZ4ViUrw2Wefna71VjZ1T6N/tD6YflprSp22d7zjHe69732v05TDGEYv3raIfIygcmGEL/g5B7uwTR1cuDaa1rsbVdMpH8U0N2FZHM2hkYW9jC7sdWpzccRApxGJyp8U2F6RqGtNZ5YiUQpJ2ylTVqmRElHyqbX5pESSkSLxYx/7WHoeTh0tjnRMPRT+KKw25NJH07YMtp1+n4+yo0aJ1E0bD++LoZzXlDbbqdnZRimubNRiGF+Tc31c0LTXr3zlK6l3P7353e9+d3Z7cZRicRRj5rHmpE1ZiCkHsRmHWLqRl/A+f26b+OTq9OJIJe+veOykSBx2XVlMa911vwzrwo/hHkMep1q5dMOtm/a+m3Cb+O0m7lHpa2h9Xa3VqDpUprjcQZN84wcCEIAABCAAAQjMVAI9T20WMK0Bpxdije7SNC91zKqM1hazHVGdFrgujgqoumdY9uE6gMU0aGRR2GleccUVi15G5rpTPnpJZKwv9npx78UU7wvLoSy84lqGfhRiuD6iXiRsZ930dtvpOQvGr5Oo0Wihf9shOPNTdRJDuVUVtuzblsG2098pb1LCDdKonDfccEP3pS99qVKJqBdfjaCxHW3dBhts0Ch5RcVgqDhU+WmqvTeayi0ldi+mTVmIJQdtMfa8+h3p/uCDD2YjkRVm048AkosqM+y6sipdVfb9MqwKN6Z9DHmcauXSDb/Y7f0w4x5GOfWy0VU3jPALAQhAAAIQgAAEphOBvkYkehDaMVk/fdmVskYL12tEl6a0jo+Pe2/pUQpFrcWkEWGjOgrCT0nMJXziQjsUa3qlV2KN8lfsTvkoy1ud3XrrrZcbuXPSSSe5uqlmZWH66cVlbp3siiMQw3ULy+6TfG2//fbuwgsvTJ0vv/zytNwkm95o/Tb/gvrSl77Ufe5zn0ud/DqJKudwPbUm05p92G0dp5IMtsUgRrhz5851UviF5atnWwpo/fTRQ4pDrcPoP5Ko7moyClfT4vVsaHq0jGRPL8cqOy0H4afQy62odJRdUzPqstAm46aM6vxpN27VAf5DRXHkc9X9nfwNu66sSvNMt5/O5RK7ve9GVmLHPYhy0vPuRyMqrzHX7u6GHX4hAAEIQAACEIDAVCQQRZHoM64vutpFVT8ZdS615thXv/rV3K63ern+3e9+l2504O8dpWMnRYEUCpqa/Y9//CNNsqbJqjNa9zVb66SFU6I77fgZi0WnfPQSx8Ybb+w0usgbKVk0fXhQpqhIrNtBV+mS4s8rEqX0lQLbj0yUuxRG3my33XZOI+K01qeMFI7hVFetI/aiF73Iex/acSrJ4NAgNYhYowTDZ0Qj0X70ox913Gij6QuzFJLahfnII49MUyLFoXYs1w7v4W7N8rf77rs3SG25l1GXhTYZlxPp3lZlsL4pff1IeW2u08RcffXVld6GXVdWJmyGO0zncgnrskEXc+y4B1FOGokcGhSJIQ3OIQABCEAAAhCAQGcCPSsSDznkkGwkj0aY7bnnnpNi0oL1b3nLW9Kf1kf8+te/nvnRaEWNBhuE0YuiNxrFpumqmpZdZuQWTjss86NOrlckyl2jjbSpTJXRqDYpDrXJiIy+tveiSIydj6r0Vtkr36HRbsZNFImaNnrjjTemt2qdq49+9KM9bSwRblahwOpGJMqPFInvec97dJoajQa79tpr/WVOkSiljHbm9YpGKRK9UlE3aMTioKfeZgktnAxLBgvJmNKXf/zjH3Pp/8QnPtFRiaipg34NzdyNFRehIlFepFTbeeed0/rC36KR3J3W2vP+Oh1HWRbaZtyJSzdu2mDFKxK1MZPqq4022qhjED/84Q8r3YddV1YmbIY7TKVyGWZ7P8y4JaKDKKfiRyGNTMZAAAIQgAAEIAABCDQjUL3IU839p512mjv22GPT30EHHZSbqld26y677JKzLn4NzjlGvghHskkxdN1111XGoA0SHn744Up3OWy++eY595NPPjl3XbzQZh1eiSi3Jsq3Yhi6jp2Psjg62WmjkdBIQVi3o62UdtpkwsvKmWee2ZMSUfEWFc9NFIlSEITp1sY/flq6RqA973nPC7PkwnUSL7nkkq7XR8wF1uLFsGSwxSwNPOjixgt1O4lqyYZwhGpdghWedq73Ropp1S/htOa3vvWt3rnn4yjLQtuMe4ZWuFH1RGj8EgehXXh+/vnnO/2qTFjnyM+g68qqdM10+6lULsNs74cZt2R0EOVUnNHAiMSZXjuQfwhAAAIQgAAEuiHQsyJxm222yeLRjpyautvJ/P73v885b7XVVrnr4kWxk1d07+Z6rbXWynmvGknyy1/+0n3gAx/I+S27eP/735+tqyf38847z1166aVlXp12KD7ggANybp0UiZ3yHTsfuUQ1uNBGI1ovzpvbbrvNaZ3EKiOli3iGipN+pnFuuummuXWMNCKyiQl5hyMMtY5dcWSqRh1WmTCcKj+Dsm9TBgeVh2HHUxzhGo4yLqZNu8/vu+++Revaa41K9EbrxR522GH+Ml13sfiBJXPs4mSUZWEQjLtAVelV61SGo7DOOOOM3MjR8EYtj6ByDeu10F3nw64ri+kZ9etO7V7MtE+lcmm7ve/EvO2468p0EOVU7JNq06uiUZ2tjz/+97Wvfc1p3VcMBCAAAQhAAAIQmOkEelYkvvjFL86x22233ZxGcBWNFGnf/OY3cy/Q2u2yOLpM68+FRlNQNf1ZL2udXtjCe6rONV01NJrCeMIJJzi/y6GmsWnEyJve9KbcVNbwnvBcU5ND5aA6m+r4fuc738mN0FO4mvLsp8wpDHXQQ2VVN/mOnY8wT03OtSHBcccdl/MqJcZHPvKRSZvq3HzzzU5rDl500UWZf0111xT3Xo1e9DUV1BvJhzZFqTNVG6TssMMOk26VgrxYJvK0xRZbpGtjTrphSBYxZXBIWRh6tMVNfw4++GCnjwmhUf11yimnpFPgi5traGRrp5dxhaN6sWpHXE1zLpO1MP4m56MsC4Ng3IRRnR/t3L7XXntl3vTBQaOTv/jFLzqtmag6XrKhNS/1QcG3HdkNhZNh15WF5IzcZVHuY7b3nTI7lcoldnvfDfPYcXcqkzK3QZTTlVdemYtaG2kVjT6Gal1b/9tnn33c9ddfX/TGNQQgAAEIQAACEJh5BOxluCdjG4wkNv0kMWLZzxQ9iSliElsvMXnf+96XmCIpsTXlMnfv1xRPk+K0F7XEOo+T/JrSMTElXebfNnLJ/MitibHpdYmNPMvu8+nQ/f6809GmJE6KxqbVJqutttqk+22n4MSmy6ZsTIGQc9d1Maym+VYCYuejF5ZKx2tf+9pcvsRu+eWXT0w5nLz+9a9P817G1kaC6va+zPHHH5+L20aC1oYnWbVpzLn7lGYbZVZ670477TTJb5nMhjdvueWW2T02Cit0Kj23DWAy/0qLrRs5yV8YptJfNLFkUOGGccVKfzG9VdfdxG1LKuS4mZKvKtjUPqx/bPpqzq+NQExsCl8uPJWFKavTOkzPh718T3KXH/+zEbqJfSxIbAOpXNjhxY477pj59/fpePHFF4fe+jqPJQvdlIUSXCfHbTHuNp227mmuDMqeN1MUl8qDyqpYl4fl6M/tI8ukMhxmXRkyKqs/Qvcmz3wThpMAVFg0bfe6TWOdPPrkDLNc1E/yMmMfE3ySJh1jt/dNmSshseMexb6G2gNfDrYm4yT+slDfwfvxx6uuuqrUL5YQgAAEIAABCEBgJhHoeUSivhhrN2YdvTFw7te//nU6AlEjObRpSTiVVP40EvGII47wt2RHUzylm7JkFhMn/Y5GVDBaNP973/teLq2yLwtbIwZPPfVUOXc02jREeS2OuNEIJutopqMQreOehaHRdFp3qziSs5t8t5GPLIFdnGja35vf/ObcHVpXUjs6/+AHP0jzXmT7yU9+0r3uda/L3dPLRZGfNrqpM5LRcBSo/K+wwgq59evCMMJ1Er29RpyOmoklg6OWr0GlR7uvl03N//nPf57WYdpxPpzGppFoxSUMNPLWFILpEgZV6da02aLRjudFmSz66eZ6VGVhUIy7YVXlV2ukaYkOjU4smrAul9uGG27ovvvd7+a8zZkzee+yYdaVucSN2EU37V4bSZ8K5RK7ve+Geey4ey3DtsrprrvucrfcckuWrFFatiRLFCcQgAAEIAABCEBghAn0rEhUnjTNVLty2oib2ixq8e5jjjnGacOBshcuBfDZz342t4tuWaC97pprIxDcj370o3RqcVm4mn74zne+M92VtbjQt422K7vFrb/++umLp6bEFdfaC2+wr/FpuAceeGBonZ03ybf3HDMfvbJUWZ599tnu9NNPTxVyPm3Fo5SnmlaszWY+/vGPF517utbGEprK6Y2UOE1McXrzi170osopp0UFj5Q0ZcqFMN6QZZW8hP6b+GkSZiwZbBJXt+kP/Xc67ybuJtw6xVV005qd+sgghVeVkdJPm0tdcMEFaf2kneiLRh9RqoymMGtH8NDsvffeuTX5Qrdez2PIQjdloXQ2KY82GHebzqZMtQ6rlIlf+MIX0g8N4Ycyn1/lRx8wVl111VywxWs5DrOurGNU557LXAsXTdq9btPYRB6HXS7doIzZ3iveJsx9+mLGHZajD7/Jsa3nR1PpQ2OzEMLL7Fx9mGJ/tde8ZIFyAgEIQAACEIAABKYBgTENv4yRD40+1G7I+sqrn3ZlXnfddZ12w9QGHRrlZVOBa6NScrTpgU2tcY8//riTEmezzTZr9MJaG/iEh9tvv91dffXVTpt1LL300u6Zz3xmugae0turUVoVntbt0yilpz71qelISCkl9XW/zvSS7zbyUZfOortGIv7ud79LFaXaoVkKVTFdZ5110nUjbcpQ8Za+rz/96U+7j33sY1k4kjspAGa66VcGZzI/rXmnEYiSJT2/GrGqZ1jrfOqnF0pv9Kxq8xV9RNEoHz3fGmldfOH0/nXUQv7apENGHy3+9re/dVReph77+DOKstA24z5wVd6qNdK0JprWYl1jjTXc2muv7bwiQWvihkpljVYtW3fVBz6MutLHParHXtq92HmZKuUSq73vhXmsuPspu5jlZFPm0/6a0qNz9WEwEIAABCAAAQhAAALNCURTJDaPEp8Q6I+ArQfnNPpKLxYy7373u9PNc/oLlbsh0A6BP/zhD+mHCh+6RigWR8R4N47DISDlin7eSEFcZ7TRlJbw8EYfUsp2fvXuHCEAgeET0KZJ4WYyGpH+hje8YfgJIwUQgAAEIAABCEBgChGof1uaQpkhqTODgKYQ6iXeG62j5JWK3o4jBEaFwMknn5xLihTfmNEicPTRR6cjRTVaVL/DDz+8YwJV35x//vmZH62tu8kmm2TXnEAAAqNJ4MQTT8wSpqVS9GEHAwEIQAACEIAABCDQHQEUid3xwveIELBdlNNRiUqOpkyWbZoxIkklGTOYgJZp+OY3v5kR0DINnaa/Zh45GSiBl7zkJbn4pGyYN29ezs5faAMxjWC66aabvFWqjGgyijG7gRMIQGDgBPTMan1nbz7/+c/nlq3w9hwhAAEIQAACEIAABDoTQJHYmQ+uI0pgmWWWyU1n1ogiRiWOaGHNoGRpTT2NlpUi6sgjj3Tbb799ur6eR3DwwQf7U44jRGDrrbd22rXZGy2foLUxL7roonTnbk17vuGGG5xGP2v3+XCTJ60Lu99++/lbOUIAAiNK4DOf+YzzO7C/8Y1vdNoIDwMBCEAAAhCAAAQg0D0B1kjsnhl3jBCBXXbZxZ1zzjlpio466iiHomaECmcGJuWBBx5IN4gqy7qmvmq9xE6bspTdh91gCJx11llujz32cAsXLpwUoZSF8+fPn2QvC+2Ee9BBB5W6YQkBCIwGAW1wpY2x9Bwvt9xy6SZK2lALAwEIQAACEIAABCDQPQFGJHbPjDtGiMDxxx/vVlpppTRFGpVYNR1xhJJMUmYgAY12+8Y3voEScYTLfrfddktHOWuNxKIpUyJKuag650Mf+lDRO9cQgMCIEdCHRv8cH3rooQ4l4ogVEMmBAAQgAAEIQGBKEWBE4pQqLhJbRkA74P74xz9Ond773ve6Zz/72WXesINA6wTmzp3rttxyS/f3v/89VRpqFOIWW2zhjjjiCF5cW6cfJwKNXDrhhBPStS3vvvvuSYFqY5Vdd93V7bPPPk5rXmIgAIHRJ3DIIYe4O+64w2lZlGOPPdbpQwAGAhCAAAQgAAEIQKA3AigSe+PGXRCAAAQgMM0JaN1VKRa1ZqJ2i5cScZVVVmGDhmle7mQPAhCAAAQgAAEIQAACEKgmgCKxmg0uEIAABCAAAQhAAAIQgAAEIAABCEAAAhCAwAQB1khEFCAAAQhAAAIQgAAEIAABCEAAAhCAAAQgAIFaAigSaxHhAQIQgAAEIAABCEAAAhCAAAQgAAEIQAACEECRiAxAAAIQgAAEIAABCEAAAhCAAAQgAAEIQAACtQRQJNYiwgMEIAABCEAAAhCAAAQgAAEIQAACEIAABCCAIhEZgAAEIAABCEAAAhCAAAQgAAEIQAACEIAABGoJoEisRYQHCEAAAhCAAAQgAAEIQAACEIAABCAAAQhAAEUiMgABCEAAAhCAAAQgAAEIQAACEIAABCAAAQjUEkCRWIsIDxCAAAQgAAEIQAACEIAABCAAAQhAAAIQgACKRGQAAhCAAAQgAAEIQAACEIAABCAAAQhAAAIQqCWAIrEWER4gAAEIQAACEIAABCAAAQhAAAIQgAAEIAABFInIAAQgAAEIQAACEIAABCAAAQhAAAIQgAAEIFBLAEViLSI8QAACEIAABCAAAQhAAAIQgAAEIAABCEAAAigSkQEIQAACEIAABCAAAQhAAAIQgAAEIAABCECglgCKxFpEeIAABCAAAQhAAAIQgAAEIAABCEAAAhCAAARQJCIDEIAABCAAAQhAAAIQgAAEIAABCEAAAhCAQC0BFIm1iPAAAQhAAAIQgAAEIAABCEAAAhCAAAQgAAEIoEhEBiAAAQhAAAIQgAAEIAABCEAAAhCAAAQgAIFaAigSaxHhAQIQgAAEIAABCEAAAhCAAAQgAAEIQAACEECRiAxAAAIQgAAEIAABCEAAAhCAAAQgAAEIQAACtQRQJNYiwgMEIAABCEAAAhCAAAQgAAEIQAACEIAABCCAIhEZgAAEIAABCEAAAhCAAAQgAAEIQAACEIAABGoJoEisRYQHCEAAAhCAAAQgAAEIQAACEIAABCAAAQhAAEUiMgABCEAAAhCAAAQgAAEIQAACEIAABCAAAQjUEkCRWIsIDxCAAAQgAAEIQAACEIAABCAAAQhAAAIQgACKRGQAAhCAAAQgAAEIQAACEIAABCAAAQhAAAIQqCWAIrEWER4gAAEIQAACEIAABCAAAQhAAAIQgAAEIAABFInIAAQgAAEIQAACEIAABCAAAQhAAAIQgAAEIFBLAEViLSI8QAACEIAABCAAAQhAAAIQgAAEIAABCEAAAigSkQEIQAACEIAABCAAAQhAAAIQgAAEIAABCECglgCKxFpEeIAABCAAAQhAAAIQgAAEIAABCEAAAhCAAARQJCIDEIAABCAAAQhAAAIQgAAEIAABCEAAAhCAQC0BFIm1iPAAAQhAAAIQgAAEIAABCEAAAhCAAAQgAAEIoEhEBiAAAQhAAAIQgAAEIAABCEAAAhCAAAQgAIFaAigSaxHhAQIQgAAEIAABCEAAAhCAAAQgAAEIQAACEECRiAxAAAIQgAAEIAABCEAAAhCAAAQgAAEIQAACtQRQJNYiwgMEIAABCEAAAhCAAAQgAAEIQAACEIAABCCAIhEZgAAEIAABCEAAAhCAAAQgAAEIQAACEIAABGoJoEisRYQHCEAAAhCAAAQgAAEIQAACEIAABCAAAQhAAEUiMgABCEAAAhCAAAQgAAEIQAACEIAABCAAAQjUEkCRWIsIDxCAAAQgAAEIQAACEIAABCAAAQhAAAIQgACKRGQAAhCAAAQgAAEIQAACEIAABCAAAQhAAAIQqCWAIrEWER4gAAEIQAACEIAABCAAAQhAAAIQgAAEIAABFInIAAQgAAEIQAACEIAABCAAAQhAAAIQgAAEIFBLAEViLSI8QAACEIAABCAAAQhAAAIQgAAEIAABCEAAAigSkQEIQAACEIAABCAAAQhAAAIQgAAEIAABCECglgCKxFpEeIAABCAAAQhAAAIQgAAEIAABCEAAAhCAAARQJCIDEIAABCAAAQhAAAIQgAAEIAABCEAAAhCAQC0BFIm1iPAAAQhAAAIQgAAEIAABCEAAAhCAAAQgAAEIoEhEBiAAAQhAAAIQgAAEIAABCEAAAhCAAAQgAIFaAigSaxHhAQIQgAAEIAABCEAAAhCAAAQgAAEIQAACEECRiAxAAAIQgAAEIAABCEAAAhCAAAQgAAEIQAACtQRQJNYiwgMEIAABCEAAAhCAAAQgAAEIQAACEIAABCCAIhEZgAAEIAABCEAAAhCAAAQgAAEIQAACEIAABGoJoEisRYQHCEAAAhCAAAQgAAEIQAACEIAABCAAAQhAAEUiMgABCEAAAhCAAAQgAAEIQAACEIAABCAAAQjUEkCRWIsIDxCAAAQgAAEIQAACEIAABCAAAQhAAAIQgACKRGQAAhCAAAQgAAEIQAACEIAABCAAAQhAAAIQqCWAIrEWER4gAAEIQAACEIAABCAAAQhAAAIQgAAEIAABFInIAAQgAAEIQAACEIAABCAAAQhAAAIQgAAEIFBLAEViLSI8QAACEIAABCAAAQhAAAIQgAAEIAABCEAAAigSkQEIQAACEIAABCAAAQhAAAIQgAAEIAABCECglgCKxFpEeIAABCAAAQhAAAIQgAAEIAABCEAAAhCAAARQJCIDEIAABCAAAQhAAAIQgAAEIAABCEAAAhCAQC0BFIm1iPAAAQhAAAIQgAAEIAABCEAAAhCAAAQgAAEIoEhEBiAAAQhAAAIQgAAEIAABCEAAAhCAAAQgAIFaAigSaxHhAQIQgAAEIAABCEAAAhCAAAQgAAEIQAACEECRiAxAAAIQgAAEIAABCEAAAhCAAAQgAAEIQAACtQRQJNYiwgMEIAABCEAAAhCAAAQgAAEIQAACEIAABCCAIhEZgAAEIAABCEAAAhCAAAQgAAEIQAACEIAABGoJoEisRYQHCEAAAhCAAAQgAAEIQAACEIAABCAAAQhAAEUiMgABCEAAAhCAAAQgAAEIQAACEIAABCAAAQjUEkCRWIsIDxCAAAQgAAEIQAACEIAABCAAAQhAAAIQgACKRGQAAhCAAAQgAAEIQAACEIAABCAAAQhAAAIQqCWAIrEWER4gAAEIQAACEIAABCAAAQhAAAIQgAAEIAABFInIAAQgAAEIQAACEIAABCAAAQhAAAIQgAAEIFBLAEViLSI8QAACEIAABCAAAQhAAAIQgAAEIAABCEAAAigSkQEIQAACEIAABCAAAQhAAAIQgAAEIAABCECglgCKxFpEeIAABCAAAQhAAAIQgAAEIAABCEAAAhCAAARQJCIDEIAABCAAAQhAAAIQgAAEIAABCEAAAhCAQC0BFIm1iPAAAQhAAAIQgAAEIAABCEAAAhCAAAQgAAEIoEhEBiAAAQhAAAIQgAAEIAABCEAAAhCAAAQgAIFaAigSaxHhAQIQgAAEIAABCEAAAhCAAAQgAAEIQAACEECRiAxAAAIQgAAEIAABCEAAAhCAAAQgAAEIQAACtQRQJNYiwgMEIAABCEAAAhCAAAQgAAEIQAACEIAABCCAIhEZgAAEIAABCEAAAhCAAAQgAAEIQAACEIAABGoJoEisRYQHCEAAAhCAAAQgAAEIQAACEIAABCAAAQhAAEUiMgABCEAAAhCAAAQgAAEIQAACEIAABCAAAQjUEkCRWIsIDxCAAAQgAAEIQAACEIAABCAAAQhAAAIQgACKRGQAAhCAAAQgAAEIQAACEIAABCAAAQhAAAIQqCWAIrEWER4gAAEIQAACEIAABCAAAQhAAAIQgAAEIAABFInIAAQgAAEIQAACEIAABCAAAQhAAAIQgAAEIFBLAEViLSI8QAACEIAABCAAAQhAAAIQgAAEIAABCEAAAigSkQEIQAACEIAABCAAAQhAAAIQgAAEIAABCECglgCKxFpEeIAABCAAAQhAAAIQgAAEIAABCEAAAhCAAARQJCIDEIAABCAAAQhAAAIQgAAEIAABCEAAAhCAQC0BFIm1iPAAAQhAAAIQgAAEIAABCEAAAhCAAAQgAAEIoEhEBiAAAQhAAAIQgAAEIAABCEAAAhCAAAQgAIFaAigSaxHhAQIQgAAEIAABCEAAAhCAAAQgAAEIQAACEECRiAxAAAIQgAAEIAABCEAAAhCAAAQgAAEIQAACtQRQJNYiwgMEIAABCEAAAhCAAAQgAAEIQAACEIAABCCAIhEZgAAEIAABCEAAAhCAAAQgAAEIQAACEIAABGoJoEisRYQHCEAAAhCAAAQgAAEIQAACEIAABCAAAQhAAEUiMgABCEAAAhCAAAQgAAEIQAACEIAABCAAAQjUEkCRWIsIDxCAAAQgAAEIQAACEIAABCAAAQhAAAIQgACKRGQAAhCAAAQgAAEIQAACEIAABCAAAQhAAAIQqCWAIrEWER4gAAEIQAACEIAABCAAAQhAAAIQgAAEIAABFInIAAQgAAEIQAACEIAABCAAAQhAAAIQgAAEIFBLAEViLSI8QAACEIAABCAAAQhAAAIQgAAEIAABCEAAAigSkQEIQGDmEUgsy/6n3IfnM48GOYZAnsDCxI2PL3BJogcDAwEIQKAbAgvN87j9VH8scAvTf93cj18ITGMC9lioadUTgoEABCAwlQmgSJzKpUfaIQCB3gioEzdu3Ti955gZp1O3CAR/IWAEFthv9uzZbmxszFQA2WMCGwhAAAINCNirxfjYhL/ZTi8avGw0wIaXaU1AH+YWLJRa3dpU+zNLJxgIQAACU5jAnCmcdpIOAQhAoDcC9lYza2yWvetIg7gwfcmxQVjSnvQWHndBYBoQmNCru9mJKRBN0Z7MmuXGFppCQFoArxeYBvkkCxCAQDsEVIfoN8vqDhvUbGbczZqjymOhVSGoE0UEM0MJTGgQrevpFs5a1KCO0bDOUGEg2xCYHgTG7AuJf3eYHjkiFxCAAAQaEtC3YXXk9E8jFDUKCwOBmUogUwIYgIWmANCLf5L+nalEyDcEINAzAatQ0kFXpjOR2mSR6qTn0LgRAlOegJ6H9FmwkYk25H/Rb8rnigxAAAIzlQAjEmdqyZNvCMxwAou+oYy5ZP4T7ok7H3ILn1iQTuWc4VjIPgQyAkuuv+aiMUSMSMyYcAIBCDQjoDZ2/p0PuuTRx5vdgC8IzAQCpkCcvcpybvYKy9rMGNTrM6HIySMEpisBFInTtWTJFwQgUEtALzoL7n/E3fPVi9z4PXNr/eMBAjOJwNrH7uVmLbvUTMoyeYUABCIRSGw8833nXOnmX3dbpBAJBgLTgMCc2W7l3bZ1K2y36TTIDFmAAARmMgEUiTO59Mk7BGYwAW0kMdt+C2ynlfF/PeoWPDBvBtMg6xAoI8DKJ2VUsIMABJoRGJ/7GG1rM1T4mikElpidzoCZKdklnxCAwPQlwMrH07dsyRkEIAABCEAAAhCAAAQgAAEIQAACEIAABKIRQJEYDSUBQQACEIAABCAAAQhAAAIQgAAEIAABCEBg+hJAkTh9y5acQQACEIAABCAAAQhAAAIQgAAEIAABCEAgGgEUidFQEhAEIAABCEAAAhCAAAQgAAEIQAACEIAABKYvARSJ07dsyRkEIAABCEAAAhCAAAQgAAEIQAACEIAABKIRQJEYDSUBQQACEIAABCAAAQhAAAIQgAAEIAABCEBg+hJAkTh9y5acQQACEIAABCAAAQhAAAIQgAAEIAABCEAgGgEUidFQEhAEIAABCEAAAhCAAAQgAAEIQAACEIAABKYvARSJ07dsyRkEIAABCEAAAhCAAAQgAAEIQAACEIAABKIRQJEYDSUBQQACEOiCQFLh1+zTirnoXrwOb5eb/9npmJ3rl9rJ38JFv7EFE+cTbrPNfkxuRTM+YaGjwpI/O1eYsybs/C2zZKdwJ0zOXfHI6Djxy7mnjhNuZelQ2N5P6XFRoFn8Pg6fnonr7NbQXeclphhWxtD7TcOwP4l+Zhn+5EfXyosd0zKQXWDEKy0fS+PYfHMI/epeDAQgAAEI9E5A9WhFXVrZtlb4TxPhw5s4zg6v5UFto+pxtTsTbllbKffQyJ//TbSlanPSNsHs0zY68D/bhz1hN6l9kv1EnKVtq9wLbbasZEpZLHKa+GsBWzuXhiubMJ7gOvU84SY/mf/UYfGflJHyHvhNz72X1N7+VLWt8ueZ+TD8vTqanec4W21roTxycYX3cQ4BCEAAAj0R6PyO1lOQ3AQBCEAAArUEJjq9YedWnWAZ9aOLZtaYHCZ+RUe7lrN/kZilzrqufThW06e3z57oaI/by4FFMi5L/YrG/MnMNrdUgagXHAsrfcnxYcqD2SfWsV844T+10vlEOmeHHfmJFwB/e5pXhektgtYoTb/sFybGYiIzCtwb3Sfr9P7ELZzjHcw+SE/GbKESqheiRZlN/Zfl24JZKFYWbspORx99+nKz0KUvdhMF5NPuj2kqFK6Fofvs9ok02lHhiIH9lPZE/uw3Nr4wTXOqYDQrDAQgAAEI9E8gq7sngtK1quG0XSgEnzYHciwx8u/dVU+rSUqvvV/fdsmfuc1WuyUPOU8TnuVXbYy5SSGZtmPyOtEuTPha1HiYuwXlEh++OaZtre4z/2n+lBa1K3Kzn8+zbknbJVmqTfZp0b32UzuUqF1c1ErZcbEJ21bZ+vY9DcJuydKgcHS/AVG8Y8q0/ff+5RoaOWcszcHnPfVjaVEYafo7ta8TfQ3fLfBpTdtWZUdKWaUhZWZpm6++joUbJoRzCEAAAhCIQiB4/YoSHoFAAAIQgEATAkvMdkuut2bqM3n0MTf/rgfc2BP2AqKO8nLLuCWfvJKbM3sJNz7/cTf/r3ennXWnjv8s85B24Bd1ytV3Hlt+KbfUk1dLX16SufPc+D8fXPQis/zSbum1VnILTNs3J32bsFutkz6WvsksTIMZsyvp+2arR26KtvG7/+UWzHssTdfsdVZxS1lakvRNxhR26pErwgmje2Xm33GfG5/36CLbOZavtVZzs5Zc1HVfwifWXMcfW2C/x20k3gK38JHHrdNvSjT7l+htaeIFQS85s1de1i2x6pMWhTc2Sz4WnYd/zUp5mf/3e10yX29hixxTfjqVux2WfOqqbs5yy5q7pX/BuHvsln8u8lj118JRUOnLolArEMvTnGWWdbPXXN4tueZKzi27pBt/YJ5bcJexevAR5+Y+akpW42kME3tTGluoXFn+J96U5qy2glti5RXspVCBmTEnnaaXqX/ZJ27BfQ9auBYeBgIQgAAEeiNgFfjsVVd0S6y4XNoOLrjzfpc89Jizajk1s9dezS253NJpPb/g3gfc/PvnWfMwbjWwKuZFntI2QL7tZNZTV7P6f2lrwBa4Bf+83y145InUfom1V3Fu6TnmRbW9tVJp9a6rhW5OWv1be2r3j1nbM2YNSmLt+4J/3JsqB9WGLPmUlc1tibRdGJs1y45B42pRK8wFj1jfwOJM236zm73Sk9wSqy0/kc7F/hfax8Fxa1OT+fOtHzHRvioMa7sXpv0GuzAze4lZ1o6t5MaWWtKulDj1BwpG+TDL8X894sbvfWhReu06zZ7la9GJhb3ckm6JtVZ1s6x9lN3j9//Ljd8/txBY/lIpTpWOCm8i4llLL+1mWV9lqfVWdrNWWN4+Ti508++d68atfXWW//G5j1v3wPJnfGbNtjODOmZaWN2v9naZDde25BrrifZ1lr3ZWlGlCsU0I0rcwvlu/FbrRy1Glk8YVxCAAAQg0DUBFIldI+MGCEAAAv0TWGLlJ7m1P71r+vLx+HV/d/ce/xNTSs1L+71LbbymW/2AHd3s5Zd1C5+Y7+787HnuiT/dZm8Bs/Wqs+idwk7UJ5bibclnPMWteeBrUveHf3GDu++kC1Md1rKbb+DWOvDVqX/5la5u3F6YZtsne/XhF1jHW2ezrDOukX/Jo+Punq9c5MYtDH3VX/HNL3DLb7OR75GnoxiVhkVGIaavFu7OY3/s5l15Y2q9xArLuDUO3snNWX0FC1evQhanveToZUr6woX/MgWcvZw8cs3f3SM/+5Mbv+fBVDfq+/d6OVj6Rc9yq+2xrRuzN47EUj0rzfWiWMO/C00hecdh33WP3/BP87soNXpJUaoU75gNqVztAzu5JddeOc3D2Pi4u/19p7sn7rEXlCpjN2b6WkvMEk9b3S2z7TOMw4Zu9hpPspcmy1OqrVyY5mfB7fe7h3/1F/folTe58dvutYERFrvB02gPlU1iL27L7fRct/Krnp3azzL3NK/pW5C5WxnMHpttSs4F7p7Tf+YevviaqpRhDwEIQAACNQSklHvSa7ZyK796i9TnvSdc5OZd/ierfxfduOLu1q5tvYFVvmNu3tW3unu+9NNFH7ZUdavONn/6pVW5Xa+y94vdMpus4xY+/Ji7+4sXuAXX3uZmz5njVv+vV7plnvFkp+9YahaTiXZOo/0XWhug9k7ttdomtSnj1lb84wOn24hFs193Nbfa+15tikFTCppRm5waS/sio897pke7/k5397HnZR+Yln/hRm6Vt73Y0jeW3iPdo1qUhUrwgvlu/n0PmbLzQTf3kj+5J/7w11SxqHx4k6y4vFv1AEv301e3MNT+L1KEevfwOPfKG9zdJ1/k3KOmODWTjsa0aNIRkJbfpbd8ult13x3c2DJLpn2Dhy67zt1/2mWmMF2U9jCs9HyCacrX0jTHPoAu8ez13AoveZZbcqMnuzFTrs5WXyTV+Jqi8LEn3KP/n73zALCrqvb3nppMeiV0Qu810jtSRIGHDwQVBVEsiIrwtyEP7AL2Xp4iiPrABiiCIr1Kh9AhEAg1kF4mmX7/61v3rpMzNzMpk5lM++3kzmm7fufes/ZeZ629n3o1Lb71ibT0sZdS5eImaynqXotj/7hXlaOtv/Gl4/3FJQpciuAvnhIVJaYoU5vnzk8vnX2ZaTvxeVYQAREQARHoDgJSJHYHReUhAiIgAl0gUGkKJHq+dHrpINPBLqrpTHVm1ogVNjqpHlqZxh2/Z5r78wWuAGNw4r3l0uCgtDGXIUtj1opVDETsJOdbm5vsbX6DKyv92PKvqLUSaqt9INJmlpBYQXodSIOloFntYYBIfOpVsPwY2hQamlMTnXA74AxWDigg+dfWQmKLRChtURwWzK2orck6/1bpCvu0VVXa4KHOrPNGpLrN1k11u01O8y++NTU+/aq7PIVLFIMBy9rqbXVtaEstjcWBjOcff+xSwZRvRa1fVmzJpal4XLvZOmnIBuPtnA26sFawwd9QU4w2XftAkWHkVbb1AZNZjA7bY4s05j37pSGmFDWwRctJY4DVh43iUlVtTaq2AeEQU1Q27blVmnvFXWnJQ8+bdSJtjUxtUONWlW5TkVqXtlh67rbV0RjC2gwwjI/tG38FERABERCBNSPASyyXr/ZsRRqENSLKpwqTuxVVRQXaiN02S437b5cWX/+wxymJr0ygFI9N3WaytdU+yAYC1nGtJj+RrxWmQGwzeYD8rh42xLwKTFaYbEJmttkj3V9yWbo2U4yRnLrg1mwSNNUS19I3Wz4ElHtF+drq8rwN60fMGkvlsq0wS3deZrU1mrx2mWHlW6Z4AQydNC5VmMVl3RYbpIV3P5MW/e52r4e/+7JsCMhWt5g3Nq2LLH9kYz4QzxpKfV1lV0oXDMmrwvoQQ3feOFVae8kNeT9smw3TArMobJk9P5/bcvvcg6pxw9OYkw9Mw41/1XDLw+qAJWJhiclW+gtYTprV6Igpm5kSd8O0dOqLadavbkip3jwa7G2h18WrTWUgVplaMENcanlYen+RZw31KBwvNg+IDOJyVdIJERABERCBLhCQIrEL0JREBERABLqFQKn/jj6RQH+9dMqPUOBZD9060hukurftnJpsUEDAosHHRxaBwQshxgKcJx0d7aZnZqY3zFrQhgTZ9eH7bZPGmAUAFg31NtCov7NofRjuyy2vzCE7f9vPG/0q6/W3NbamOdc8mBrMcrI8YAHYau5aDIxM7+jBrRytUc319WnOJbemloVFt+dKG3xUTxyRhr9l81RnlgjDJk9KbSftk2b/8F+pkHOJ8ia5Jq4tzb/n6bTk9qfLi7X2QMrcnV6d59fcEtFOFUpSjTyG772lKzudhw0mCEOnTE6Lbn/CBhYlV2xMRSBGAj4WjfmVhh+6Q5rw7v3NfWuIn17y3EyzopyRWl41q0Pcj+18rSkRR+29lSkrTZm40YQ08WOHp9mX3pzqo77eENc5chstn6o0+x/3pqWPv2IFFYtj6zWz+rW+ueIBGHEVREAEREAEVoEAj3b0TP7sLT1nPVnRFZndCnthNOqY3dKSZ19JbS/MKlq52XmSumwtPcP9IW37nPdgyr/5l/8nLTQ5YCpFi2xCw9yc1/nIYfaibHhqNsv7uX+8O7WZi64/6S0zfwFFXTwTZCs5mRvvnMXpjZ9e79mW/6kwt16mzkCBiUwnSUWFCTnbWXTvM2khssZkB7K60iz8eHk2av9tUrV5PIw5fKfU+NKstPSGR7Nsi0UiEU3xtmRpmnXxTamtpMSMSIhWlJVt823KDrMuRD4x3zEimWYSakbWpeG7buxWkUBBsVpt07EMMe+ITJGIuSQVBWQpHUrENHGkWTIemoaZEpHQasrB+odeSA3PvZ4KJgNbG03FOm6Y9RM2S8N3nGwvU4ekESZnkykX5/zmFvNiKLlPe2OK8tXzeW1hmn2FMTfLUQJFxv1iOhU3HfUr+iMCIiACItAdBKRI7A6KykMEREAEukKg1LmOpPS36WfnAwoz5gUac8iOqeG+582N91WzjCjFoCMdCeycD3zsVLytb1tcb0orc5fOhdqt1vUjsmiZuTDhVr1coB58bODg3fE2m6fx5Tmp6bGXTTFXyj8SlcYKMVCI0741n6/GJ15JLQsWez0pc6n9WfLwi2mdTxyZhpiCdIRZMdRvt0Gqv6tMWUhky7vFBhaNT8xol23WZjvrAxPqSnwCPGxcVzlpZBpq7mh+aBaNrbMW20BndKrbaHyqMQVg05PWbi4yyswFmly99YZp/H/vbXMrDrE5HZvS3DufSouuvN8GhcwXFcDNWPKB59LS+55LY9+7fxph1hnVo2rTmGP3TA3Pv2nzVNq8VqUAIlPlmvLTrCuNY8vjLxctFiMrr4dFal+VSK6tCIiACIjA6hJw+VVMFLIxHrmcLb6MMgP98aPS2KN3T7NNqVYwpZbpCIvPYral/Uy+8Iz253QhNb5QNt9unVnWmSWiR2lo9Rd5eTlgKT24Qs4i8TKPzNqw9kcOm6Bgfj/kRZSbzEDPvI+LWjHO50Lrmya/H51hWZgikbd4yFaTSc3mQj3xtENtHsTqNOqg7VPj/dNsvsPSizPSl2QlC301Pm0KVKZUyYccpBCrLFDmp/ljFazdweSdzdeI5V+j1YMpTQpW3vB9N7cXlE+UGkH7LMTG0uIRMfa4vdKwHTexahvDN+anOfaCtPHRl1KFyenS+z5Ps9TasmS3LdJ4a0vNsMrk1qOvzUsL/nBHMV//ay/gbFtpf1ttbueWp15LLTZPtJdJXSmbCLnvgh0piIAIiIAIdAOBkBHdkJWyEAEREAER6G4CPueRvWGvsrfyY07cyxYiKc6pRDko0UrreXhfubvLXpYf8wJi9WDjA6SGbV2Bxy4ddT502jsIbm1JPUlLPAttNol6/T3TbNJ1c9Ey164hKDftmrcl8inFRW9Hke0+pWvk5Xo9Bgrs28erh3WEWTtiJdhm1xqfeDUtuPlRn3+peszwNMysIQm4eBULLm0sgwpz1Rp59M6papTNT2mnF971VJp36a1eZ18UhqgURLBRT8uMWW4lsfSZ12xS/IVuATl8l00tc2pSDIxhWIAFANS3uKIkJ0t5eaVLkbURAREQARHocQJMJdFkc/TiWjzCpqYYvo9ZvSEDKLn0jI9nvSv3eqRGPPztZSEFmKCIcvzYTiE/vQ4hc8rrUEzu8VxZai/vGu54KrXVL3FZWDtuRKqaOLqYirZZASGzKQtLR7LIf4gc7WZ6E1hQPFwqjRVTmgyzeYMLVmBrfXNa8Pf7U5O98KuyF551Ntdh9SRbNAXZ5gLOdzwD8hyy+bpp5IHb2ktKcxW3xVxm/++NqdFexhXqze2bQixEn4Zz9bc/meb99T+p6dX59lJxURq5kykwbZ7HCF4n0uHqbXULhXFc94pLiZjh0I4IiIAIdCcBWSR2J03lJQIiIALdTKDZJk5veOaNNOaYXdLQrTdKIw/fJS20ufiwjKMTHZ3vnu0rmwLMFGOZVYZ13E3/Z4u1WPlUIkJpIBCH2dbiUE8GK+jTSNNq8zv5HIfMBTnMVm20AUumYCNiSTnIgCTamOVXvkMcztkWT2UGOiN23zxVDLVVr23ORxZDwRKwyVbnrB0/IjFh/fy//MfmlyoVwsbKJI+qDSfaXE+bGF+bK3JeY1p89f2pklUwqROBsuzj9Suda7UVt9/88b9SBatXWigwp6O7TPuhKzNbbaEX5q/0QVzxdDZYo+0U7t7c5K0gAiIgAiLQowR4/i+64Yk03FyBazccm8a8Y3ez0JuZWl+c5bIuL5N41IeSr/srZXMO5wS4ixWOEUjIm1UokBdmPhejxW2zOXhbbTqSapM5KOwqa1ihuRiQ4S5PLVPKIe+O5GvIdS+7JJM4R9zayTb3sFn2c9xk3gYNtihLra1sXWcv75gzceguk9PifxWnHPECXGNpac2Xe9jBOxY7D1bjKbuYAABAAElEQVThRbc/ZVabrxb7MdberEzKIw1b+yz691Sz/J9WOmEv7xrMdZmK2TV6QVhFIo+r8BUnTSk4RzuP7EaJ6f2X3PWIp60IiIAIiEDXCPhztmtJlUoEREAERKDHCVgPuP76B1O9uT5V23xOY4/aNdVssZ53pFHKMXgg0D9eK33kUgfeZhzyOoTlwsrK5nqmjMNyYdOJNj9VjY0XbI4oU8T5IILBA/nzKQ2s/NAS+yAmt83i0X4+UQHbx6pwGIpEy6/NXKdann49NZoicenzb9hAqJCGrDvGVttcv12aADhsxw1trilbPdLquOSB51OzzXEVA62srVSKcmzrFh62bTW355bX59kcivNSmyksGYS6ZQVxrC3Vll8FE0lSz1Jd821iIBn5WwwFERABERCBHiTAS51mm/N2wV/utXmAm00ujDa32z1Tm8kP5IsvKlIqP8RLj1XHCojnP2IwXHxdhtg1Xqh1GCKdyaNQxFVvMK7oamwN9AVhFpZcl8nYQlgkWhOXk6ueB3kSl23I1ii/tiINMbdmLPYRZ40PTk8Fm8dx0Z1P2wszWyDG5jEcvssmqXLkUE+fyXJLX20u5EM3M7lvFaiwF3z1d9n8zKbMpR8TFpjEj/r5CzbkqE0v0jLT5Li5NbeZZWJqKLmPR3vsBV0VbzapY3xs119altffziuIgAiIgAh0DwFZJHYPR+UiAiIgAj1CgM5+6/wlafGV96VhNudfVXVNGvOuvdLsX/zbFihZnCm5eqTwyNRGDMOnbJpqbZJ0HxjQWS+FhmkzzYrjZbcIcKs+KpwPWOmxUjTnGQ2ZQm3YbpumYbYQijk2p9aFjbYi40vLFIl0/C3gUmX/0xBb3blw6M5+Lvtjmr3m6bNS4/SyOapKZQ/ZxdyfbH5DlIYN0yyeuV0VmszlyxZLGWUTuDM6qttzC188JgZfPoCxAqrNsqLKVudsa2lLDbaIDCtJsrgN81KGRWY0MRSBXq8YwBDPImT52sUCliH2r8IyGD5ly1Q9oeRqFg2y+M02Kf6SR1+MM9qKgAiIgAj0KAGbn9CUUK0PTbepNjZKow/YwRYQ2SyN3GurtOi2x/xlUDYfcY/VwxYWGVGTRtscjS4jc7IVObP4+kdSpa1knLdYzKqCPLWXi+6fjPbNjqtGD0+jTtjTrPFrTQ5V+suzFnuZ5iEElx1gwViosTkNbcXqwlKzoM+Fginqltz/rGkJm5fJsVJaXtIN33kjl4WsGr343uk+p2SbKfkazZKzbvNJaai96KwxpWEji7iU5DmbCpuWpWpEnVW3MjXZvJDNM20eYcsXJWK+fVHNOJfJUmuq6w4tgsexJps9ohn/mwLT/lWPG5VGHbFLasu3xyK2mYfA0gefTy3WX1IQAREQARHoPgJSJHYfS+UkAiIgAj1CgE5zg83Bt/DaR9KYo6fYHH8bp5HWYV5wxZ3LOvo9UnIx08rq2jT6wK1Ta6vNi2QDFvcgssFAwUwo5lx5b2q0FS/DhIJxkHfybVs1Ymga974DzM2q2cY4dmWIdfbXG59q1xtnCtGq1NLUlBbe8JAr0bAkYFxEWj4MIhgcjN59C//YqSwwV+Gsv9zTfrJ7S+RWgAyO9traDqx+ptGrv+8ZV+RRfMO901Lb+/ZNVXVDbSXsjdKCdcfaoijmgsXopKQArB433JuC23UMPFqtLu2C5eXWiFYmgxz2sX6IwC7KRPKkXRVYI9q2zeZuHHHAVmlk2iZrJ1HazDVr/k2PSZFoLBREQAREYG0SaEUOXfWAvbRazxbjmphGm1UiKwi3mrVijweTo7WmYBtvcqmV+QdNLrolngnDVlOQ1d/2eGptMvmJ4g8ZZRUqias0bMrmqWqCvdzzYHJ5TF2q3WSSWSMOc9nX/ObctNjmL+RFFgGjPQLpsbasNaXgOu8/wM/l/zTNW5KWPvWyTdFhK72EXLNEWCnWTrSVmbfd0OR3daq3F4gtb5gyEFlt8zjXP/R8Gjp5oi06NiwNNbnd+OKbnsbrbPng9lxh8hlZ2bpoSVHhR/55+Voqr8qqjNyNbb5+LjM5YXFxbcZ7gKlEKo3FuOP39Au0kaz4NM5ekBpfsnspRaLRUBABERCB7iMgRWL3sVROIiACItDtBLDMQ1nFpOiLbpyaardZL43YbqM0xhSJS23uv2ZbIbgnA3P70VmvXGrzBNrcS2jEimfoolswFyUPpUN67kxez4inoq42Dd97K5/DCOUfUXxVyuaK1Gyd+oW3PpYW/uNhm2jJHaXbWSUQlwVemMeqULpeLMiyxu/LrCEYEZm+MHSYnr7G5roasukkN2dsW7wkNTxuSk4LMGxdUG8K2dfT8B03TTWTRqeaTdZJhVfMrZrqMjqhUOpu+xXVDFBqvB1+nkxywWJ5nj6yA4FXuBiBa37sO8VzLVhNmAYWa4+2ZuwTi4HpndpME+mDttI5bURABERABHqWgD/3ef7yMLYXSguueTDVfPhQt7wfffRuaa4tslVpC370XDDLepOvvJhrs9WiERptFWYF6AUiUEzGIONsm00LYhfD7bjWlHa1m0xwWddqyzabyLK0Nt+iycalz79u8wDfnZpfLilD7VqrfUJnR568aGtbYu0DRC60Lmkwl2NyKrHhmh0gI4fYlCF4RRRM7i95/FWrt1kdejDr/6dM+WpuztUjh6VhZvm/8K/3WKGm4LPs3brQQZOX9QVshWdeFDK1SUfB20s6+1Qi6ql4EcmyFKVqFwxSwRSvFSZjW5fSYfL//ockLdbGgnkYKIiACIiACHQvASkSu5enchMBERCBbiXgqx6To/WDW2wevgV/uDsN/Z//trf75g510r5pzo9v6NbyyjPjbX/r0qXpjV/dbJOqP296RKsIvXM+dOSxomiyAYlJk0yg+CjFqmwuRYsfm+GKwtqNx6ch5jZMd37JizPTnG9fk1rnLS5aLJRGN1j2uYWf5e1Z2Chi7rUPpkV/f9BS5YNFNCsN6pAND9ixfIZua25VE0dZPQvmdjXNFHcN2fxLRFlg8zINszmeUm11GrnP5mkWLlwxwLHrzcZ4qA1MKmoqUvW6I8wL2pR/ZQMtrwnttxCWItSXbGgDl7C68PYQyUIF7tIWYfavbkqNtmI17SwNd7wRXFMQAREQARFYOwSwEo85hlHYLf3PtLRom43TKLO+H2kLsCw1L4AlNz3uz/OeqVFFqjHtH1NozPzc5S5neDFWlA1F+ZEaTUlGPa0C1Jd9xBH7S01J2Dxjlr/0qttts9RmMq1taXOa86e70+J/Tk1VLCaGYCJxTrz4HIV2qnnR0vTa+X9KbbZ6cvtgZS5uLNaDtAhO2zJ38AhTEFJ284KG1DjV+gOmoEPOEaVxms1FbArZylFDU+06o9OQ7TdIDY+ZZWMp87YlS1OLWTnaVZt6xBZYG1VnZdv8jZRRFrzNltC3lF0qI1a39hestM1CwW4ir+Yanp+V5v3gOnthaC7M+TwNAy9EFURABERABLqXQOkx3L2ZKjcREAEREIHuIRA6rJgvqPm5V9OiOx5zBV6duRiNOHgH7zPn+83dU/KyXOxFv1sgtLXYXE02OGk1C0FWXW61eQfbzOKgaG3gVXLFIHVptp5+i82RNO+y29Icm89x/l/vT202OGFUUTvOFHRjhnkBmaWFHWGZwYiENtt/D7hFt9UvLfs0pDYrOwukQxlpSr9he2xl+1VmFdmSmmzeJlypq9cfa58xqca2BRtoNS9c4szqdtwkVdmAJgtW6NLnXvPyvZ6TzdrD8lxRoO0MdhhIFYPVq3TgVo6lswjbKkZcxq8FfmbhCT//2AqbSRYTJVLaiIAIiEDPEwjZijDA1bfAi69/PpCaZ9mcuqbRG3PUW1LVemPb6aS6u1ZYpGPB32pTaWDl14JMQLbah32mD0HJ6fLQLPOQIxbbvQKW3PdcmvPLG9Kcn9+QGp581SNVmaVf7QbjPWJetiLFXJSFbCIfA9Bm1ofLy1esI3OBQi2D2i3MpdnmIWS/dcmSVDAPhaJ8HWPydVyqHjs8Nb8+1xSN5sEwtCYNNfmayU9rQMubC1LL/NI8hdW2QMrG4yxjb1musGW7yFUa7IumsG+CtcCLTOOQeRAUoziXKmtPsW9ifBpKstUYtiFfOy+GjBVEQAREQAS6QCAzIOlCWiURAREQARHoaQLWAXbLNjrSdOCtR7zg6gdSrVn31W1vLs7H7e4uWTYksMs901v2FRFLTlE++LJ64HbMfImZ5YB1+LnmnX+rcJVpBRmzVDIwMnfepXc/mxbtNjmN3m/bVDN2ZBp97O5p3v/e6K5QYTXhYxwGLRZoiY8d/KjsD0yIUxahZsLYVLfdBqbMNNcpc7+adMrBKX2gmLaFOZRIYwPECttnsFMzgrmctkr1N0/1SIxRmmyF59bZZik5YYTNQbVFqjVlbePjLxUz6eQvViRDtt0kpRFDfGGW5rmLUssLM81Y0+pBQywwILShk+3hgmXH7BJoi7WjvC3Fi/orAiIgAiLQYwQQOjyjeQbbc7zp5VlpwV/vTRM/eniq2WBMGnP83okFRrK3Q91ckUrkkbkdVJgA8Ck7kAu4A9uEhl416obgon4uM0ymmGy1Q5dzhWZTQJob8vw/35NqN7L5h8eZbD1oh7T0nmdTwyMzPB6yxcUQssbyanMhbhl0Ery/UX7NXs7V7TLZZGatZ1a3/sS08Xfe77Gop6/YzFyF9AvsU2n7w3ecnBZd/2hqnbPQ4xXmL02Nj72SRmy1vsnnlEa9fdc0xxZoabP5FTsLWCJWjh+ZqidPciaVpnRdMu21VGmWjKEoxRrR5zixTJCtRTi29UbbIe0HmIIIiIAIiEC3EkA8KYiACIiACPQGATq6pc5u++K9a+6WCnT8PUouXuucRWnBlQ+4BUOluTONedvONkBY9jj3QUYuvudtL+U9IzufrSJspxjAMAdRFkgXaWNrpyrDNcg75DbosfKwcPAFTizvrPRsJ9dzt13mMaq/bmpqtTmVcBceaatjDsHFmDxoroXSxvdzqf24/A9WGtSTFZUjYd2eW9r8TXZsq0y3mOtzm1l4YOXBpxLlon0qOW6yRCUjhWG7bGIrX1oiy4uBWsvMeWnx/S9QYWc65pg9U+VYs8KIYPEoz5tp+zCo2X6TNOGTb0vr2mfsRw9J1VtOIvtSIIF97H+rWWly5Il9pxhFg5wiB/0VAREQgW4jkHvGts/TnsPMhcvTOJNXy2IseWB6WvLQC74I1sg9t0hDTKFY1E4V4yyXhKxK8rVgL6n8Y3lXmvB2xRYyilAqcrl9EygV1IeMiWNKuDYTCij0XL7mLuWt3DMZaXKr2RY2qTcLReRWpVn7jTr6LalidJ3nF8q1kDPL1d8rtOyPZeGBeN43oPyRdWnYjhu5GzWLwLSVLCiRrcyTbCLX3JzZt8YyB7BtUGzWrG/WkeRnlaXui295IrUuLCoOR2w/OdXtsY1lnrXEOfrLN/KzT8HaMubd+6X1Pv32tM4nj0ijTtnf7p3J9iwJmVuwDdIVGe7ZlU5zKeZbZF9BBERABESg+wjIIrH7WConERABEVg9Agwwsg5xPildeCz6iiMQoni/ODrHdqLxsRfSwuun2qIru9rEgEM9rvWhi8GSZfEtbmYBZycrrafNKsJYMPIm312nSEgCi4tSL+t4F4v3PNusd+7zAXJk8eiwY9lQYT36bHBj58kHewlmLcoPWBgUtEx/Iy3416NpnFkjJnPBGnPCXjZB+2spLawvDhpIb8EtCNjJlc9hFojndTZXJkY9VoEqm+B9+JTJdsHmibKBzpxLb06tsxaVIhbVej5AssyrbIA34RNvS5U20Bq6+bpp6Mbr2CqdVg8LFWbhsehv96Yh20xKwze1a7ZC9qRz35nm/+6O1DDt1VRYYm5ftB83s5FD05Apm6ax79nbXL5s0GbzIC595tW05K6nLScHwbjOAtaiJFrWNli2mRa00mbA94nii82Q5QS4FERABERgDQkwjx6Wb8sHk3+urSpeQfGEqHHFFfv2jJ9n8wxO2nB8qlxvnOnFsCX3B7lHzKaztbhxGnmE7KxkNTHLENnaZto0ZKPL31IliJPJy9I5S1DcI70Vky0sQlwTIG75TwwrD3mLbOWA4iNUmNX/Ilt5eoSt5FxtqxfXbbtBGnbg9mnJP2x+YatwUfYVY7sSjixKTYo8sm1Ux+rvpZiMGrrFeiYnJ3h9Gp6cYXL8ETPftAp6sIyK/wGQhu9kngdH7mxKwOo04qDtU+MjL3h/gfq2zpqX5vzxLpOZ+6aqEUPTuA8enGo2HJMW32iWi2+YSzn9EsvWeimpwlyfR9qicsMP2tJSVptnQ3Oaf9V9Nj2JLRBDHb0NrV7HNlPgksaDyWZ/AUv9UeaW2un9mjy0Ymz9FQEREAER6CKBDkVsF/NSMhEQAREQgdUg0Npmbkm5jm2FdYBjkNFq7k1DbHASwwZGOj7QoQNNGou70NyGardeP9WxSrH3rJdl5gOSOMylRSGIG1JVJSsSV7lyMFyEqDr7PrDyTrqdsMEYqz0OMwvCqjHDibKsHhaHOjU8PD01vzHXEqLds/hW91azsMgvUkI7sUpcfOeTadjeW6Yh69m8SjYh+3Ab7Cy+zqwrLY0PDKizfSqsjq2MKDoJzsKuVdoIqc1GakNtXqjadcf6pOrN5prccOuTqSU/72C0h/bZ/pLHZ6The22ZqkcPc4ZN5i5FuT4+Mdfkeb+/M9V86JBUY3Nk1W4wNk34+OGp6dU5qcksFguzF6SKocNSDa5kW6xjAyKb79Hq2mRWIQsuv8smqi+5atEWD7QDHm3GcRObZL44P6SdsfOlSMar4elXU8srs4pJ9FcEREAERKBrBFx+tJgcKT1f7RHsL8ls1OPKOXsWFxcdMXloj2Fb9LgYiiIstbw0Oy24/pE07pQDSxeQDMsCRy6d7A9z+yK+UACi0MJFmRWJebb7y7d8UvLnsU+wZz7xK2xKjOFvn2KnqVPxkvcLeEk3b1Fa+vDzPjcxF3l518b5MtmIcpC4800hN/6Evf3l1Ogjdk6Nd01LzXMXlDItbiqpo6XHQr6zUKwyClF72WWu1yP22MIt+5Hr9Q+8mJrMatNThwjjoNTOClPEDtt7C+8vDNt2/TTfZGyLzUts3trAT0tvfzLVmLJzNHNQ2mIzow7b0V/Ytb4+PzXPtH6EzWNcMX50qttq3VRjMr3Qagmtc7TQlKJL7ptW5FfiVKx/sfCqsXVp+Ft3MPlrqzRTFje2pCVmbuT6u57kBhWT6K8IiIAIiMAaE5AicY0RKgMREAER6BqBCvfDxe6w2Lkt5J7IzDHIe3ncpNjjw8rIxd677duJitfmpgW/vyvVff6/UtXQ4giF/nNm0Wf7BNJ6sH41sYp5244NJrBUwD2YvjrBy2FwYB9WPsacogr36UO2NiXd1nhdWeAPMYsRZ36/3iaot8GKHTK+YYDmcyTGqIgkFt1baas6Lvz7fWkdm4OqqrbGJrTfNTU+80pqfvq1YtlWD/Jo9TxKlSJ9PlAswUZbBRvkgGrIHpuaCzIKPRvo3PGEeVt5aV6oWydYHBSIVIIB36I7nkx1UzZL1UNt9eb9t0qL//2QuWsV08Ck+dEZaeY3/5pGn3JQGr79xqZwtLUmx66fWszSA8DMEenWGpZvy6Ilqd7mo1pklhattuozbl4xfvWBjFlTgKLK7vewA7ZLow6yCIx04G/nGShxn2f/9ta0WIpEv7X6IwIiIAJdJsC8g9X2oLfntL+wscdtvDArPosrU4sp0niOe+A5jLjhkH3b1t/8eBpi8/mNsBdOLjjsL3qp7CWdxSEvknCONFVM+UEkgimy2EOeucgs7fPMx0oR+YqsrDUF2IQP7mdXLR9P60LWjlrTEpuzt8EWWEvzbGVlyrOzlMnciu0C4sROLLn1cXNB3tBklr2wmjgqjThxr7Tw1zelVrO0R5wTCbUbeVSXXvy1y4drFscloXUyqixO9SRbqMzmHsZyvtUWS1k6dZkS0S3rrV/i1bGMka0N02emJTPeSKMmbJ6qbAXnurdsmhbh0mz5UoXK+qY07/I7U5NZII48fOc0dPI6adhGpjDccKyVu7llYspLy9DnjLQETSYT597weFp6g1lB2nEmXx0GnSL6G2Z5OHFsGm/traRxrls0jwU4G/wWU6bW3/eMuXJ4y8qbrGMREAEREIEuECiTRF3IQUlEQAREQARWm4Bb6/HG3Pq1rkhidMExAx8UTHwYiNjHzhZ74GxjjGFPb5SJDU/NSAvvecY66VgqkLwY39MQ34JbSvC0p39tPrkMbMjb/1FsThKQjsFByaDCyyZua4tZV9jgjK2nJb3lwzHzORUraenYsTq4gaG3hWPOLwtLH3ghNTzzure3ekxdGmHuS5Z1Fq9oyWj5e7qyxKVs/CzFWrrWmkpbGGUzGwCZFeNCm9D9URt4Wd0ol0ER1aPtzqGUvvmVuan5VbN+sHi1uLBNGu1XSsmcbfOshbbi9A3pjZ/8My28wyw75jeY0tKGJfZh4NgyZ3FabNYVs350fZr321tS85sL/Ra6EhGGhBIDZ9ZSrEzBKlKwStmSNHY/bMDrg0e7f8UGF9PprwiIgAiIwGoTKMpAHtD2QXZlZv48f3kk22x6/qBHZtoJC4gI/1OSk/6ep7k5LbjuwdRkyjOXdf58tjQemQSWl8V30W1yCHna5nkju8jXyuZ6Tr6GMq9gAsTlksVrxRXXZIFJFdu38y5b2dqxyRFkBfWOgKx3GU4Z/okrJgvnL0mLbjSl3VIEUFsawQIp5rUQwVJ6XsWkpfRxsbTNirJ6U/+qbdZPNTaNB/k1vTg7tb1uLw0te5ShyFQCTKIfUbAXco0PvUh0k+uVqdbSJ3th5+0lrn1o42JTer75w+vS7MvvTkufmun5uXxljkhzY2567o0094q705vfvy4tvslcn0sy1W8ZmZAPLPhwEnYGG24Fe3vYRucAhTJ1o8F5iJ5af0RABERABNaEgL2M86frmuShtCIgAiLQbwk0mjJp5oVXppY3Su4/vdkS3sRb+d4RZscPbGudZowHSn3nYg2tXxzWAMUTpb90tmOgQ9+51NFvFycOGAyYEgvLiHZ5l65TfJz3suwEWceAILJh63EpL8ouXWSwwbWweCyd9k0+//z5Vd6nraX2UQ7Fe2GrkkEubXn0rC1kyAHB9hkEsoJnVV2trTa9xBdzKV5c9ndV2uTKTZKUsVqWS9/Y2/jSM1LNMAaQCiIgAiKwegRw2331gqtT09QXVi9hT8U2TZQr7Ow57tb9lIOAs+cw73JC1nHa5QnP5/wz2tK5kGEb1/LX7XQWXO6h0LIXgpwsi9dOBlgEf3lnxnX5OmR52U5ncoV0oczMx3d5ZSc6ktXt4nV2EG0tyT8WXcmYdZYmzpeYlrfZL9NWY2HTGGeym/Oefy1zHdeZF3Nbaqlf6tHzf9oxy18o2++MVVm03jusqUrjbdqUMYfs1Ht1UMkiIAIi0A0EsAlXEAEREAER6AsEzJ3HBxKlzrtXiQFIuRKRC3TGO3qCr0hx6Bnm/lhcLBR8oJM7Hbv5QU1YHqwwbtlgiXwY5DBm6Cjk8+/o+krP5dqat/pYaToi5NKWx/d60ZZ8e2zfDUMaGs1awhZc6SSsSpu6PLjrpEydFgEREAERWAkBX2QMmZcLJVlb/tzuUJ6Uy4RcNsvtWr4xZcly1+xEOxlg+XYoy3MJy+sXl0Iux3G2RV5lB13YKWvryurXroR8/6XdBTugrZwrk7+evymeWxfUl6fIjtsxy84uv9MZq+Vj6owIiIAIiMCaEFjR435N8lVaERABERABERABERABERABERABERABERABERCBAURAisQBdDPVFBEQAREQAREQAREQAREQAREQAREQAREQARHoKQJSJPYUWeUrAiIgAiIgAiIgAiIgAiIgAiIgAiIgAiIgAgOIgBSJA+hmqikiIAIiIAIiIAIiIAIiIAIiIAIiIAIiIAIi0FMEpEjsKbLKVwREQAREQAREQAREQAREQAREQAREQAREQAQGEAEpEgfQzVRTREAEREAEREAEREAEREAEREAEREAEREAERKCnCEiR2FNkla8IiIAIiIAIiIAIiIAIiIAIiIAIiIAIiIAIDCACUiQOoJuppoiACIiACIiACIiACIiACIiACIiACIiACIhATxGQIrGnyCpfERABERABERABERABERABERABERABERABERhABKRIHEA3U00RARFYPQJtqxddsUVgwBOoaLUmFlKqsI+CCIiACHSFQKFQSG1tRQnrzxI9T7qCUWkGEoGSXK0s/RbU/xxIN1dtEYHBSUCKxMF539VqERjUBFpbW1Oh0JoqUlFrUtlqPTsb+CiIwKAmYCMbH+QwwrFPoaVgPwv9Lgb1d0KNF4HVJMAzAxlbUahIFW2FVFl6ObGa2Si6CAw4AkjTNpepBet/SrYOuBusBonAICNQPcjaq+aKgAiIQKqqqkJPkir5W1mR0vCaVFk/RMpEfTcGPQGGNpU2xPGfBr8NV7ZX2ZZ9BREQARFYOYEqpKu9rKscUp0KI2rtiCDFycrJKcbAJmC/hJqKVFmNlOX3UJS4A7vNap0IiMBAJVBhbw4l2Qfq3VW7REAEOiXAW+EKtImFltS6uDm1mAVFlZ/oNIkuiMAgIFCZWs0lscqUiJWjhqWqapSIBCkSixz0VwREYMUEbFhh/9sKballUUOqaEXQ8lEQgcFLoK2AOt0sdM3Xv7JuaKocWm1S1c5VSLYO3m+FWi4C/ZuAFIn9+/6p9iIgAl0kwPxN9OuKb4XpyNGlU4euiziVbCAR8LnNTBNQycBHv4mBdGvVFhHoeQIl+wRza8aruQpBG+8jer5wlSACfZiA9TtNwV4oVNscoi2putIcAxGzCiIgAiLQDwlIkdgPb5qqLAIi0D0EfLhj8yNWZIMcKU26h6xy6a8EmNus0hSIKNrZVshaor/eStVbBHqXQEmf6JWQaO3de6HS+wQBnzvUZGplRaXZJlrfU/K1T9wXVUIERKBrBKRI7Bo3pRIBERABERABERABERABERABERABERABERCBQUVABtWD6narsSIgAiIgAiIgAiIgAiIgAiIgAiIgAiIgAiLQNQJSJHaNm1KJgAiIgAiIgAiIgAiIgAiIgAiIgAiIgAiIwKAiIEXioLrdaqwIiIAIiIAIiIAIiIAIiIAIiIAIiIAIiIAIdI2AFIld46ZUIiACIiACIiACIiACIiACIiACIiACIiACIjCoCEiROKhutxorAiIgAiIgAiIgAiIgAiIgAiIgAiIgAiIgAl0jIEVi17gplQiIgAiIgAiIgAiIgAiIgAiIgAiIgAiIgAgMKgJSJA6q263GioAIiIAIiIAIiIAIiIAIiIAIiIAIiIAIiEDXCEiR2DVuSiUCIiACIiACIiACIiACIiACIiACIiACIiACg4qAFImD6narsSIgAiIgAiIgAiIgAiIgAiIgAiIgAiIgAiLQNQJSJHaNm1KJgAiIgAiIgAiIgAiIgAiIgAiIgAiIgAiIwKAiIEXioLrdaqwIiIAIiIAIiIAIiIAIiIAIiIAIiIAIiIAIdI2AFIld46ZUIiACIiACIiACIiACIiACIiACIiACIiACIjCoCEiROKhutxorAiIgAiIgAiIgAiIgAiIgAiIgAiIgAiIgAl0jIEVi17gplQiIgAiIgAiIgAiIgAiIgAiIgAiIgAiIgAgMKgJSJA6q263GioAIiIAIiIAIiIAIiIAIiIAIiIAIiIAIiEDXCEiR2DVuSiUCIiACIiACIiACIiACIiACIiACIiACIiACg4qAFImD6narsSIgAiIgAiIgAiIgAiIgAiIgAiIgAiIgAiLQNQJSJHaNm1KJgAiIgAiIgAiIgAiIgAiIgAiIgAiIgAiIwKAiIEXioLrdaqwIiIAIiIAIiIAIiIAIiIAIiIAIiIAIiIAIdI2AFIld46ZUIiACIiACIiACIiACIiACIiACIiACIiACIjCoCFQPqtaqsSIgAr1GoLW1NVVUVKTKyspUKBT8Q2U4zgeuESIOW9ISli5dmhYsWODbpqam1NzcnNi2tbV5nIhHXM7xURABEehZAlVVVf7bjlL4TfOpqanx7dChQ1N8RowYkYYPH55IQ+CZEB9+r6Rjy3V++3GOOAoiIAIdE0D2xW+qoxj8lvgN5eUq8UK+NjQ0pEWLFqUlS5akxsZG/yBf+f2Rt2RrR1R1TgR6lgC/2fzvmv28fEXG8hk2bJjL1ZEjR/oxtYrfO1vS5I87qzW/d54J+TI7i6vzIiACIiBFor4DIiACPUYgBi3RiaEjEyEUBBwTj4HMSy+9lJ5//vk0Y8aM9Nhjj6UXXnjBP3PmzEl8iKcgAiLQvwnwHBg3blyaOHFi2nDDDdOWW26Ztttuu7TZZpulTTbZJG266aY+MCIeH5QY1dXLuiv5Z0f/JqHai0D3EGDgz+8ifjP5XFtaWtKrr77qchWZ+sQTT7icZf/111932YrSUEEERKD/E+BF3aRJk9K6666btt56a5evbDfaaCOXschenhMdBfrqCiIgAiKwqgQqbGCukfmq0lI8ERCB1SKQf7zE4D8UA9GRmTVrVrrmmmvSddddl6ZPn+6Kw4ULF65WOYosAiLQ/wmMHj3aBztbbLFFOvTQQ9Oxxx7rAyKUJPG8oJXxLOn/LVYLRKD7CIS85bfCPi/nbrjhhvS3v/0tPfnkk65IfPPNN9tZF3Zf6cpJBESgrxLAI2D99ddPyNYpU6akd7/73f7yrly29tX6q14iIAJ9k4AUiX3zvqhWIjDgCGBVxACHN564I999993pqquuSpdeemkqVxxifYS1Em9Ox4wZk7lt4L6BsqGuri4NGTLErZRqa2szF8p4m8o29gccSDVIBPoYAX7bDEiwfCJwjLKPLef4veMuidsk7pP19fXZPlMVzJ49262iIn00j9/7cccdl0455ZS07777+u+cchREQATaE8CiEJnHb+7FF19Mf/nLX9JvfvMbtzzMx0QGI0MnTJjg8hVXSCyY+K3FPrI15Cq/N+QxeYcyP28dnM9b+yIgAt1PgN90vCSIfWQlv/n4IFuRq8jXmKaAfV7Uz5071+Vtvmb8rnffffd09tlnp4MPPjiNHz8++33n42lfBERABFZEQIrEFdHRNREQgW4lQGfotddeSz/72c/Sb3/7W3e3igIYnGy77bbp8MMPT7vssou7OIYiMQY6DGboAMWAJtJ2tqXTlR8AdRZP50VABNYegVAs8gIBRSJWUq+88kp6+OGH0+23354eeeSRTClJrdZbb710wgknpLPOOsstFjnH71pBBESgSCAsEJGrv/zlL31qEORfBKYMOPDAA9Nee+3l7o28qEN5MGrUKFckMs9ayFVeApAfx+xLcRgUtRWBvk2A3ysv7VAiIl+RrbyoQ6bee++96dZbb22nVOT3f8ABB6Tzzz/fLRX53etlXd++x6qdCPQlAlIk9qW7obqIwAAmwNtS3JdRBjBfEwGrB5SGRx55ZPrgBz/obowxoIlBDR2b8hDXys+XH0faVY1fnl7HIiAC3U8glBSRc/xO2fJBqXjFFVekq6++Ok2dOtUXVyIucz5985vfTMcff7xbT0V6bUVgMBNAeXDXXXe5MuCOO+5wq0SUAcw1+ta3vjWdeuqpaeedd3Z5iyxcmTyM3yPx2F9Z/MHMXm0Xgf5AgN8xz4n58+enG2+8MV1yySXpwQcfdCUj9WcRtNNOOy199rOfdRfo/tAm1VEERKD3CUiR2Pv3QDUQgQFNgM4Lqy1/7WtfS7/+9a/dhZEGYyHxiU98wi2NNthgA70FHdDfAjVOBFaPAM+Nl19+OV177bXpe9/7XuaiyVQHuDrzPMEVk8AgiY+sFFePsWL3fwJY91555ZXpS1/6Unr22We9QVjwf+hDH/LfyQ477OAKxP7fUrVABESgOwiEQvE///lP+ta3vuVeAOSL/DzmmGNctm6//fZ6gdAdsJWHCAxwAlIkDvAbrOaJQG8QiLefWDKwEvM555yT/vSnP/kb0bFjx6b3vve9PvDBdZlAPCkBeuNOqUwR6NsEcM9kjqfvfve76eKLL3YLCqyt3vGOd6Rvf/vbviJltECWU0FC24FOAGUA86L98Ic/dCtd9rHwP+yww1wRwCroHOs3MdC/CWqfCHSNAP10PIVYjOnLX/5yeu655zyjzTff3GXtfvvtl73gJy5BzxPHoD8iIAIlAlX28PiyaIiACIhATxBAAfDRj37UV2VGITBp0qT0/e9/3y0RsSwKBSKdFHVQeuIOKE8R6P8EsLDaZ599fG63++67z92zsL5i4IPrJm5Zeob0//usFqwagbDy/+lPf5q+/vWvu0KR38jpp5/uSsWtttrK5Wn8JiRbV42rYonAYCEQ84fzsgGrZaY+wAOAhZrotyNnOb/xxhv7s4T4PEf0LBks3xC1UwRWjYAsEleNk2KJgAisAgE6GzFRM5M8n3nmmemPf/yjp9x1113TD37wA199NawPGegwKKJzEudWoRhFEQERGIAEOnsexKCHZwXzOjHPKqu+89w49thj049+9CNfkCWePQMQjZokAhkBVmpFlp533nm+sAILpzB3KC7/LIzC74LfUnmQEqCciI5FYHASiJcM0XqO582bl84444x01VVX+XNl8uTJ3n+fMmWK98/1/Aha2oqACAQBWSQGCW1FQATWmACdERSCrBp30UUXpUsvvdRXX91ss83SZZddlvbYY48OFYZSIq4xemUgAv2eAAMVngUxyGHLBwVhPFvWX3/9tNtuu6V77rknvfHGG26VyBysb3/722Ut0e+/AWrAygigTGfRss997nO+MitThYQSMe/KzG8pPvF7kiJgZXR1XQQGB4HyZwHHdXV1bvnPYmdPPPGEKxanT5+eDjrooMRzRkEEREAEyglIkVhORMciIAJdJkBnBOshVltl9TcUiltuuWX6zW9+k/baa6/llIjEL+/QdLlwJRQBERgQBPLPhHhG5Les3oyFM+5XM2fOTE8++aRbJOKKRYi4AwKGGiECOQIPP/ywWw0x9zDuzBdccIGvtlpTU5OL1X5Xv4f2PHQkAiLQnkB4BjFNyCGHHJIef/zxNG3atDRjxoy0cOFCP4e1c7zoIzXPFQUREIHBTaBycDdfrRcBEehOAnQseIN54YUXJlaTHDp0aGIaVuY3U6ejO0krLxEY+AQ6U4BwHuvm888/360omDCehVdi1dqBT0YtHIwEWlpafJVVFOdY6b7vfe9LJ598srszD0YearMIiED3EkC2Yn34jW98I+24444+9dDll1+e/v3vf3sfPrwEurdU5SYCItBfCUiR2F/vnOotAn2QQENDQ2IC+KlTp/qbyw9/+MPp+OOPb/cWsw9WW1USARHoZwSwjDjyyCPTpz71KV+d9umnn/aFnBjoYF2BZTRbBREYCAT4Pl955ZXp2muv9ebsvffe6dxzz3VF+kBon9ogAiLQewSQm/nAqu9f/epXE4siMnUIls+4PBOQvSFj82m0LwIiMPgISJE4+O65WiwCPUbgmWeeSX/4wx+8k7H99tu7C1bM21TeUemxSihjERCBQUFg2LBh6WMf+1hi0ENgkvj777/fBzpYVjDgURCBgUCA+UB//etfp8WLF7vi/JxzzkkbbLBBtrjZQGij2iACItA7BGKhMhSEfJCdRx11VDrmmGO8QsyZyMKJWEVHQMYqiIAIDG4C6mUP7vuv1otAtxFgJcmf/OQnac6cOWnIkCHp9NNPTyyyEoGOCcpELCsUREAERGBNCTCQ2WSTTdLZZ5/tCpW5c+e6smXJkiVSIq4pXKXvUwRuuummdOutt7p74QknnJD2339/l6dUEpmqF3V96napMiLQLwkgU+MlHMrFT3/6096Px9uIuc5nzZqVPWukSOyXt1iVFoFuJSBFYrfiVGYiMDgIMGgpdxt86qmn0s033+wAJk+enE488cTMWiIGOXQ84s3n4CClVoqACPQkAZ4prNi8yy67eDEoXJ577rmeLFJ5i8BaJYCsveSSSxIv6yZMmJDe+973JhZFiIE8MjX212rFVJgIiMCAIsBzJP8s2XbbbdPRRx/tL+aYPuS2225zRaKeOQPqtqsxItBlAlIkdhmdEorA4CYQnY2wMrzlllvSyy+/7J2QU045xSdsjjhyMRzc3xW1XgR6igDPn5EjR6aTTjrJXT5ZzTbmkeupMpWvCKxNAqzUzIew2267pf32288H8/GCbm3WRWWJgAgMHgIsmMiLi9GjR3ujL7300tTY2Dh4AKilIiACKyQgReIK8eiiCIhARwTirSUDGawlcCW888473WJinXXWSYcddpgrFEOR2FEeOicCIiACa0qAZ1BNTU066KCD0oYbbugKluuvv35Ns1V6EegTBHBbvv322xMrkxNYvGz48OEuX2Xd3ydukSohAgOOAP368DqaMmWKr+BMI6dNm+afAddgNUgERKBLBKRI7BI2JRIBEYAAHQ2sDRctWpTuvfdeh7LrrrumjTfeWIBEQAREoMcJhLXz1ltvnTbddFMvj4nhX3vttR4vWwWIQE8TYMXUBx980F/SYR104IEHZnOU9XTZyl8ERGBwEghjAVrPC4sjjzzSQbz55pvpkUce8UVXeIknq+jB+f1Qq0UgCEiRGCS0FQERWG0CdDDoSMyYMSNza2a15vHjx692XkogAiIgAl0hwKCHFZz33XdfT46F9AMPPODPprCq6Eq+SiMCvUWA7y3WiAzcmZuMsPPOO/sciflBfm/VT+WKgAgMXALlz5g999zTF1HEMvqxxx5zIwIpEQfu/VfLRGBVCUiRuKqkFE8ERGA5AvFG8qGHHvJrrNa80047aUGVHKlgxKn8fi6KdkVABLqBwD777OO5NDU1palTp/o+AyINeLoBrrJYqwT43mJtyyqpL7zwgpfN/IhYJXJNQQREQAR6ikC8yIj8N9hggzTZFlEksLAiltI8n/QsciT6IwKDloAUiYP21qvhIrDmBOhEYJX46KOPemYMcrbbbrs1z3iA5YAiA+uSUCR2ZCXFdYX+TyDuY/k23zLuv5RbeSJd24dh/rfECpO8zID9888/n1AoinPX2CpV7xJAtvLBRX/u3Lk+aMd9n+93yJHereHALT2e3eXPl4Hb4uVbNpjbvjyNwXcGJSF9e34LyNgxY8ZkU4c8++yzqaGhYfBBUYtFQASWI1C93BmdEAEREIHVINDS0pKee+45T1FbW5t1NlYjiwEdlcEgq9zNmzcvU2rAaezYsd5urtNp46MwMAjQ+eaeh5KLxUC459xrQmwHRmt7txV5lixCgeXE9OnT0xtvvJEWLlyYxo0b5xXMx+vdGqt0EVh1AiFb+W6vv/76LiekHF91fqsTk+c2Slv6NIRRo0b5lAmRB9x5OdHc3Byn0ogRI7L9gbbDMxMmWJ9FqKury/oqeqYGlYG7jX4pvwWeP4RXXnkl+07w/UDhqCACIjA4CUiRODjvu1otAt1CgI41C63Q+Sbw1jIUZN1SwADIBEb/+te/0kUXXZS9xcWy5Nvf/nbaaKONshaqU56h6Pc7dKy/853vuFUcjTnkkEPSe97zHlcmcqx7DYXuCfy+gicKWxZ6QpE4Z86ctHjx4jRx4sTuKUi5iEAvEHjxxRe91JEjR6Z1113X9+P73gvVGdBFzp49O51xxhnppZde8nZ+/vOfT8cdd1zWZl4O/f73v0933HGHn8MC+gtf+EJ2fSDtxHeM799Xv/rVrGlf+tKX0iabbJIpE7ML2hmQBJCvBF6Errfeei5rUSwz5cJkc3WO78mAbLwaJQIisFICUiSuFJEiiIAIrIjAggULMgVZWEysKP5gu8bCD9dcc0265557sqYzx8z73/9+f8Ort7kZlgG1c91112UrmWNNdOKJJ2YWqdFQdcKDRNe28AuGYRkxadIkzwxrxLwlTddKUCoR6F0CLLZCwBKMF3UxLYLkRvffF6wNWUgC100CisV84Blz1113pcsuu8xPH3zwwQNWkUgDUSLxQibay7lPfepT8joBxCAJYZFIc9dZZ51UXV3tFrkzZ850AiF/BwkONVMERKCMgHzpyoDoUAREYNUJ0InAIpEOOEHWP8uzYzDyz3/+s90FLBv+8pe/uEtIuL+2i6CDfktgRQP8eLsf237byD5YcbjzCYtonkuax6kP3ihVaaUEkAkhF0KRyPzDuBcysF/RM2almStCpwSCeWcRBpvSpCM5BQM+K2PVGUOd778EkK0oEgn0a/Ud6L/3UjUXge4iIIvE7iKpfERgkBLA4i7mDMJiIiyDBimO5Zp9++23p9dff93P0wGPzvkNN9zg7iETJkxYLg0niEdHLd4IR1r41tfXO3Ou4XKCxVsE5neKOZ7iOmkJUXbkxTmUwFhukYb4TOaP9UukWVl+3HvqRGCAS304Jh35ckx+hMjTD+wP9SEOitX43lB+RyuTRp1hEgNp0scHpRFtIR9cXIcNG+ZbyiJOXqlEnSKPqEt+S3y+19SLfTrP5MeW8qkLZXGNfcqL/EhDHD4RggXxCeQTHfKIE1vSBRP28/eE/fJAnsSjHh1dL48/kI9pPy6gBO5fvOAYyG1W2wYeAX7LEbCsJfDM4hkUIZ6XcaztmhPIc8/nxjOWZzgyBO4R2OdZHSGe1XGc35JHXtZSFvcU2c1+R2WTP+mQsSELQnZxDVlDnnwvOE9cQj4v6h3Pwqjfqsh3yov88+3gXL7NlEvIy54onzxgxod9ZCSynU95iDScJ260meOoN+2L/OAWZRNHoecJIFvjPvNcyt+zni9dJYiACPRFAlIk9sW7ojqJQD8iQKeSziqBicdDodKPmtBjVaXT/cc//jHLnzmVmFuGT1gqnnzyydn1/A6dNFjSeaZjzTFzM912223pvvvu83kp6ZAzbw0uVszDt+mmm6Yrr7wy3XLLLZ7VFltskT72sY/5fSGPCOTFQAQ3rZtvvjk99NBDXh8GGCxWsf/++6fDDjvM55vDcpIyCcw/97nPfS5TgqHQ/O1vf+vuYFzfb7/9fC7AO++8M/3jH/9ITz75pLv04sZNO6LjyT7zUN14443p7rvvTszDxHx2fH9ow5577pmOPfbYNH78eLL1QFo++e8XbWJVU/Khji+//LIPmlDO7rzzzunAAw9Mb33rWxPu9+ecc47nQ/pTTz01TZkyxY+pS3SOOfHqq6/6nJawpo7cQ+qxyy67pIMOOsjZ4Nbz/e9/38uC2fve97602267eRsvvvhiX8V8xowZnj9/aCPcou7UifahgKQNlE89sD5iPs3//Oc/6YUXXvB6kz/cd9999/TOd77T70+Wse2QPvLNnx+M+3CMxQ8YYMdzaTCyUJv7L4F4TtICnrEEfuO8ZImg33yQ6L5tnns+V2Tl3//+d/csuP/++7NLLIRz1llnZcc77rijz7GYnSjtoHTBK4G0uE7Pnz/flWnMebnXXnult73tbYm+QXmgPsi3X/3qVy4buH7aaaelnXbaKZPzyAxky9577+2ygDh8N3j+Pfzww4kpNh599FFffArFG7IE+XrUUUf5HM1/+9vfXH6SbrPNNkunn366v4xBxl1wwQVePtcifO9738vkMvKLeSQ33HDDTMFKnfkgv6LNyHe+x7HyL/0E+iu0n2d2uQyjTbQZWUxgfuF99903XX311d5fIb8vfvGL3t+Iemnb8wRQWEdfif5aZ7+Xnq+JShABEegzBGzwoiACIiACXSbw73//u2Bzp/AqvGCdO8/HBvBdzm8gJLSOcYGPKfwK1nF3Nqb0K/z4xz8uHHHEEX4ML1NAFcwFs12TI21+ax3rwnnnnVewOSgL1pHL0pMHH1M2FWxwUTArx4INBLLrBxxwQMEUlp5/5MeBDRIK5557bsGUhp3m95a3vKVgSq2CKSKz/Ez5VrABSlZfWxm3YAOS7PoHPvCBws9+9rOCTcZesE5mwQY0hW984xtZfOpgFgWFv/71rwVT9BWsY5qljbZEe2xwVTDloJeXrzv7fL+oB9dNgddhPnDie2mT4RdsAOf1IW8bTBX+9Kc/+f2JfMnPFIaFm266qUAbO6oX+dnAx7/jfOdtUOR1N3fDgimLs/yOOeaYDtuUb58NPjOONkh1Jtw7G1QWTBHWYXrqbQOwwrXXXlswC5OMqXaWEeA+2qJGzs8sPv1+cg7GCiLQHwnwjObZwbPBXtr5d5nvNM8uhe4lYC+OCltttVX2/P3FL37hBSAbPvOZz2Tn88/y/P7RRx/drkLcJ3shVTjyyCMLyIl83Ng3ZVxhm222KdgLQO8L8KyK5xX32F7yFeyFYJYW+Xr22Wdn8sdechVMWZiVa5Z8BVNUFuzFmfc9Ouov0BcxZWLBlIgFm/Mwy9uUkQX6GpT7+OOPe78i6tnRln7HI4884mXHd9IUTIX//d//dfluiu8s73x6ZJy9GHNZRn+AtHyi7U8//XTBlLKeln4Ez3T6KyFzKdcUu1mbtbN2CPBdHj16tN8X+vrcMwUREIHBTUAWiSbdFERABLpOIO/aGi4rg91awsSKv2XHSi7cmrFqw6IMRtdff70Dx3Lv+eefd+u5/B2wjnz2ph7LAqwerrjiiuytP3FhPG7cuDRv3jx3NcLq4JRTTknW0ctnle3H22Py+/SnP+2WktQzAvlhMYD1HlamDzzwQDLFYOrM9Zp05fcZyzusBrC4iBDlckzZv/vd75INyryciAMbysZKM8rHMu/ee+9NP/3pT9O73vWuzBox6oxr+Ec+8pHMaiHyYh4xAlYgWDZ861vf8nwiHdeoU75etMMUdG69GfeLeATy437wBh4rDfIzhWM79y7iRX5YEHIPiG8DIy65Cxb3PeLE74R8iYP15sc//vHM6oQ05AF7WDLhPez4vpxwwgnpwgsv9LbLtQtSy4INmjO3ORvkLGfpsiym9kSg7xPg+YBFNIFnFBZgfMcJPDfKn79+QX96hADPbGQBspE+D4F7EVMpcBxTjIT8R4ayyBZWhRGIz4JQyG0+5GWKs3TSSSelj370o+nb3/52ZvEf8iLuOXlg8Y5VI/Kgo8DcsKZ0S6bMy+QP8fiuIGORJ7gHI1s/+MEPuoVieT7Un/jIILbIsghYfMf3DlkX+2yxOjSln1sy8vyNgCUt7Z47d24mS7HOxJL//PPP9/5IxC3fUhf6DPSTYK/QewSYjiW+izyX4t73Xo1UsgiIQG8TkCKxt++AyheBfkyAwQyfUNIw0FEw8xHr/KIQw+U2Bh24C+OGjEsPk1YziMB1FjdW3HDzgfQxiMA16c9//nM2KKBDjvsR7rEsbsPAAHdmFI0MWPKDlnye7DMwveqqq1zZF2UwMMD9+fDDD3fFJJ193Lh+//vfu+IM5VlnIe57XGe1SzqaKMC22267ZJaJ7oYV118wdyeUYLAh4Eb92c9+1t2WGIQxCDJrPx8E4aYMIwZWuHJtv/32zoD8URJ+7Wtfy5SIdHBxEfvwhz/s5fKdZLCFe9SDDz6YuXpHPfLbuFdf+cpXMqUv32NcxXAjM2sR52aWFz6Iww2cQVhngXxQlOI+bVYdHs0sVZJZkWRzOjGQjDkSUVyinETpSeCennHGGcksV30gx+AMBe2PfvQjH0xxjHvZHnvs4R9PpD9OgN9MfnATLzk4HwMgoRKB/kCA5xLKmHjG5gfxPN/0fV57dxH2vLTimYyijBc/hF133TWZhWB2L1DURUCOfv3rX8/kMUo5lIUfsJdzyFyUYigQkWPTpk3z41/+8pc+5YV5EmTyv/w+I8+oz+TJk9OWW26Ztt5668y1mGcfL9iQ3XxHCMhilJm8xKTfQb14kXnJJZf4CypeUpUHykR283INGcYLygg///nPXSZyTDzcoQmUZ5b+Lqf4WCbZ4QAAQABJREFU3vLMxeUZbkwxgnxHxtG3YBVo5Bjy/Zvf/Kb3fw6yaUOiz+MZ5v5QB9q20UYbeZuZsgUXbYW1SyD6LJQa/dq1WwOVJgIi0OcIWCdFQQREQAS6RMAUU+6mah1od3f4zne+06V8BmIis0bIXINwXzJLPW+mdaALNueP8zKBUDAFY8E6ZZmrGkytI+5xn3nmmYINVrK4Nn+guyOV8yK+LepSMCVUFpe8w7WZPPngMoRLMdf4kJ/NY5SVF/lSH1xtTfGZxSV+uWszblB512YbCBQOPfTQzN0p8mOLO67NB5nlR9lmYZe5ceXjmqLO3a6jnjaQyS7TVht8ZPnYAKNgCsSCKSezOLFjgyZnbQOeLD4uwqaYjSjuLvjlL385c/HmOu7cpqzM4rBDubT3ve99b5YX9cNlDdfm8oDrWNQfd3MbOJZHcXdqU6Rm8XDFvuaaa9rF477ZIK1g8026C1zkies3bmEK7QnYQDe7l+Us28fUkQj0XQI8b3ATxXWV3zzPVYWeJdCZa3OUiuw2RWD2vLa5ieNSuy3yk74QLrjcO7NmLJhybzk5y7PdLO0K9lIwyxOZTT0i4Dqcd7cmL7NcdFlEHGRDBKYasbkWs7yYioPpSfJxIi7u0JtvvnkWl3qGa3PEYcv0LCFz2JoiM38527cXf+3Kxl2bulN2fIjM9/r//u//fJqQyBdZxnQrEfKuzcQxBZb3HeylW0TRthcIcD/NC8a/D/SRFERABESg6CNhT2oFERABEegKAesMZ1YTski0Xq9ZkvDhbX644jCR+g477OB4cZHCKpEtAcs5Uxj6Pn94K8/bd7jiGh1Wbbz9/+QnP+mLoGSRSzvEx+IRF+gV3YNbb701y49yzjzzzGQD1HZWXGTJm2fqSHmU21kov4Y1HW5VWBAS4BCBdrCwC4E62oAs2TyMHVohsHDJhz70oewaFiBMvG4DkvTKK6+4VWXkSx5YNYaLGdz4ELAQYVJ2JsHvKJAf+ZrCKUtD2eSH1Ug+wJj2Mbk81pHdEWgLk90TYInlCAvnRKB+MORe2WDSLRXje8NCOU888URE1dYIxPcNXgQbtPpWf0SgvxEIGRDf6fJnbX9rz2CqL6skX3755Zn8x9r/+OOPX07O8pyabJaFsRAYjLA45BP3vZwbshWZhiwixLOO+MhJXIAJTHuBZftBZumX/+4gUwjIfa6HPPGTa/CHxcmwsCRQNjKUulI/yo868L3GOpIF2CLcc8896amnnvI2d9Ru5LfNdeyLs0Qabdc+AfqF8X2TbF37/FWiCPRFAp2PEPtibVUnERCBPkWATgUdv+j8RWexT1VyLVcGJRbuQswVSIAJyiHcfOIYpR+uQwTceXFNDoZ+0v7QUTMrw8yFJFya8yt3RtzYMljpSGnGfeKDq3UMJHATwmWJzmEo3iIfttSb+fhCAZq/1tk+bcy7ZeXzZQVJVqsm4ObEIAM3bFZgfMFcnvMf3JrhgzsYgTmaWKmagPt0rIhMHVnREfeqKCvaSlz2cbFmjsWOAoMa8sorcnFJJj/SdhTgcdxxxy03KOwo7srO4S5tViQeLZjg/hUscH2nfjBin1UucU8jMM8VbvEKywhwz/KDnfiuL4uhPRHoPwTimUaNV/SCqP+0aHDUlGc4U2BEYJViZF081/Nbnu+2iFpivkECLr/MrRgh37/iHG7CyNnoL4ScwtUUZV7MnYj777vf/e52K32THplH4PvEVCDIlDUNfE9RYkadeBmHorK87lFOKDmjLkzPwvQdET//vSeNeUJ0uKp15Kft2iHAdy2+b+X3aO3UQKWIgAj0NQKaI7Gv3RHVRwT6GYHoPFJtKRKLDJhIHGUYwVYAdus+FIAoNuiIoaiic4wCi3MMAFCyMXdeBDpqWKxFwKpxZdYD5hq7woFBKODIk7mV6NCXh6gj9xWLPuYiYiGXVQko//gOkJZ2xkCBtqAwi4UDUAxiVbGiwTFWHTHJe6QnT5S0zJFIIH+4RDnldaQe1CcsJOM6bYw6ssBLlMN1FIVcI0Sn2Q9Kf8gP60DYhcVp/vrq7DP/ZORBe5kr0Vb27jQLlIcxpxVtYMAKG/3uliHjnsV9i/u47Kr2RKD/EOA3HkG/8SDR97fI7fyzh3kFmbews0DcvIXXiuY5Lp8bkO8I8g8FZMgGyuGFE0pC8o7nYXn5KC8nm0UkL6q6GqKd+b4FilEWpuE7y/XyOnCevgVzJPOCjIAlJfG4Vl5fXnoq9D6B/DOIfoeCCIiACEiRqO+ACIiACHQjASwCWDAEBRWBjv8h5iYcnenojNlce8nmCvI4LN6Bm2pekcgAAWvFCKvSmabzvqJVlnnzHwGrhlDAUSc6hnTgORf7KEFRTq5qoGzS0tbIm7S0Ja+sY9CEK9OqBvJDCUk9UbyF1QXH5VzygxDqQj3CwpB8CJyLeLHwS9QFZSjp4j7F+fyWe4oSNJSA+Wurs8/gLwaQMGLS/dUJpI02rU66gRyX+xr3lvuoIAIiIAJrk0BezlIuFoirE3hhFIHnezzPOEcfIS+bQl4jE/PyCLldPj1H5Blb0to8ielWm/Kkq4FnLGXzIiwC/QD6DhFCnubbgeV4XpHIIjDx7M7HYx837sgj8tR27RPI35e1X7pKFAER6IsEpEjsi3dFdRKBfkSADl4oM/Id3H7UhG6tKisR3nTTTVmeKJ2wOIwQnTEGG7groyzEwg6345gfLwYPKAYj8MY/zse58i2decovD5EOK4AIWE2giKJDn1esxXXuJQOTvJVDXOtsSxrKIr8IKMg4nx9YoIRjnsF8vIjPlvh8ryIQH2UgeWNFwTGKReJg+YlVYkch8mceRNJGoE7BJM+Y61hIMMBZUWCl5VAArijeyq7RFvgzEGOLpWO4uK0sLW1jEBjfp5XF13UREAEREIGeJ5CXKcgy3IxjDt9VKT0/PUlnz3dkWMg38sRCPi878HCgb4EysbM8kIHIxjUJtA9vi3zZ9EFQhlInyiZOeaD+WORHwIJSysKg0Te33Mf4LnH/FERABERAikR9B0RABLqNQEcdxm7LvJ9khFszC6hEsFUTE5+VBVv51919cV9GqYSyjAHILbfc4kmZyJwOuq2a12lWuETl3aEjIh10Bh0oqqgfgTpiEccAIJRqET/uI1YCzz33XJxe6ZZOZn5wQ4I4RjlH2xhgMPfhxRdfnGwF6Q4HGqFEJL/ouHKOzivWCQw6GIRwzHxSzMcUdabM/ICEfSw+84E6RZtx/6I+YZnIxO+2emU+uu9HnSgTV+9w014u4mqcwCoUBSuKROZItJU+k61g2U7pWZ5dnkn5NR2LgAgMTALxHB2YrRtYrQqLdeYtRG6cd955CQ8EQl5ORauRKZ3d35B/ETe2+fjkicIQl+IITCWCy3JHcxxTJ/JF5nW2YBfykU9HIdJHHPLadNNNfZ5D4vPSk75KKFQ7agMeG9QvAn0T+j2dhY64dRZX50VABERABNYOgeVfE62dclWKCIhAPycQncjOOpv9vHmrXX04MCBg4ZR8oBO9ok/ERQnIhOOh5GLLisTRucY1+LLLLvMyIk3+HrCPJWR+4ZCIF3myyEsEBhp//vOf4zAbNOTzvOGGG1ZLkZhl1sEOA5rx48f7FSwlYnJ12FBmPjBQYTDCSs8oPGNFR9qBcjUsBonH6tgduY5FOxisdKbIJQ55YdkX4aqrrnKrxKhTbLlOXbFYvP7669vdh0jb2TbqwvV8fjCJxVO4vyyegqUj5eTjckxbsR6BydSpU30AiDKT/PjeKRQJaMCpb4IIiEB3E4hnbP75Es/1/JZ4uBVvs802WRXwNsg/9yM+EdjH6h85F7IuPw1IlslKdnjxuPvuu2fzDiOnkI0x/QXyg7pRHvKE/b/+9a8r9DgIOZQvOtJzjuvIZJiwCEwElJOx8nRw41q0mzpdcsklGRMUjvR1FERABERABPoXASkS+9f9Um1FoM8QiE4hW4VipxrrPVZaJtDBPuqoo9KXv/zlDj9f+tKX0he+8AWfQ5H4WOrRscedOJgeccQRaa+99uKyK5K+973vJSwXsXQgDoMDtqS966670rnnntturiJPWPpDXPLbZ599/AzpLrroovSnP/1pufxQUDH4oY7dYXlHWbvssktm6UeetOW2227L2kClok1YBe6xxx6+SAoLpXzjG9/wQQsDF6w9PvjBD2bKNhSSX/3qV7PVjyMPtrggf+UrX8ksJUoofBODKSwp3v/+92cWIXAkDWkJcONDfM5xP/OranqkDv7EitNcwnoy5pCK/KgfStG3v/3tnpoBF5Pys/olAy0GZ5RJPD4oEJlrEx6w/NSnPuV1Jg7fNYUiAXjwURABERCB7iLAM5ZPft5BXv7Fcz2UdMTByvykk07KFjNjLuQ//OEP2dy+1Ak5wHOdRUbe+c53ZrKOlZQ7mp5kZe0gv+OPP96nDCEuMhb5jjKROlJWyBPq+s9//jNdeOGFWf3L84/nKF4EuChH4MUceUV74zyW9MgzAp4O9EXKrR1JR11+85vfpF/+8peR1OUaMk1BBERABESgfxHo3I68f7VDtRUBEVjLBOLNfGzXcvF9rjg6yXfeeWemgOIt+2c/+9l0wAEHdFjX6IwzaPjFL37hcVBQ4ZqMmw8BpdmZZ57p+XLMfIBnn322Wx2igMLqgfhYFv72t79NuCJ3FhjgkN/pp5/u7s0oIyM/3KaPPvpot8zDkgGrPFyPmWepuwLzKJ1xxhkJK0dcqrAi/PSnP50++clPpv/6r/9yl22UqFdffXX6/ve/ny1Ww8TtH/jAB7waDF74vr373e92i4ZQ6DFIgyMKwf32288HOsxLyfnrrrtuhU1gwHTyySf74AaLEAZkWH7S9lNPPTXtueeenh8KS6woqP+qBAZVLLpDQDl5zTXXuHIUyxGUjLEozmmnneZtxtoQd6/PfOYzafr06eld73qXu6qhJL755pvd7TnczHFH/8hHPpJZq65KfRRHBERABESgawSQ1zy7mY4iFHLIXpRib33rW/0aCkQs3JG1xx57rL/0e/jhh/1FHS8Nsaz/2Mc+ltZbbz0/99BDD/mLqZhuhJqdeOKJmcX96tYUufL//t//Sx/96EddYcc8zMhc5Ntxxx2XttxyS5e7yMRf//rXHVryl5dJm5j+g34BgXS4UONdQDvhgWzHCpMXfLzUQ2Y9++yz6X3ve5/3Nw477DC3vKf99FVYwToWo2NKD+oY3grl5etYBERABESgDxMw4aggAiIgAl0mcPnllxdsInHMEgv2lrnL+fT3hNZpL1hn3TnAwiz/Cqas67RZprAqmGKsYPP3FUw55umsY1743e9+1y6NzZ9XMKVRwSwDsrzJv6OPWdcVbN7B7JopMQvWYc/yozyzdiuYYq5gnf8sXkd5cc5cfgtmKZDFmzJlSoH6RCBvs7rMrtsgKS51uIWHDbwKNujI0lCODcwKpngt0P58XWw+SOdRzhF25sZdsAVY2sXPp4192vmOd7wji2fWFQUbzCxXP1P6FUzRmsWL9OVb8jNlZXY/qLdZiS6Xn1kWepvK03N81llnOce4H6a4Ldhq0cuVze+qnIkNvAo/+MEPCjZYW65MnSgULr300uy73dF9ESMR6C8EzOW1wDOQZ4YppvpLtfttPU1ZVrCXeNlz2F7wZW3hWc3HXhYWNtpooyxO/vluL+Oy+OzYi64OZRTPdVNKtsvDFHYFszJ3+ZzP5JFHHmlXJ/MgyF9ebt8WbivYy6jl8s/XM/ZNQVhApsexzQ1cePPNN9vlaS/oCqaIzPooEZetvdAqUL8I5pJdsBeD2fM3H7ejfcrneV0e7MVmwRac8XrRN/jZz35WHkXHvUDAlMMFm6Pa74u9tO2FGqhIERCBvkZArs0m3RREQAREYE0J8IY93JrJC7dmLBewcOsocA3rOqwPYz4lG6i4aytpIh1zJH7Z3GlxZY35EjvKb/Lkye4aG67QHcXhHFYE3/zmN9PHP/7xFea39dZbpx/+8IeZO3LkRx1NkMXham2p/3ve8x63OMQ6MgL5sXI1eUdg3sILLrjArQ/L2w075nvEFRgrixUFuMGPNCsKzPFEfqwO3VmA3Sc+8Ql328qvUtlRfOqHRWPeLaw8HvefPE3RmX784x9n34OIx1ySeSZYsuBujjUiViAKIiACIiACPU+AZzUf5iHEqnBlz1+e2ywmhgUfVvL5wHMdj4AIuEufc8456X/+539cHsT5rmxZHRrrR+qINWFnAYt5ZM6+++7bWRQ/j2cFXgPbbrvtCuNxkfKQT5///OezhVY6S0SfB/dmLDBXJeTl4KrEVxwREAEREIGeJyDX5p5nrBJEQAQGAQHchGMxEwYZuKYy8OgsoDxDWcggAnck5jIioHjCNSgUVSjAcC1C+YcSzixA3TWZeYhwtWKxDspCcTlmzBh3oe2szKgP+X33u991lyfcjHCxivxYFZo5m4455hh3wWUupXxA8RWBurLCcSjLOprniAEA5dJWtsy5xODhyCOP9DkhWbiEOQSZ0wkWkyZNSgcddJDPMYXbUygAQ3kZx7Qdl6n77rvP24zLFJPWM78g+VAXeJnFhbtwR50729IG6oSbGXNVMlch7s3Un/wYFLLy5q677uoLwcA7Vr3GnY14sIl2MqCDMXWAIe7KxCewyEq0g2MUpeTHHIi4QP/tb39LzL+FqzcMWKkaF2tcx3Bfi/tIWgUREAEREIGuEwglFTIXmRIrHZuVePbSLJ7XyAkUdUwFwrN62rRp/hKM0vMLhsQzmqlNmG8Yd2JkCtNT8FynLGQtiklcgM3KscMGoMjL1ym/0BgJopx8YtyEzWo9MW0G03E8+uijCeUldccF+dBDD3W5RH8BmfTf//3fnpyXmiHLQ96SPzKUqT2Y8sQsEH3RL5gRNz8XMIxoEy/ukFVMt4I8DblMm3GFxu0bWZuX7/n6I29xF4+XhMxj3FE782m0LwIiIAIisPYJVJiw6Jppydqvq0oUARHogwSuuOIKt5Cio8obZqylBnMIhdKqMAirQ+LSUY7j2IYlHsc8quNxjfVeDAwYDIR1BGV/wOYTZHJ3wsEHH+ydf5Ra5IGiKwZEXI88mV+QlSIZGJBfDCZQ7mHZYO7WRHfrBawu16RTTz340Dbqi2UGczlRFvXkQz3Ly4i25+sfrLnG4Ix8zPXa80DBGnmwgiQDNuIxeIEPitKOAnHIl/qQH4pJBnN8KDvy7Cgt52jbqsQhLz6UF2nYj/Ipm4npGVRxT+K7QN1WpR6d1W+gn2fwyhxh3D8WJjrhhBMGepPVvgFKgDlvUaawRfmCIkdh7RHguUyIZ/XqlhzPdtIh05Al3Eue61jv5WVted552cY16rC6gfpTB/oLyBNkCHPzxkvKFeUXsigvy8ivIxac5xMyKvLlXMhl5Hy+zcEGLp0F0hOIu6J4naXX+e4lgNIcC1ZesDIfNXNJK4iACAxuArJIHNz3X60XARFYQwLR4Y9tvuO9sqzLBwdxHJ1mLBNZlIQtAasFrA0YgPCho015kY43/yzaEQHrABRRXCdPOvXkh7KNgMUFcciTT7SBLfmSX0yyTnysIaIsjstDDA44H21gn/ME0kZd4hjLQizuCDFgoF1RF79QuhZxsGB84403/BLtm2xu3Vg6YmkZ9YstkVg9MuqAQjBvReGZ5P5E/RhskSftCB6RZ0fHXOMT5cS9iazjPHHKvyNxTByuo8jFcoTAOcrL50ccBREQAREQgZ4jEM/lfAnxPI4XYXk5Vy6z4lkfz2+Oea7zLGefvNgncEy8UMZRdsTjGoHrnI9jP9nJH5SWxOPDSzX6Cx2FfJ3z+VO38vZzjkCesR9yKeRkngdxkKO8vMuXE/Uozz/OxzbaGds4r60IiIAIiEDfICBFYt+4D6qFCIhAPyUQHWc6xXTe2XbUCS9vHnHK45V3mLESPP/88931mGsnnXSSz89HmXyirOikT5061VeGjLKwwiNeXGe1ZFZVjNWOWc3xvPPOywYM0ZbYsvIiKxlHYP5F6hz1jDZwHG2JtJEmtpEu0sb5zuKXn4905INV5LnnnutZoFz96U9/mrbffnuvAwObfFosMfLu2cwzmJ+fMeqR31JWlMd59vP55vPnOsfBguN8iPOdtT9fTnm+5MP1GFxyHPc8n47zCiIgAiIgAj1LIBRnlNLR87q8dJ7TIR/y8ZEH5BXPdo7z10nHuXzIX8+f72g/8qUMQigJkR/5kM8zvx/1i/j5vg15cj3aFvnl03OO48in/BrXyaej81wjRPujDsWz+isCIiACItBXCLSXKH2lVqqHCIiACPRhAnTKo5Mb1YxOMZ1rPqsSVhSPMrASZPEP5td7/vnnfXL0H/3oR+7WnC+ffVvpMH3xi19MtuqiF81cRLifEKIjjjUE57FKJM+f/OQn/sG1mRCDDtyQUCAyaTquWATmT8K9LvLyk/Yn2hDbOB9b2kEgHft8opzyvCJNR+fJnw/XcK95/fXXvQ233XZbOvPMMxNKz7DCgAflUHd4MedgBOY5XJkiMeLGNsqN4462ESfqHlvill/rKP3qnCM/BREQAREQgbVLgOd6Z8/f/DOfWoUciud/1DTyyCvRiFOeb8SLdF3ZRp0oqzz/yA9Zme9PcL687Egf59lG3sQnj85CZ+Xm03eUNpjQX4g+Q0fxdE4EREAERKB3CMgisXe4q1QREIF+TCA/AIhmdHQurnW07axzHXEjPxbruPjii93NGIUfE5nfc889rkxj5UXcnlkshYncH3/8cU+OS+5ZZ53lC5dwIsoiTxRpzHnIPDesNM1KkVj4MSk8Cjbcnh9++GFXvqGcJDC30RlnnLHchPCRr0fq5E+0g8v5/U6i++mV5YtClAVmWCiGAcZNN93kC7gwiTyLoeC+jOKVCeJRIjJfHmGnnXbylZQZNPFZWTmeyP6sajzil8ctP448u7rt7vy6Wg+lEwEREIHBRmBFz9/yaxx3JvPK4/Y0xxWV11Edy+OXH5fXt6M8iNNZus7O5/ONOLHNX9O+CIiACIhA7xOQIrH374FqIAIiIAKdEthxxx195cWzzz7bV3xklUVWFUZBRucdhRiWePHGnjkDTz31VF+RufyNP3FZzfhXv/qVW/HNmDHDrRtXlB9KOVaVxA26s8FCp5XvoQvMIXjRRRe5RQRKUawhWE2S1Slx6WLgwTm4RGDlyQsuuMDnitLAJKhoKwIiIAIiIAIiIAIiIAIiIAKrR0CuzavHS7FFQAREYK0TOPzww31F7He+851uHUgFUJJhaYcFYSgRsVD81re+lS688EJfRIV4ebcl9lGiHXnkka6cXFl+rBj6ne98x/NDodiXAgu0oBhkDknqSYADPOASSkSsM7HqxHrxkEMO8XgwkDLRUeiPCIiACIiACIiACIiACIiACKwWAVkkrhYuRRYBERCBtU8AC7yDDjoo7b333mnatGmJeQFffvlld99FecZqym95y1vSEUcc4SsgoyTDGpFreatELAq5FvmxeAr53XnnnZ4XFopYLZIf1w4++GBfZTLy6ivKt2jfpEmTfF5I3K5vvPFGt9hkrkTmRpwwYYLPL3nUUUf5/I64ZxP6ShvW/rdIJYqACIiACIiACIiACIiACIjAmhOQInHNGSoHERABEegxAuG+jFKwrq4u7bDDDv7hGDfesDIMhSHn88qyFe2TH/MG8okQ6fPpuNZX3JqjnlE/GLAozYknnuiXUIQS4jr7tImQP+cn9EcEREAEREAEREAEREAEREAERGC1CEiRuFq4FFkEREAE1j4BFGChyAuFYSjFOI59ahbXy/dXtdb5vFY1TV+K11H980z6Ul1VFxEQAREQAREQAREQAREQARHobwSkSOxvd0z1FQERGJQEyhVkcRzb7oLS3fl1V72UjwiIgAiIgAiIgAiIgAiIgAiIQO8T0GIrvX8PVAMREAEREAEREAEREAEREAEREAEREAEREAER6PMEpEjs87dIFRQBERABERABERABERABERABERABERABERCB3icgRWLv3wPVQAREQAREQAREQAREQAREQAREQAREQAREQAT6PAEpEvv8LVIFRUAEREAEREAEREAEREAEREAEREAEREAERKD3CUiR2Pv3QDUQAREQAREQAREQAREQAREQAREQAREQAREQgT5PQIrEPn+LVEEREAEREAEREAEREAEREAEREAEREAEREAER6H0CUiT2/j1QDURABERABERABERABERABERABERABERABESgzxOQIrHP3yJVUAREQAREQAREQAREQAREQAREQAREQAREQAR6n4AUib1/D1QDERABERABERABERABERABERABERABERABEejzBKRI7PO3SBUUAREQAREQAREQAREQAREQAREQAREQAREQgd4nIEVi798D1UAEREAEREAEREAEREAEREAEREAEREAEREAE+jwBKRL7/C1SBUVABERABERABERABERABERABERABERABESg9wlIkdj790A1EAEREAEREAEREAEREAEREAEREAEREAEREIE+T0CKxD5/i1RBERABERABERABERABERABERABERABERABEeh9AlIk9v49UA1EYEARKBQKiY+CCIiACKxNAh09e1pbW1NbW9varIbKEoFuJ1AuUzv6rnd7ocpQBERABFZAAPmqIAIiMHgJVA/epqvlIiACPUEgBjwVFRU9kb3yFAEREIFOCcTzJyJUVVXFrrYi0G8JlH+v41hytt/eUlVcBPo9AcnXfn8L1QARWCMCUiSuET4lFgERyBNYuHBhevPNN1NlZaWsgPJgtC8CIrBWCCxatEgW0WuFtApZmwRaWlrSzJkz12aRKksEREAEMgKzZ8/O+vW8yMAakb6+XmZkiLQjAoOOgBSJg+6Wq8Ei0HMEzj333PS1r32t5wpQziIgAiKwAgJNTU2JD4HBDm7NDHYURKA/E7j33nvT1ltv3Z+boLqLgAj0YwIoDuvr67MWoECUEjHDoR0RGJQEpEgclLddjRaBniGQH8T3TAnKVQREQARWnYAGOqvOSjH7LgEG8Vj8K4iACIhAXyAQ0yv0hbqoDiIgAr1DQIrE3uGuUkVgQBLYY4890pZbbjkg26ZGiYAI9H0C06dPT1hvYYkoi4m+f79Uw1UjMHHixPSOd7xj1SIrlgiIgAh0MwGmDbn++utTY2Ojy1bNj9jNgJWdCPRDAlIk9sObpiqLQF8lcPLJJ6fTTjvN505hEC+Xwr56p1QvERh4BLCQuOyyy9KDDz6YuTdjyaVn0cC714OtRdtss026+OKLsznKJFsH2zdA7RWB3iXw3HPPpbvvvtsVib1bE5UuAiLQVwhIkdhX7oTqIQIDgEBNTU0aMmTIAGiJmiACItAfCfD8ybszy2qiP95F1bmcAN9jydZyKjoWARFYWwRqa2vbyda1Va7KEQER6LsENAN53703qpkIiIAIiIAIiEAXCWChqHmcughPyfokAVz2sbLloyACIiACvUlA8rU36atsEeh9AlIk9v49UA1EYMARYLDD5/+zdx7wUlTn/z75R7GioIioIGAXO7FXbKiIHUsUK6IRu1GMsYuJIbGDihVUsKGiqIgVUVGswUYTASkKKF0F0fz2P89r3s3cYffevZfde3f3fs/nszvt1Gdmzsz5znvO0UtG2Z1aFUgESoqA6qCSOl3KbBUEfNxPWdpWAUqHRUAECk6A93w5ERCB+ktAQmL9PfcquQgUlEC8e2FBE1LkIiACIpCBgMZGzABFu0qegJ6tJX8KVQARKAsC+qBRFqdRhRCBGhPQGIk1RqeAIiAC2QhoIPhsZLRfBERABERABGpGQCJizbgplAiIgAiIgAiIQH4JyCIxvzwVmwiIgAiIgAiIgAiIgAiIgAiIgAiIgAiIgAiUJQEJiWV5WlUoERABERABERABERABERABERABERABERABEcgvAQmJ+eWp2ERABERABERABERABERABERABERABERABESgLAlISCzL06pCiYAIiIAIiIAIiIAIiIAIiIAIiIAIiIAIiEB+CUhIzC9PxSYCIiACIiACIiACIiACIiACIiACIiACIiACZUlAQmJZnlYVSgREQAREQAREQAREQAREQAREQAREQAREQATyS0BCYn55KjYREAEREAEREAEREAEREAEREAEREAEREAERKEsCEhLL8rSqUCIgAiIgAiIgAiIgAiIgAiIgAiIgAiIgAiKQXwISEvPLU7GJgAiIgAiIgAiIgAiIgAiIgAiIgAiIgAiIQFkSWK4sS6VCiYAIiIAIiEAtEUilUhVS+t3vfldhWxsiIAIiIAIiIAIiIAIiIAIiUC4EZJFYLmdS5RABERABEagTAi4k+rJOMqFERUAEiobA//3f/wV+crVPQOxrn7lSFAEREAERqH8EZJFY/865SiwCIiACIpBHAv/v//32Tc6FA1kk5hGuohKBIieQ/IDA/e91gB/z7SIvSllkD9YuJsL/97//ffDzwH7qa52PsjjVKoQIiIAIiEAdEpCQWIfwlbQIiIAIiEBpE3DxkIYqjVNvsP7nP/9Jb9OQlRMBEShfAn7/e33g97zXB+Vb8uIumYuKnAcXEDlH7PdfcZdAuRMBERABERCB4iQgIbE4z4tyJQIiIAIiUAIEaIzikku3UvT9JVAUZVEERKCaBFwoRJx66KGHwqxZs8IxxxwTNthgA4tJ9381gebBO8y9/vXo/Dyw9HU/pqUIiIAIiIAIiED1CUhIrD4zhRABERABERCB9BhoH330Ufjss89se5dddgkrrbRSePPNN8OSJUtMUNhvv/1ESwREoIwJfPnll+G2224Lo0ePDs8880y4/PLLw/777x9WXHHFMi518Rbt+++/Dy+++KLVwU2bNg0HHXSQnZe5c+eGVVddNbRv3z40adKkeAugnImACIiACIhAkRPQZCtFfoKUPREQAREQgf8RwALIrYD+t7dwa1ga0U0ZxzKeNpYtb7/9djj55JPDueeeaxZJNFLXWGON8Nxzz4ULLrggnHbaaWHQoEHhl19+sTji4W2H/kRABEqSAPcydQD1wu233x4+//zz8Ouvv4b33nsvnHDCCeH444+3Dww///yz1Rv457hcbgRqWlciIl566aXhrLPOMkF30aJFYbnllgsLFiwIV1xxRTjjjDPCVVddFebNm5fOCGnVNL10JFoRAREQAREQgXpEQEJiPTrZKqoIiEDxEHBxqlA5SopehUqnNuKlgVdoXtnKQRc5H+8s2SVu8uTJ1mAdM2ZMWHvttcP1118fWrRoERo1ahSuu+660KZNmzB16tTwl7/8JXz88cdmsUhZECfVaM1GXPtFoDQI+D2MRTLdmrmv3S1cuNA+IBx22GHh73//e8ASDkd9UlndXFf1nOe7mJbOtzp5Qqi9+eabQ//+/e18IBoeeuihJvgee+yx4dRTTzUx9/777w99+vRJP1dqklZ18iW/IiACIiACIlBuBCQkltsZVXlEQARKgkChGi40RGnQJkUvoNDIKlURy8e8gluh2FV24SS5zZ49O1x55ZXh/fffDw0bNgy33HJL2G233dJjc22++ebW1XH99dcP48ePD3/+859t/DTOS6ZzU1naOiYCIlB8BLxOWnnllcN2220XWCbdpEmTwg033BA6dOgQnnzyyYDA6OGSftmu7Fgm/+W8L1lPUu+7CBtfet3M8oknngh33nmnWYBjEXrxxRfbUBNwWmWVVcJll10WEHcZdgLB8dlnn00/Ez3+cmaqsomACIiACIhAvghISMwXScUjAiIgAtUgQFerQjkaYDRIkw0x0mR/XQhxy1JWysGPxiP5r4vGNmlimehMP/zww/D8888by06dOgXGQeSYs8U/wiJdm3FYJMYbrcvCQ2FFQASKh8CWW24ZnnrqqfDPf/4ztGzZcqmMMawB3Z1POukks2D+97//beIVHhG/XBRj2+sX1uu7gw0/HIxYpw72Opb9Xiezj4lu+vbtG+bPnx/WWWcdY81HnrhbbbXVbH+zZs3Cd999F7BMnDNnTjoe8Y/T0roIiIAIiIAIZCcgITE7Gx0RAREQgYIQoEGEdaBbCOYzkcWLF1tDivGfvMHFkp+n6fvzmW6h4vK8+5JGOeWoS4c1yx133GGc11tvPRsjkQlWMnHFKoYuzozT1a9fv/Dtt99mFHnrsjxKWwREYNkIrLXWWjb23uDBg21svsaNGy8VIXXzfffdFzp27BhuvfXWMG3aNPNTFx9GlspcEe6AC3WqPyf9Qw1Ljrno5/tfffXVMHz4cBsPkS7MiLrJOhm/WIv/8Y9/tDgIwzi3CJUebxGiUJZEQAREQAREoOgISEgsulOiDImACMQJuFUCL/q17Ug72RBhm/3L4t555x0bN48B4ceOHbssUS0V9p577gmnn366/XyCDzzRpY6uuKTp40ctFfi/O5x5tuPJ/ZUxycQwGb6ybefPAPp0Hyb/lLFQLlPZk2UYMWKENVjJw4EHHhiYqZmGrVvHxPPWqlUrm3ihQYMG1g36jTfeiB/WepkQyHTdFEPR6qLerKrc5cbKBajll18+YJ3Yq1evcO+994YDDjhgKRScDz4mUI8dc8wxZtWMwOj13FIBynQHHKoqM8fpDg4rxpnF0pB98OYXd1xTcOeZ17p1a6tzV1hhBauT4/4Iz0cfhEasFvkoRFfoYrxP4vnWugiIgAiIgAgUG4HC9a0rtpIqPyIgAiVNoKZWGy4CEZ51t2Sg4YDwU5mjsUKYpL9kI4Y4kvF5g8fjZxtH2E8++cTGZ2LfPvvsYxZr7i/b0hs6hI+ziMdLWMbso5sdLn6Mxiozi/7000/h6KOPtm525in6c0bETZh4/O4nuYzHzbEkE/LrrJNhk9vJuOLHPS80IpnQgJlRYdatW7e4t2qvk6bnOZ5+tn34cU5Ysfzwww92XdAgRUDI5jjGYP9YMH7zzTcBiyWsFL1c2cJpf80IcN35+WQcyylTpth59vPqsbqfNddc04SF5HH3x5J7hm6QuGzXNHUEcSEYZ3KeHpNucO2wnaxXCEf+GWuPmb8zHfe48Ye4jhBCXMnriX2UiXHhMlnHeTz4Q3yhfMSJyxQX+3NlRb48T5m4Ui7Kh9CTyREWh1U1H0DYzsSimFhhNce5oLwMIbHjjjuaoLXJJpuEfpElMuWIO/L+7rvvmqDVvn17m10Yv9mun3jYfK6TjzhbZ5/pvJFu0j/b7tevG+pJnG/bRuLPjxGedY8j4S28/PLL4YEHHrDdF110kU1kRR5JIx5u9OjRNhYtHvfee++w6aab2nUTj5cwlJXwWInvscce4bHHHgseFhFYTgREQAREQAREIDcCEhJz4yRfIiACdUTAGxwu4sQbBmQpuZ3MJuG9YRP3640nGhX8OMbS/bPND3+E922WyfjYjufT4/A0PE+ejm+zJD6c5yMZjx9j6eng1/d7fpJpmYf//nl+fZ+Xxbc9Tbbx641D9nueWXq5CO/7PQ623Q/7MuUrnn9fxx+OsPGlpx2P0zz898/9e3g/5vu9zH6cJT9Pl6Uz833E4f6dgYcjXvwjkiAEE4bG6sYbb5wO43lILvG34YYbmpDI+GgIXHSFlMs/Ac6Rn0Nmy73rrruyJoLfnj172viW7snD+jbLt956K1xyySXxXel1v96Yrftf//pX2GKLLdLH4iv448dMsYgX8Wsu7o/1HXbYweJCbMvmb8GCBTZxBGN1ZnIeDtEaa65sDn/jxo0L3bt3T3e1zcSAfbBC9HKXyR/dRImLeJPOWTVv3tzKl024cVZYHg8YMCArA+L/wx/+EG688UYTOb3MyXQRbi+//HL7yJI8xraHw0LwiiuuyOTF9uHvyy+/tPIhUONgQH5JA5GYDwdNmjRJf1zwuM1zhj/G5+N64AMQQhmzDFf2YSJDFDXa5Yy9DoxH4nnGD+WLn+f4Osf9meD1NWGripNwOOJyv4TzuH1JnPzcEQ5/OA/HOvuxEkfwx2EJynHq8Lg/1gnPj3ixJoc95+2DDz4wa1KLQH8iIAIiIAIiIAJVEpCQWCUieRABEagrAt7gYDl16tQwefLkgBDDi3/rqPvSZpttZpYFq666aoUGz8yZMwNdSGkwbLXVVibiEI4uxfvuu6/NsOllwg/WOBMmTAhffPGFDdiO6EMjF3Fg9dVXTzdwyAeNHG/o0JhnVk7injhxolnZ7LzzzpYn/Lz00kvprlbbb799+Pnnn61LLI0WL9ubb75pXbbwv80229j4TeSNbfKGcPXVV1+Z1QQMWkVdZfHHbMAIDfiLN5a8XPElE30gOPjYgnB89NFHzQuC1l577WVWNMTF78cffwzTp08PY8aMsXRhgECCaLb22mtbevHJYuiqB28aZ8xeyriBpPfpp5+adQjnAEfc5IGxwejSzXEsJRmziu7BTZs2NZGOxvqKK65o+aKMnBcsU7BQwpGe559GO5OaYHnlTEmDMnJORo0aZRy33XZbGzNrgw02sLidGY1NHOcBi0HKiqUK3EeOHGkCwQknnGBWa/glbfKD83RtI8sfeYIVk7EgSCEccL3EBZksQbV7GQlwnfk4dJmi4rxg6VqVww+WsH59ZfLPGJj88MN1nnTcGxzjGvvss8+Shytsc01zDWeLC89ci9Q9VcVFepXFQ764B5lZnPslm8NfLqyoE2Hl91Wm+KhfEH2y5ctZca9VVT7qBywqs8VF+uSF+qCquHbfffdK44mz4nmRzVF3VNfBHsGXerBt27bVDV6lf/jg/Nok/zyHEC2xnuQZSp3sz1eereSDZyBWkh6eOPzcsuSjCNch55xnBs9OngGE84lOqGs53y+++KJd19Sx1J1MfEK8/LDmHDJkiF2LTITC83fYsGH27CNNHNbcjRo1svzwnEWQxnHf8bwhDqxmnZ/X8cRPuX3p+3km458yUG7GTeS5IycCIiACIiACIpADgejBKicCIiACNSYQCTqpqMFAKyV199131zieTAEjIS0VNV5TjzzySCpqoFgapOO/6KU/Fc2EmYoaESn8uosGXE9xDH+RJVGqR48eqWhcJNsmLneRsGdxR1YtqaihkY6XcFG3u1RkoWJx45/4o4aTB01FDadUZO2TTieep2im3lQkGqW5RN1fU1HjORVZsaSiBlKFdDxcJGqkIsuadPyRkJAaNGhQKhK1lvIfNexSkTVFKmoIpqLGUzoMK8cdd1zafyQQ2LFzzz03vc/T8+Wee+6Zihr/VjbKGIl4qS5duqSihuVSYaLGZSqyqDL/8URfeOEF80u+YB1Z1qRYjxqKqWiMq7TXyGonFVmIpSIxr0LcsIfLww8/nDrnnHPsWCQqptlfd911Ffx73llGDVLjSiLkPxJOUpFlWCoSSJcKEzVgU9E4kalIVEhfL5xTfh06dDD/5OPxxx9Pbb311rYdNVhTkYCZLkMkaKYiQSEVNcBTUXflFOepMufXTSRUWnxwue222yoLomPLQCDqRmr3bvwaybbOPTdw4MBUJERVmiLXQ7J+SMZJ/RRZlaWvq2wR+vWdDB/fjrpmpqIZaCvUN8n4oo8fqXbt2i11jcfjYZ17P15vJeNhm3okeU8m4+Gah0NVrOAZCTWV5iv6CJSKRPoqWV1wwQWVxkMeo48gqUhwrLSMkVCUij4gVRnXWWedVWk8sProo49SG220UZVxJfnluh1ZYJKMOfIdCaWW1uGHH+67a7T0esgDU4+Tp+gDTCoSMFPR8AtLXeNcEzfddFMqEursXPl1xJJnC8/SyHp2KRY8e4888shUJM6l60eeU17H8r4QzZZsrImLvD3xxBNWr5KnaCKaVCT6LvVsdYaRmJh69tlnvSip6GNB+jm5//77p+trz6/X0b70gDNmzEjx/CPe6EOP3XN+TEsREIGKBKKPTen3qhNPPLHiQW2JgAjUSwKySIzeIOREQASKi0BUG1uGWN588802wyWWLlgjYIWARcOkyAoCS8JIfDJLk6effjq0iqz1ko7B2vEXNVbMQsK7jWG9QLfHSPgyiwTixpIOKwqseLBqjBrFZqkTCaQB6wW3lMF6JxILzQqCPGIVg3UFFk5YS5Kn9957z6wrPD9YRGAJgSUhcZMn3LrrrmvWdBwjD+STOOnSR1c3LNgoL1YaWA+SN35Dhw618d8Y9xAry8ocln5Y4sGMuLE+YaB5HJYjpE3ZsLT705/+ZJab7GPWS5hgCYh1EF0g6eJJ+nQBdJaedtRQC1ED0aw6KS8s8UOaHPvHP/5h55JugAx4jzUIeWEbK8QLL7zQyurx+RK+nFvS5bxhNUK+cVwP5BWHpdOZZ54ZXnnlFfNHOH44zgs/umdy/Pnnn7f0KXfcff3111ZGrGsYq478xR3WK34tuXVm/HhyHQ78KCtWk+SRfMCE/XJ1T8Cvn2XNCddSvs4p8SSvzZrkL1/xeNrFyApO+WBFGfMVj/OqzpL6na7ahXBcB/Frk/oHh6Ug47dSP1PX8xzjWYtVJVaS0Ucce+5grUd46j5+zD7N5F3UZTy3eD5R11JH86zgeUx4JjLBypJnIxaXPEOwsL/++utt9mqeTVhHRh9XrE7EOv6UU06x5yPWjVjhkx9cJEBbPOSRutQdFrXuh+eaP5e8vH7N+tLD8Rzx5yDPOJ4tkfho14CHdb9aioAIiIAIiIAIVCQgIbEiD22JgAgUCQEaK4xFx7hjNHboLkXjI7I4sIYCXdX++te/WhdXuiUhECGqeSPCi4E/wnbu3NmEsZ122skOEYZZgBGG6Fr7z3/+07qb0thAvGMsM0RMusYigNFwoqGEEEQ4ulKRx4MPPjhcfPHF1j2MxgfdiG+44QbrikuXO3ccQzSMrPes4RZZClnDiXHAiMMdDTy6iZEmeUN4pFx0jaXxxKD9vXv3toYXg8Qj6NFQQ/TK5vDD2Fs0xGAZWYaEyLqogncaUIw1xhhniGddu3a12TIRy2hgMQYVvOnuiwC766672rmIN7zhAW8ag5FFiqXHeG+U6fXXX7fZlhENiZO4jjrqKOvOjLCKcApXGplJd/bZZ9u4V0cccYSxIe3XXnutgjcawsyU+txzz9l+JjhBiIUNjjHI4Ig4TBngSyOZCR/iZfDJHRAkuVZozMbZRpZiFh/hEHhzdZElojW4XUjk2mCfXOEIcN8jFMTPbzw19nO8KtEAP9wzlfnjms7lemCIAOLKlifyx1AAVV0b1HNcn9QJ2fLF/cikElU58t2uXbtK/Xr9lS0tTwNWBx10kG9mXCKY5cKKvFfFii6wubCi+y7CUbb8w4q4qnKIWNRvdP2lXuPHufT7mvPCc8KfQwxnwbOmqu7OdKvmORJZO1aVhbweJ/+UnY845513Xrqr74MPPhiuvfZa685OvUlXZD5G4Z9nXGSpaCIiE8RwHCbwRViMLArtGcWz85prrrE6mXNEXUxdTr3MRy3GMOXHs5WJZ/gohH8Yc33wHOQ5xHEczyaeoe6cP0KiT2bDtYVoict2rj08eUIExSEkUicnxUb3q6UIiIAIiIAIiEBFAr89bSvu05YIiIAI1CkBGgAIQ1gpIHzxcv+3v/3NxCRvgLeKLNQQg2gA0IigMYHIg1VF3NH4oWGD+ITzhkLUBTJgfYal2NVXX22NX4+bxgiNHSwrsEZk7CbGC2RcJqwnGJ+Pxhfj7iF0IkTSqMGRDg2rqIuxjUFlO6vxR7mjbl5mCYnV3lVXXRUOOeQQi4E0EPmiLn/GBWEVy0dEuqoa3JVlgbIgjEbdxcwbg9WTLo050qRRzEyYnAMsU7CmRIikcZm02KPxT/kRQ7whx/lBKCQccV122WUh6kZoDT7SRnygTDQAs03UkMw/+fL4EUGxpkRIxGFJiSUMjU73w3lhjEcap5xLziFcfVw04sBxDZx++unWiEak8euF46y7JSmNZiwu3flx304uER6ZPRdLR6xnJCQmCS37NteEn0diw7oWQduvgWQK+I+fw+Rx30aEor7IFg/+iMtFCQ+XackHjU6dOmWNi3i4R5L3VTIu8s19xHWULV+woA6pylGXUo+RdjaXKysst/v27Zs1T8RPXLkIidQ1fDzIVj5nVdU55D6+9NJL88KKuoWPTqTNj/qL/MEaMZE6jHud/TyPEMrYn8kRjjoqGp7DLKl5dnl9k8l/ofYx6QjPO7feRhTv1q2bWfr379/f6ks+9vAs5aMSdTnPTgQ/Psb4eK/w4B6ANYJir169whvR2Ll8xKGehQ11q08uE3WNtrqaj3aE5WMX9XS2850sv58DxFq3SKSOzZVhUkikbHIiIAIiIAIiIAK5EZCQmBsn+RIBEahlAgg2dCHGYfVAYwWRhwaaC35Y69FFlW0aFThvXNhG9EdXMRon+PEGCnFgAYFDSKQxh3UfYeNxYR1CQ5yGIFYlCGcIVjRaaOwzCQfiFM4blISnYU5DLBob0Y7l+kf6CIlYfNAwpXw06hC/4o5yuPUMYRABERJZr4kjz0xE4A1eLJ1oKJIOcbLEDz+sGmkg4x+BMCl4cJ44X86a/BAvE6sQF+cDcQB+nl+WNL5pUGN9wqD/VTl4e4PR8+8TIGDFgjjpeScu1hGIzz//fBOYEPQQYbk2cB4XvLFmjIuI8eOki6N8HiZ+3A5m+SOfOOLwsmfxqt01IJA8JwgdTFySzXGvufVSNj/s59rklw9HfZK8Z+Lxcl1wffi1Ej8WX+d4LmJcPEy2da5jBKDK0hSr3+hlYxW/p6nvEFMRyLLVZVwDCHh09+WDFC5en/yWWuH/EdN4rnEteZ1NWaj/2kVWqnzUojw8D7AoRGzjWYifVtFzDuHOJ7Hx+pZ4/PmE0B2NK2lCIqWh3Fg68myMxii0YSR41vHMoW4mP7k6v15J1+tTGHo5qoonXl/Ez19V4XRcBERABERABEQgBAmJugpEQASKkgBCIl17cXFhKtlISG4nC4PwlWygYS2BtSGOBlI2wc9nYsUfVmw0eBAccXR3RUT0uMmHN2xY0q2yJo40XBAjb9HkDBnFDhr27mis0hDyvPj+ypakQz7JN40wuhTT6MNhCYolZtKRhnftnRx1YU5acJA+Y2UlG4NwjCaasehofGJBRPr4Jw+skwdEFroMZmt8x/NDWMKQJxzCIPlnf1zc9XPi/rkeaMzSxZoyJB3iE+Ky58sZuT+O4dwKxhugSX/u35fkDetZHGkgpMrVLQGuCb9+vB7xZaFyRppVOb/2/JotdJ5IryonVr8RysaK/VjF83GCITEYh5V6L+m477HsY2xexrZ1K1avR/Bf6PMdzxP54eNJ3JE+dTIiIXUy9bx3zaYeYzxbHM8phoDIdE1TP+KooxkXMe6iCcRCNFGZcSIdPvBgXVuZwB4PH18nPCI/zxTeF/jxbEw+g+JhfJ1y+UzkCKmqk52MliIgAiIgAiJQNQEJiVUzkg8REIE6IMBLvgtbPrYVja1kI8u3Wfpx30e2saxIOho5NEBwpIFoSUPQRYW4f2/cYLlEg8kbSPinseJp0WCKO/JMmLjgFz+eaZ24iMcboIRFfPK4k3mkEUqenY/nJVPcyX1xv56mp4PFJUKbb7tftmGAEJaJK8doeJLPuCOcc6PRBzdvfBI3nPzcZYo3Hld8nbDEAydPk7gQeUmT9bgjDRqL3sj06yvuj+PO0/MYjwOhFMc58nPjfOL+kuuUn7E3cZw3NVqThPK/7ddvtpg5b37u/N737WxhCr3f0/drj3z5eqHTrix+scpOh+sMsQwrRLrzev2dDIHlO0M6MFEXk4xwXv2683Wvx5JhC7XNeaX+i9eBvo88eX78XmLp5eMZ7XVapvzxnMB5HKwTN/UzFojuqG9ral1LHgnv3durKyT6x0q6dROXnAiIgAiIgAiIQG4EKraycgsjXyIgAiJQEAI0UrzhTJdEXu6xGuPHMRohSYf/bMeSfn0bCwwsy2hEML4h4+GtA9YAAEAASURBVOnRGKnMeRdJ/ONoTPksyOQr2QihW3Z1RETKgCMuLOqmTZtm1nmMS+jilXnI8EdZkuln8JZ1Fw09unEjbiGuMa4X48Jlcs4av1Xly8PDtlVkiYg1J+cSoTIpGJIHmLq1i4dF8M1WNmfGceInHayCsORkn+eVuLhOYMusom4ZyJhk7PN4PM3KlrAmDHnFSod8s53NedxYvtBFkAY7lj7xxnW2sNq/bASyXTeZYi3W81GdMmQqVyH2idVvVKmbuPeZBITxOKm7MtX51EtMQEPXXboH8yHD/cXPb3y9EOctH3FS7/OsoLsyXbIZI9GttD1+F0f9OkE0dUd9yGzOzBSNgx/POqw4GYO4qudwPB5f5+OUi5Z0l+YZRjr+LuH+fMkx0uVZ4WPeEj7XtD0eLUVABERABESgPhOoaDZSn0mo7CIgAnVOgJd7GlO86CP2+cQpzP5II43j/NwhzNANl4kCHnjgARvgPX7c/SWXpNG2bVvbjahEg4fZhRHP/LfNNttYY48u0DROfCB6nyWURshTTz2V7uobTwOhjFkvq+to+NAo2nrrrS0o6dJw8zz50vNO3vjlYs0R50I6MI47JkchbRzdnOma7en5EosaTxNm8TjjcSXXsep0AZbxHGl4Jx15YtxKznXcZUoDv+5Yx4+PJ8l+BvPHAjDuj/zSwOwXTZrBfsQ8JoYgrFunepyVLRl7kesSaxzGsuQ6qMrBmglxWGI5Q/dtOREQgdImwHOEeoU6gclIXByMl4oxWJnlnrEGmdnYraH5oJCpbouHLcZ18s+zEcdwEnwQ8ueDL3k+Ucf6s5PnE3Wf18fM+PzWW2/ZBzOYcOy5555LT2Lm5Xb/mbY9PpbU5a2jIStwCJx8tGE/54Y4WI87j5cPiZ988okd2nTTTdNiZNyv1kVABERABERABDITkJCYmYv2ioAI1CEBXvTpIsusnTQGEIWuueYaG2ePdX6IdVgSXnLJJTa+0tChQ62RRqMhlwYaYzTRxZTGzo033piOG7GJ+F999VWbTIXxE5mlk66+CE5YYzCrMY7GEDNHM24gs0sjKtHVi1miX3rppawE6dqFQIhj7EWs2xCmcDQwDz744NC8eXOzeCN+xhckT+QNf8OGDbPucaeccorNdpyLJQsCFixxCJRYYhCXW28gqiGm4gYOHGgzOCPU4oe08c/MyvCgex4Ntnh3OAuY5Y/G5uGHH26CJ3FixYKY6MxYjhgxws6xc/Co/FwSh1uMYAnKRC9w84Yis0Xvs88+Fuydd96xc8BYmJwTfn6eYYdjfDKsgwifCz8LFP1hXUOjEzdy5Mj0dWE7Mvx5/t+IZi/Fcc35RAS2Q38iIAIlTWDDDTc0i8R4PcK4fxdeeKHNcHziiSfmXFcWOwiExI4dO1o9SJ3as2dPe55QxyKkUpe/+OKL9pzg+XT55ZdXKDt180MPPWTFPO+882wsXljheG4ysRjPcBf/EAm9DsWiPf6sZD/PNJ4NfPjieeQTgblY6GEtgf/+cZ6In7SwKue5gjjqz5e4X62LgAiIgAiIgAhkJqCuzZm5aK8IiEAdEvAG2bHHHhuefvrpMGjQILMyw3oAkY3GzPDhw9OzG7do0SJceuml1qCggZCLhdnee+9tA8VjHfHss8/azJM0kLC6w/oRa0OsFWnInHHGGekxrejGxUybzFQ5Oeqmi0UkouHuu+9u+WKwfazuCEc5MuWFwfbpKk03WxpizGiM1R5i2/777x/atWsXzj777HDFFVeEN998M+y55542w2erVq2sGxgWd1hTYOlBdznSqsrBjMYW4iciIDMkY8VBN2omdEG4pUsz4i3lYkl+aGDROERYJRwNNAQ7ZjZ2YbKqtOHQqVOn8Nprr5lFIA04WFMuJtJBGGRyAtKBiw/sT7zeEKSxSflhO3Xq1HDkkUem83/66acbAwTKNyLBjvgYvB8rIGYkJc+UG8444sGK1a1MbWeOf+SPLn1YGFIOWHlDOFsUjJ/mk/RsscUWgetVTgREoDwI8MzhGUEdw4zGfKRgZmKsvJPOBTKv15LHi32bfPMM7tKliz27hgwZYs8+ZqDm4xd17+OPP25WgTwr+fjERyzqYD6I8ZzmYxJjJMKMZ8M10UfC7t27W/3MMwhrfvbzc4GQD148p6jP+RjDBy233CdP7EdQxBrx+eeft67klTEmP88884zh5vnJhzT2kaacCIiACIiACIhADgSilxo5ERABEagxgUcffTQVNRToO5SKZvqtcTyZAkYv9qmom20qEtVSUbfbVCRcWTqkxS966U9FQlTqySefTEUNjVQk2lk0kciYiqwLzE8kLmWKOhVZT6Qii4pU1IBJRQ2JjHFH1mepaPD8VCRwpciLu8hqLhU1QlKRFZzlwfPjeYqsFlORwJiKxEHLQ9ToSUWWFB48FVlTpqJGVCoS91JRY8f8RNYUqcjy0cpA3iJrutRVV12VIg/JcrMdjemUisQwiysdcbRy3HHHWXzkJbISSR+CTSSspaIu4xXii8Q8i4Py4f/ll19ORQ20FPmJl4v1SGxMRQJgKhr/0fg5kxdeeMH8Uh7Knc1FolsqaoAaFy838bIeWWmm4NS5c2eLi3JHomGFqCKR0M4V593zFjUgU5MmTTJ/lDESK1P77bdfKrL4TLP1NNgXWZOmiMevFU+gQ4cOFmdkLZiKhD/fnV5yTtxFwnP63J577rlLxeX+WHJdRmK1Xb+UM+rmGD+s9TwTiLquG2vOeSRo5Dl2RScCmQlQn1APPvLII6nIetvqhGQdQ0jqTK83M8f0v73Rx6JU9LHD6qXoo87/DuRhjXqIe4RnVLb7hGccz0b83X777em8k//I8i8ViYKpSCys8DzBL/Uz+6MeA6lINLRw1IPRhzF75nGMZ7ZziD6opbz+5TkfiZPptHgO8oyK1+fRB7RU9IGxAoWox4A9t0g/+lhjzyiPv4LHaIP9UU+AVPRBycrGMySycE/nJ+lf2yIgAim7p6KPpnbPRFbWQiICIiACKVkkRm8dciIgAsVJIBJeAtZ7WP1hBYF1HtZddKPCCgyLBCwjsFCIO8ZXpDsZVgw+nlP8OOtYHjBZCBYQWMsNHjw4TJgwwSwavPsp3Z9btmyZtorzOOiWfNhhh9k4i1hMMlYeXX+xiGCcKMLRTYpuy+QVawnSc4eFRu/evUPUeAp09SIsZcWCxa38yANWLUcddZRZZJI3/DEoPFZtWGtmGmuPMae8i5bHRbqsExdp0HUZqz74YBFI3kifMRKxiMRyECtQLBAZB4suY7CizFjbUP64Y8zAU6JubPjzsRDjx30dln369AlHHHGEWThGAqBZbGLJEgmg1rUansRDObFoiTssGOlO7OeKLtdYVMITRxmxlsQ6dMCAAXZemHiF/VxHWLfADevMpIvER7M6pSyknXTx88d5oxv4sKibNJyw3qSbdCZH+ozfSV6xZDzkkEMyedM+ERCBEiZAHUO9UJWjni0Gx/AM1NnU+a0iC+1MDstp6jYsxanXozZT+vnE85dnJ88UxjdkXF2G9cBKnucy9Tl1Li4S7iwOxpHk2chxWDkLxphk+BCeMfjF0rtdZJVPPc1zkPqeNLBGZ0gTrOeTeebZi3X+mWeeGcaOHRv69+9v3aoz1fXUxffdd589A3nWEI4eAXIiIAIiIAIiIAK5E/gdYmru3uVTBERABCoSoJstXZQYsy6ySLT1ij7ys+VVlY/bxziDNBJojHiDZFlSIn4aGDSaaJR43FXFSTgEOcZQRMCjkeMuH/miYUUjlbEDaUSRt3ganlYhlpFFjZ1XRDTSJR/5cpQLZixpxNGgy6fjvPDjuiTfpMF2vq6XyPLIGuLkn4Yos2u7gOvlIL3IotXGSoPh1VdfbV34kkKs+9dy2QnQLRIxgXuZLpbHHHPMskeqGESgDgggzPGhhCXDTPDRotgcdRx1YPzZWVvPJ2fBc4r6ldmgud/5AMa4lW9Ew1zwYSj5HEZoRMjkQxYfgPiwhj9/Pni8WoqACPyPAEP+8FGcD9p8qPexTv/nQ2siIAL1jUD+WoX1jZzKKwIiUKsEXABCEGJsO0QbBCJe/vPhiJ84iRsrjVzjpRGFCIYlBuImjn25hq8q7y7e0VBifL7abKSRJhYhWPx5PqrKb67HiQ/LP+LPt4hIHjifpMF5QQT188H+fJyf9u3bm2Ul8d5zzz02wQDxumMd60nGwGQdC8aTTz55KWtO96+lCIiACJQiAepUnn1YkCc/ptRGeXhOUcdi8R4NNWF5wUKSDzeMmej1Mku2sfRHROTZwEcgLCFx7q828qw0REAEREAERKDUCUhILPUzqPyLQD0hwEt+Mb3oYwWBoxHjopWfCgQsfvhZ1jwjVHlatc3AxTcvV6GWXr5CxU+8nCPKk68y0WhmMpz111/fLCt79OhhE6p4/MyMHY1xabNFIwCzThduOREQAREoJwLUecv6nFsWHqTtdfvRRx9t3bGJj8m2sBzHmh9HzwGGmWByNRwTtjDUBM8GHM9sr79th/5EQAREQAREQASyEpCQmBWNDoiACBQLARoKSbHO88bLf104t4Kg4UHevDFCXrwxEt9X0zx63CyJtzbK643C5LKmZagqHCwL6WAGv7jou6znhvCMN8lYW8z4SWP1/vvvN1GRstDFllm5GZfxlltuCYzBKCcCIiAC5UTA61WvY5e1Xq0JG9KmbseyHYtIhpmg6yUWig8//LBZHxIvYy8iLjJ242mnnRauvPJKs16MP1P92V2TfCiMCIiACIiACNQnAvkdlKo+kVNZRUAE6oSAi1vxl/98Z8QtCV24y9Q4wk+mPODX/Wc6Xt28kgd+hRbb4vkiPcpXW2kWKq1CxRtntcceewTGCWVSHcY+9K59WMZg7cI+rBblREAEREAECkuAZ27Tpk1t8pZo1muzlGTyNVyraFIZPvzgmCwmmpHa1v0v/uz2fVqKgAiIgAiIgAhkJiAhMTMX7RUBESgiAnFBLr5eqCwioFUlolV1PF95o3FTW2l5npPpFZp5Mj3Px7IuCxVvPF9MysPA/km30UYbJXdpWwREQAREoMAEeGYy7qGPfejJMRwFv0I7PsTxwbOq5w9+eLb6x0LyVehnbaHLrvhFQAREQATqD4G66RNYf/iqpCIgAiIgAiIgAiIgAiIgAvWAQPLjH5bxciIgAiIgAiJQbgRkkVhuZ1TlEQEREAEREAEREAEREAERqHUCWBjiEBSxOmR7ypQpYdq0abavdevWAUv28ePH2zGsJLFqxxqxNobjqHUgSlAEREAERKAsCUhILMvTqkKJgAiIgAiIgAiIgAiIgAjUNgHEQ4RExEHGauzatWv44osvQosWLUKvXr1Co0aNwtVXXx1Gjx4d1llnnfDkk0/aWLpVdYeu7XIoPREQAREQARHIRkBdm7OR0X4REAEREAEREAEREAEREAERyJGAC4iIiTNmzAjdunULL7/8cvjhhx/CxRdfHLbbbjuzQLzqqqvCkiVLwgcffBBOPfXUMGHChBxTkDcREAEREAERqHsCEhLr/hwoByIgAiIgAiIgAiIgAiIgAkVOINcxD3/55RezPnz++eetK/N5550XDj/8cJuEBbFxp512CldeeaVZJw4fPtwsFIu86MqeCIiACIiACKQJSEhMo9CKCIiACIiACIiACIiACIiACFQkgIUhv1xnVh47dmy49dZbw+LFi0PHjh3D+eefX2HcRLoxd+nSJRx77LE2NuJjjz0WXn311YqJaksEREAEREAEipSAhMQiPTHKlgiIgAiIgAiIgAiIgAiIQHEQ8MlTWFbmsEbs06dP+Omnn8waEcGQSVUQIeNC5EorrRTOOeecsMIKK9jELPfee2+YO3euCZaVxa9jIiACIiACIlDXBCQk1vUZUPoiIAIiIAIiIAIiIAIiIAJFSwDLwqFDh4Znn302fPTRRwGxMJPDanHkyJGBLs24Aw44wH7eJfrXX381y0S6N+M233zzcNppp5nA+Morr4S3337b9uMfv8QnJwIiIAIiIALFRkBCYrGdEeVHBERABERABERABERABESgaAjMmTMnnHLKKeHII4+0Lss///xzxrxhrYiQOH36dLM0ZCKV+GzMcYtEImD7qKOOCmuttZZZIzIxC44w8XC2U38iIAIiIAIiUCQEJCQWyYlQNkRABERABERABERABESgNgj4mH+1kVa5pOHWgW5NmKlcCIxvvvmmdVXeZJNNQps2bcybC4i+9LDEteWWWwb84l566SULyzrHKksLP3IiIAIiIAIiUBcElquLRJWmCIiACIiACIiACIiACIhA7RFw8RAxi3VEKrrQzpgxIzA5CCJY8+bNQ+vWrUPDhg2Xytjs2bPNL+FatmwZVllllaX8zJ8/36zxiH+99dazWYnx9OOPP4Zp06ZZd9011lgjNGvWzPa9//77FlerVq2su/BXX31lcTKmIH4YM/Czzz4L6667bthoo40ypjdhwoTwzTffWN7xQ76Sgh2Wgt9++22YN29eWG655ayMLMnTuHHjbB9hSSduCUi47777zvzQ1RhHGeHFGIeMbxjP16JFi8wiEX90W4YnrjJBEGvErbfeOrz11luBspAn+MqJgAiIgAiIQLESkEVisZ4Z5UsEREAEREAEREAEREAElpEAop6P0YeghTiGaPj666+HvffeO2y33XbhiCOOsBmE27VrF3bddddw3333BbrzEtbdI488Evbcc8/Qvn378O9//9t3V1gOGzYs7LvvvuZvyJAhdow4Pv30U+vCS/hevXqFQYMGhd12283SZbZi8jV16tR02FtuucXGJNx5553DIYccErzLr48diLh45plnmli33377heOPP97CIshdccUV4euvv66QdyY++cc//mH5OvzwwwPjER533HFh++23t3yxr23btuGMM84w0ZB0nNvdd99tfhYsWGDlIS8woCwnnXRShXTGjBkTvv/+exMmd9xxRxMbKwDKsIHoSXw40hwxYkQGX9olAiIgAiIgAsVDQBaJxXMulBMREAEREAEREAEREAERyDsBt4hDqEJE7Nu3b+jRo4dZGJLYqquuauIXFoD8zj777PDFF1+Ev//972HFFVc0gYsJRhAXV155ZbMszJTJJUuWWHjSYN0d1nxYAxJ++PDh4aGHHjLLRY77BCQInKRNOIS+J554IkyePNmicGtAyvHOO++Ec889N3zyySd2rEGDBpZ/4if8DTfcYMduuummsNlmm5kfxDqsIkkfUZHZkomb+LBM9MlT4DJ+/PgwYMCAtDUhE60gIsIOh1+sEnHExX7ny9iIOKwaN9xwQ1vP5c+7NuMXi0QcPHBJ60rbqT8REAEREAERqEMCskisQ/hKWgREQAREQAREQAREQAQKTcCFLkQpBLhrrrnGRES6Md9///3WfRirwaefftqs/BDz7r333vDoo4+mhTIX0irLK34y+fP0CctkJAiDWAFefvnlYaeddloqylGjRoUffvjBLAHxs8suu5ifKVOmhGuvvdbKsPrqq5v1IeUh7x988EE48cQTTehkhuWePXuGhQsXLhU3wiDdtC+66CKbgRnhkNmYyQf5RKjEahJWiIzdu3cP7777brqbNvlGZKUbNlaXXmaWM2fOtPQIu/baa6cFxqUyEe3APxxYrrPOOmkvs2bNsnWExDi3tAetiIAIiIAIiEAdE5BFYh2fACUvAiIgAiIgAiIgAiIgAoUigBjlohTWdAhsjPu32mqr2TozEfu4gIxriLvgggvMMvDtt982wY9xDRG8auJIPy6IEc8dd9wROnbsGJZffvmMFneNGjUyi8kuXbqYH0938ODBZtHI2IRYFSIyehyIcbfddpul1b9///D444+H0047Leyxxx4ePL084YQTrKszYXEtWrSwHyIhYiXCIhabWGOSF7g4IywyGfsQK064IhpSJn4IlDj2NWnSpEK57UDijzgJx7iOxIuFI12jccQR55YIqk0REAEREAERqDMCEhLrDL0SFgEREAEREAEREAEREIHCE3Cxi26zjC+I23bbbcOhhx6aFsjYhz8EPsb3Q+Ci2zCCI8672vq6i2h28L9/Lqj5PraTDss/0nURL3mc7W222Sb88Y9/XMoP4zpixYfwx9iIWC0m3f7772+WlRxjMpekkIg4d/LJJ1eIG0GPNMkbQiKWjIyzuOmmmyajN3HPBT544djmR/dp30YYrMzh33kRD6IlQiI/xmj0uCuLQ8dEQAREQAREoC4ISEisC+pKUwREQAREQAREQAREQARqkQDCFUKii29bbrmlzTqMaOXWdmQHgc+72sbFrOR6fJtwLoqRTmUOcY4uw5U5hEK6LscdwiVdinGMdcj4jZnESMYzZIxGHF2ek454mSk56SiPj2uI5SbdlDfeeONqCXqNGze2aMkr4zW6hWcyLd+GFezpSs4YjziPw/1oKQIiIAIiIALFRqDyp3ix5Vb5EQEREAEREAEREAEREAERyJlA3CoQAc5FNroru+UbS0QtxDQXBJNCYXwboYww7lyIjPvhWCZRka7CVTnylnTkG3EOh1jIpC2ZHGnyw5rSRdN4XukWncynxxO3IoRDPP/ZwnhYloyLiIMP3cdzdXRnJgxuzTXXtHSznYdc45Q/ERABERABESgUAQmJhSKreEVABERABERABERABESgCAi4mNisWTMbiw/rt2+++cYEK8QyFwLJanLbs+/WfwheCHT4S4prdMv1GZY9XHIZF+eSx3w7GS/7EQCx8GMcQsYo7Natm40t6GF8SVgX5Xw25Hj5OF5VHlzEi/tzhp5OpqVbOiJczpgxI5OXjPu+/fbb9H7EyEzlT3vQigiIgAiIgAjUMQEJiXV8ApS8CIiACIiACIiACIiACBSKQFwMa9WqlY15iIj40UcfWXfauPUfAtiiRYvC559/bmJcw4YNA2IcIt4GG2xgWaTb79ixY8PBBx+cFuwQvgg7ZsyY9L58l4dyMI4h3ZVJr127dumZlkmL9BEQEUkZqxDhjy7aLgpWNz/OjXj5uZBIGr6ejBNWiJaIqcwmfeyxx2YVBT0O0mEma3d0Oce5GCpR0cloKQIiIAIiUCwEfhshuFhyo3yIgAiIgAiIgAiIgAiIgAjklYCLVljM7b333hb3+PHjwwMPPBAWL15cIa377rsv7Lbbbvb717/+ZeP34WHzzTe3MQkR1ZgRGTERkcvjZvuRRx6pEFdNN4jT4/U4ENwOOeSQgLjJWI933XVXmD9/vh82Ae/LL78MnTt3Dvvss09gNuqpU6cuFU86QCUrpOVCIkusMb3bM2kmmXlU6667bthoo40szY8//jg9A7Mfjy+9jHTZ9m7aK620Uthhhx3MG2wlIsaJaV0EREAERKBYCMgisVjOhPIhAiIgAiIgAiIgAiIgAgUggGiFIIYwdf7554dhw4aZEPi3v/0tTJo0yawLEcdeffXV8NRTT5k1HN2gTznllLDqqqtajtg+5phjwqOPPmrWdscdd1zo0qVLQDxjEpRBgwaF6dOn55R7FwldrMspUOSJGZk7deoU+vXrZ2Im4xAiHK6//vo223Lv3r3De++9Z6Jihw4drCs0Za5uOvH8EB6LzNatW5sw+c4774Qbb7wxtGnTxiaEOeyww9Le8YcIO27cOLPOZObnpk2b2nG3MPS8EC+i7OTJk80/nrbffnsTStm/rPlOZ0orIiACIiACIpBnAhIS8wxU0YmACIiACIiACIiACIhAMRGIjxHIzMQ33XRTuPrqq8OHH34Y7rzzTvvF84s4eMMNN5hln+9fccUVQ/fu3U0sfOONN6z784UXXuiHrcv0vvvuGziGEFaZq0pIRGxzwc3jQYhjxuWrrrrKui4PHjw4vPjii/ZzPyyxHkRcvOKKKwIWfvlwWEEiYGJlyIQvPXv2tGi32GKLEBcSmeBl9913N8tMrCYRZhEHcZTHBULfZjlixIgwYcIEEw4RP3Hx82U79CcCIiACIiACRURAQmIRnQxlRQREQAREQAREQAREQATyTcCFO+JdbrnlzLIPC7v777/futUyZiJ+VllllbDnnnuGs846K2y11Va2zwU9lghnhLnnnnvCkCFDbOIT4sMv1ov4mTJlSmAcRbdkJE0s9ZggBZGPMRnd2s6t9NgmnpYtW1rYxo0bm1UkeXJRzfPRKhrnEcvDgw46yAS7r776KjDJC3HTrfj0008P7du3t9mPSRtH2CZNmgTCYiFIWpkcQiV+SJ88Ozf8Uz7i6BdZQ2JpSJdkJn+JO9LZa6+9AuMcItLCqWvXrum8JMuyZMmS0KdPH8s/4yuSbzkREAEREAERKHYCv4sekKliz6TyJwIiULwEHnvssXDGGWeEhQsXhrvvvtvWize3ypkIiEA5E3jwwQfDmWeeaQ18xnCjG6acCJQigTlz5oSNN944sDz88MOt23BNy8GrPoKdC3GIdr7NPqzkZs6caWMh0n0Zqzr8EI4f6zjfZp19TCgya9YsGzuwUaNG7DZH3B4mvs/XPW7fZul5c2GRbd8X9+d5iMfPxCrkf80117RuwZ43wrPu8XiZ42WKxx1f9zJkSi+TP/Z5/KTXq1evcN5555kISvfxiy++2PLi8bmgOHDgwHQ9hbUnfrOJnPF0tS4CtUmAsUfpss9QAieeeGJ46KGHajN5pSUCIlCEBDTZShGeFGVJBERABERABERABERABPJFAEHNf8Tp4hrriFp0ZcYaECs8P8aSMO58m6ULbcyKjBVf3Hn4+D4X9DIdQ8hEYMNxPJOfeFzJ41hRMqM0+fD8UiZP08N6OF/6/kxL98PS40z6i+ebYx6GdT5iIATj5+GHHw6jRo1it/khb5QXceb222+3/Vhp/ulPf5KIaDT0JwIiIAIiUOwE/vd2UOw5Vf5EQAREQAREQAREQAREQASqRQCBKy5yEbiyfUm/ycQ4jrjmQl3Sf3Lbw7Pfj/k6SyzwMu33cPGlh4vvy7SeyZ/v87QyhfN9ufhBEOTnzuNnm9mxmZAFC08momEsSaxL3S1atCj85S9/CW+//bZ1o2Z2bIRcOREQAREQAREoBQISEkvhLCmPIiACIiACIiACIiACIiACJUEAUZEZphELGSvyk08+CXfddZcNu+BWiq+//rodwxIRC8ZcxMuSKLwyKQIiIAIiUPYEMo80XPbFVgFFQAREQAREQAREQAREQAREIP8E6PrN5C/dunULbdq0MQGRmZ8ZVxLBkElrfJy5/fbbLzAjNt2dJSbm/1woRhEQAREQgfwTkJCYf6aKUQREQAREQAREQAREQAREoJ4SQBBEGKTrM5aJScfEFe7Hl/iRmJgkpW0REAEREIFiJKCuzcV4VpQnERABERABERABERABERCBkiTA+JGM/egTtWChGHdueZhcIiTKiYAIiIAIiECxE5BFYrGfIeVPBERABERABERABERABPJEALHKZ11miZjlgleekqg30cSFv19++SXwYx8iYoMGDcLixYuNNUCYXdqFw0yAdA4yUdE+ERABERCBYiQgi8RiPCvKkwiIgAiIgAiIgAiIgAgUiIALWhIRaw4YERbRkB9jHz7wwAOhXbt2Ya+99gp9+/YN8+bNC927dw+77rpraN++fRg1apT5rXmKCikCIiACIiACxUFAQmJxnAflQgREQAREQAREQAREQAQKQsAFL2YMZj0uJLItV30CzhBBcfjw4eGqq64KH374YVh77bVDhw4dQuPGjcPxxx8fZs6cGUaOHBkuueSSMH78+MA5kBMBERABERCBUiYgIbGUz57yLgIiIAIiIAIiIAIiIAJVEEAs9G7MLiTGLeqqCK7DGQi4APv++++HM844I3z33Xehbdu2oU+fPmG99dYzsXbnnXcO99xzT2jWrFl47bXXwnnnnRd+/PHHDLFplwiIgAiIgAiUDgEJiaVzrpRTERABERABERABERABEag2Acbf827MrC9ZssQs43xftSNUAOOJKNi7d+8wefLksMYaa4RrrrkmtGjRwmZrBhGsDzzwwNClSxcjhpg4aNAgdXHW9SMCIiACIlDSBCQklvTpU+ZFQAREQAREQAREQAREoGoCPpnH0KFDw9Zbbx122mmnMGLEiJITtdyS0kuc3Pb9hV4iwn700UfhiSeesKSOPvrosM8++5jA6N2eObDCCiuECy64ILRs2dLE2zvvvNOEx0LnT/GLgAiIgAiIQKEIaNbmQpFVvCIgAiIgAiIgAiIgAiJQJAS8Ky6TgowbN84EryeffDL84Q9/CCuttFK1c8lYf4z5N3v27AphESwbNWpkYwWyRFQj7d///vcV/LHheXI/7Euusw9HesQdF+nYH98mPrbxmym9XPbH80T82dzPP/8c7rrrLkurYcOG4dRTT7WZmTP5h8Npp50WrrvuuvDJJ5+EV199NXTt2jWTV+0TAREQAREQgaInIIvEoj9FyqAIiIAIiIAIiIAIiIAILBsBt9zbZpttQoMGDcLKK68cNt10U7OYS8bsflniktvsQ0i7+uqrwx577FHht9tuu4UtttgiNGnSxETKHj16hG+//dbiIFzcIdrxI35Pi+Px9OLCHkIg2y4eenjf9jh8O54Wx9wqs7L9np+4n0zrjI2IRSfuyCOPDDvssEMmb7YPUZOJV7bcckvjhlWi5zVrIB0QAREQAREQgSIlIIvEIj0xypYIiIAIiIAIiIAIiIAI5IuAW+idddZZYcMNNwwrrriidcWNi2sIdYhwLsRlW5Inj8/zR3zERRyIjDis7z777LPw5ptvhvPPPz8cfPDBFcK5mOZ5iAuD7PPjxEVeSJN9LiZ6fn07mSfC4Ye4vCzsi7vkfo8r7ie5Th7GjBljE6wQnnEQk/Ekw7Rq1coEVphgETpr1iybhCXpT9siIAIiIAIiUOwEZJFY7GdI+RMBERABERABERABERCBZSSAoIajG3O7du3CrrvuapaJHq2Ldghpc+fODRMmTDARkIlEFi9ebAKei3gexpdt2rQJH374YVi4cGFYsGBB+Prrr8PLL78c/vSnP4U111wzvP766+Gwww4Lffv2tbg8HAIf4h8iHOu//vqrCWyIdJMmTUr7Jd1k2r/88osJeTNmzLB0KR/5nDp1avj888/DtGnTbJt4sznKiiMurCZHjx5t4auaWZl03nnnHZu0pnXr1mZpWJWQuNxyy4UOHTpYegitMPFzYjv1JwIiIAIiIAIlQkAWiSVyopRNERABERABERABERABEagpAbfWe+WVV8Itt9xigmL37t3D3nvvnY4SAe3RRx8NTz/9dPj+++9NiFt99dUD3aGxZKRrbibnQiDL5ZdfPqy//vr2Q6xEPDvppJPCvHnzQs+ePS2u7bffPm1tiNCHoIYwd8cddwSEQdJeZZVVwnrrrRf2228/G18Qi8e4Q6zEypE8d+rUKey7777hH//4R5g4cWKYM2dOaNy4cdh8883DhRdeGDbbbDOzYkyKiqSLoPfwww+HKVOm2HiPq666alh33XVDx44dw3HHHWddwOPpsr5o0SITTlkn7mbNmrFapdt9991NOCXdkSNHWvxVBpIHERABERABESgyAhISi+yEKDsiIAIiIAIiIAIiIAIiUCgCWN4NHz48IJgxQYhb+n333Xcm2L300ku2D+EO8fGnn34K7777bnj88cdthmKERxclk3lMWuUhBtKdmbEUL7vsMrNy7NOnT7jvvvvS4xUyWcull15qAiZp4YjfrfWeffbZMGjQoHDDDTeE7bbbLp02AiJjFM6fP9+sGBERp0+fXiEsxxFFSROxMe4QK6+//vpw9913py0XsdbE2pC0SXfgwIHh1ltvtbEk42GxYETIxG2wwQZhjTXWiB/Ous64kczejNiJcIkgSZpJgTNrBDogAiIgAiIgAkVAILutfxFkTlkQAREQAREQAREQAREQAREoLAGEuyFDhoShQ4daN+NDDz3UxL7+/fuHiy66yKwM6e588803W3fi6uQGkYz4mIAF98ILL5hQh+iIIMfMx8wkjYiIKHfFFVeEfv36WVrMKI3QySzHl1xyiXVhZjvp6AqNoHjBBRdYXL179w7t27c3URHrxBtvvNG6LLvQuWTJEutmjcCIcLjVVluF2267LVBe9u2///6WLt2zESixpsTRFZr0EQB/+OEHEwDpup2rEAhnxEQc5SVtOREQAREQAREoNQKySCy1M6b8ioAIiIAIiIAIiIAIiEAeCMQnFmFCFLbpysxMywh/bCOqIcA99thjYebMmdWeJIQ4mjdvHlpFk4189NFHFsdXX31lVn6vvfZa6NWrl6Wz4447hieffDKsvfbaJlwi2HXu3NmERSwYsaLEOvDKK69cquRYBCJIHnHEEYGxCEkTa0vGaKTb8qhRo0zAZJuyfPrpp+Gmm26ySWGYdfrBBx8MLVq0SIfFehFBE2vFAQMGGINjjz3WBEPCY82IiwuDWDFyrDJREf/eDRohEqtKhEg5ERABERABESglArJILKWzpbyKgAiIgAiIgAiIgAiIQAEIrLXWWhYr4tbzzz9vFnOIYiuvvHI477zzwiOPPGJWe3TNra5D3GPcRHeMg4ij2zGzFzdq1MisCV1ERJDjh8j2l7/8JTRt2tTEweeee87GUPR4fMk4hYzFyPiMHpau2V26dLHZqbFApCsxk7ngGJ8QUZSu1yeffLLljbIiQPJDTD3++ONN1MRqEotIj5cl1o84hEH8+nplIiJ+CLvaaquZf6wafXZr26E/ERABERABESgRArJILJETpWyKgAiIgAiIgAiIgAiIQD4JIJph+Ycgdswxx5hY+M0334RrrrkmPPTQQ2bhxwQhTLKCxWCDBg1MDKtOHlyAIy13Lri9/fbbtguLxW233TYtBLLT/SBAtm3b1rpeI0AymzSTsMTdxhtvbGM++j7SpFxY//Fj5mlmc0a4Q2zEQtHdW2+9FcaPH++b6WVc6Pvkk09sv/NyMZA0mKk6V4d/ZrXGIXTCU04EREAEREAESo2AhMRSO2PKrwgUEQEfCL2IsqSsiIAIiIAIiIAI5EgAsQ7RDYeQR1fev/3tb2axN27cOBsfEMGLSU7oNtytWzez4ssx+rQ3rPqwCHSHhSGO8QtxWPVhfeh5sZ2xP8ZOxCEEYjGZdG4VGN+POIpQx6QyOEQ8FzOZ7ARHXHRrrsphNYlVo09A492RsXD0bs5VxeHH3T/WkFh7yomACIiACIhAqRGQkFhqZ0z5FYEiIeBjARVJdpQNERABEUh3SxQKESgnAi5+FbpMWOrRPZgxAxnLkO7NzHqMNR+zNrMPcfGf//xnaNy4cVqUS+YLwc6tCTlG/pnhmHhwdF9u3bq1rbNEpPPJS1xg5B0DIRBHXMw0jSOPiHlJF08vecy3idNZrrvuurabGZP33HNP61qdFDGJ08VH8uVjL+IPARAhECESYTBZZk+TpadJOPx5t24ETuKJH4+H07oIiIAIiIAIFCsBCYnFemaULxEocgL+gl/k2VT2REAE6hEBGulx59u5iAzxcFoXgWIi4NexLwt9PTds2DC0a9cu7L333jZD84cffhhuuOGGQDdkJkNhTEG6O1flXAxEKBs4cGD44osvLAgzOCMI4tq0aRPee+89E9emT58eGH+R94v4OwZinXctRsB0EdAiqMZfXCgkXRxCIjM977fffiZY4seFPY67mAj7OHfyTz6+/PLLMG3aNOuuzDiPVTnGVqScOMTJTKJoVXHouAiIgAiIgAjUNQFNtlLXZ0Dpi0AJE+BlO/7CHV8v4WIp6yIgAmVCAFEgLh6USbFUjHpKoFDXMwIZXYaPO+64sMkmm4RddtklME4i6TEBy4EHHmgzIGM9hxCGdWGmvCAcutWfi55z58418bFnz56WBpOidO3aNX0GESuJF4vD3r17pycxwQNxMZ4gsyu7NSP+6eZck/eNuBCIEEp3aPJH12a6WHtdQdxYSP7rX/8ygfGAAw4IQ4cOTQuN5I0877zzzqyayIk4SH693Hbgv3/OiniZtAXW5AXLTwRTPx4Po3URKCYCXLs1ueeKqQzKiwiIQH4JyCIxvzwVmwjUOwLxF2BeouVEQAREoBgIUDfR8GEpJwLlQqAQ1zRxYmHXqlWr8Pjjj5tQePnll4fzzz/fuiAztiHdnBcvXmwCGhOdIJjFn/mIY0xmssIKKwTGQ8RKj3EIX3/9dRPhmJCEY9dee62Nt+j3JSIlQt2gQYPCU089FbCG7NSpU9hoo41MXOzfv79ZMzIWIfv+/Oc/WxfjmpxP8uxiCJO3IJzee++9ljaWgQicTNoyb9688MQTT9j4kD/88EPYfPPNbX88TcZeJA5msoYPE8BsscUWcS9LrZP2sGHDbD9CImImeWIdlnErzKUCa4cI1CGBuECu67QOT4SSFoEiIiAhsYhOhrIiAqVGgIZA/Au/578QDR2PW0sREAERyEaAuseFAuqmTPVTtrDaLwLFQsCvYc+Pb/PM5Rffdj/LuiTes88+O9CN+Y033ggDBgwIzz33nE1WgjCIJSJ+/vjHP4ZtttnG1uP316RJk8Lxxx+fHkeQMExOgvhI9+GDDjooXHTRRaFd1GWasQbdNWnSJFx//fUmXn7++eehb9++JuK5IIkASXm32mqrcN1114VWkdgZT9fjyWXp/PDL+Ibdu3c38ROxkxmqn3nmGRM7EfWwhCT/iJe33nqrLeNpIKYwAQ3dk7GmRATt2LFjpWLgV199ZXyJh67VdOMmT7ialskC608EREAEREAEapnA/57ktZywkhMBESgPArz8+ouwf7Hkpd/3lUcpVQoREIFSIEDdUwiRpRTKrjyWD4GkdZo/W+MlzOdz1p/XzZs3D3feeadZ6T388MM2CYrfTxw79thjw4UXXhjWWGMNy4qHY4M8Y8nnjolEmFRl++23t7EWO3fubF2J/bgviQNRDSHunnvuMQs/rBkREDm2/vrrW/di0sUysLqCW5wd8XmeWdJF+oEHHrB0H3vsMRvv0MtAt2fKe9ppp5n46fmNL5nlmh9C4gsvvBBGjx5tgmfcj6/DZ8iQIWHs2LFWhhNOOKFCWTxf7l9LESgmAvH7KP4hoJjyqLyIgAjULgEJibXLW6mJQNkRiL/8+otGdV/0yw6KCiQCIlAnBGisqx6qE/RKNI8EsHaLdx/Eus8FPa5vnrE1fc4SD5aDdCkmjjXXXLNCzhkjsUePHuHcc8+12YiZYZhxEplYBL/xyUHoDn377bfbLM4VIok2yD+CA5Z//HhX8Ly7X/Li5WoVWRpeddVVli7jFjIOI+IlFourrbaadakmfDwOhMVPP/3U9uEnk0OIfOmll8y60PMS94fYiWXimWeeaeMlMhYjk6ass846Vl7GQszkKA9i4znnnGPjHpLnu+66K9x4441mgclxLxvrCJSMAUkXcCwZmXBGTgRKhUD8Xi2VPCufIiAChSUgIbGwfBW7CJQ1ARrtNER4ScbR2JETAREQgboiQJ3kjXefFbau8qJ0RaCmBHimIsL5s9Wva7b5eaO+umIi4RDiENSwGPT4PJ8cZx9iIQJcixYtLK1s6bC/WbNmS+XHxT7y7fllGXf48fR8P+ki4PHzWZU5hl8c4iRxevyMU0g+K3M+u3ImPx4vrBFLES3pyuxcknnOFAfjHDJpCt2jBw8ebOM7tou6b8fDMr5jv379bBxFmB111FFmDZkpPu0TgWIkwDXM/YqTRWIxniHlSQRqn4Bmba595kpRBMqCgDcQeKHwRoaExLI4tSqECJQkARo5/qMACAjUU3IiUIoEuH5djPLnrV/fLnTVpFw8rxHkWHr8Ho8/y0nH752kH/ebXBLW8+fxsPQf/uNxsc4xloRD1HNhLy5aEM79xdcJg/N8+tJ25vhH2vF8xNc9L1XFiyB7xRVXmADJzM2XXnppwIoT52VDYLzllltsG+GxW7duFSxOc8yuvIlAnRGIW0Uj4MuJgAiIgIREXQMiIAI1IuANEZa8LOMkJNYIpQKJgAjkiQCTI+Cok/jIQf0kJwKlSMCfseSdZyviGte1P3P9uVudshEml3DVTcdFPfISX4+nFd+PP8+L+2GJYIjzpW0k/vAXj8vvcV8mvFe6mSkPBCB+j8+XyYjwg9hIXvfaay/rls0EMR9//HG4+uqrw5w5cywIk9BcdtllAZGRWZ0RFBs3bpyOPxmvtkWgGAlQ/7iTtb+T0FIE6jcBdW2u3+dfpReBZSbAC4W/aDM7o5wIiIAI1AUBGvWMP4aL10t1kRelKQL5IOANdq5tLON8Ox9x5zMOF/5cmEvGnW2/+/Pw2bZ9vy+T/n1/vpbkNxfn/shPp06dTICcOHGijef4008/2aQ0TMTCTNf42WeffWzGa+LmfPq7Uy5pyY8I1CUBnq1upRsfJ7Uu86S0RUAE6paAhMS65a/URaDkCfAF3sdL4cUZx5d6foV+2S95eCqACIhA3ghQ5/jHDLpeeb2UtwQUkQjUMgGf6APRCWvbcm3AuyBXy3gzJpdrXpL+VlpppXDSSSctFSddmfklnUTEJBFtFzMBnq08Y3FeLxVzfpU3ERCBwhNQ1+bCM1YKIlDWBHh59hfihQsXWln5apl8yS5rCCqcCIhAnROg3vnhhx8sHxIS6/x0KAN5INCwYUOLha7NixYtMougqsbsy0OyiqIGBPy8ILaw7lakNYhKQUSg6Aj8+OOP6fFIqZe4zl1YLLrMKkMiIAK1QkBCYq1gViIiUL4E+DLp3a3mzp1rBUVYlJBYvudcJROBYiRAw90/ZlAvaUD4YjxLylMuBGigcz0zlh4Oa0Qa8lj5+4e7XOKRn9ojED8vvP9wDuP7PCecVzkRKDUCCxYsSHdtpl6SiFhqZ1D5FYH8E5CQmH+milEE6hWB1VZbLdC9Gffdd9/ZF0teMPyLfL2CocKKgAjUGQHqnNmzZ1v6zKRart1A6wywEq5VAohRa665pqVJt8J58+alG+9u/VarGVJiGQkkzwXnrTLBVx9ZM2LUziIngKGAT7iCkMg1rmu5yE+asicCBSagMRILDFjRi0C5E2jUqFG6wc6shP613V+my738Kp8IiEDdEOCDBT8fi5VGzqxZsywzq6++emDYBTkRKEUC3kBfZ511LPuMP4yQ6PszWbqVYjnLIc/VPRd+Dsuh7CpD/SDAez2TBrmQuO6669aPgquUIiAClRKQRWKleHRQBEQgEwG3OOQYjfW11lrLvNGtcM6cOdaw98Z9pvDaJwIiIAL5IOCNcqyCGEdu6tSpFi2WXFglyolAKRJwkXyDDTaw7DP254wZM9IWiRyXEwEREIHaIIBF9MyZM63+4bnqltK1kbbSEAERKF4CEhKL99woZyJQtARovPMV3q2BNtlkE8vrzz//HCZMmJC2mijaAihjIiACJU+AesiFROojPmRMmTLFyoXFBFaJciJQigTiQiLXOOMjfvPNN2kh0S3/S7FsyrMIiEDxE6CO8Q8WjI9IjyNcy5Yt072Qir8UyqEIiEAhCUhILCRdxS0C9YTANttsYyVFSBw9enR6Zrd6UnwVUwREoA4IYIXIzxs81D2sIypiyeWTQNVB1pSkCCwTASz6+TVr1sws/mnQjxkzJvCMZb263WmXKTMKLAIiUO8I+Ec6Cs74iJMnTzYGGA4w/rB/7LCd+hMBEaiXBCQk1svTrkKLQP4I8DLRtm1ba/Qws+SoUaMkJOYPr2ISARHIQgAxxa0SqYeGDx9uPpn8abvttktbU2QJrt0iUPQEmjZtGjbccEPL5wcffBAYK5FrXU4EREAECknAn62kgYj49ddf2/N2yy23tCGNVA8Vkr7iFoHSICAhsTTOk3IpAkVJgBcNGvN0I2zdurU1cLAK+v7774syv8qUCIhAeRFwqwkElvfee88Kt/LKK5uQWF4lVWnqIwHGH/ahQ8aOHWuTCWn84fp4JajMIlB3BN59912baKVhw4Zhiy22CMstt5wZD/jzt+5yppRFQATqkoCExLqkr7RFoMQJ0I2QH4Mv77777laaTz/91L5elnjRlH0REIESIIBVBD/qnYkTJ1qOd9xxx/QEUCVQBGVRBDIS4NlKF8JddtklNGjQwCYTeuGFF+yZmzGAdoqACIhAHgjwTGXYEJYMpzBkyBCLde211w7bbrttemziPCSlKERABEqYgITEEj55yroIFAMBvkhiAbTrrrtao4dZm5977jl1vyqGk6M8iECZE6Ch8+uvv4bXX3/dZrWlPjrwwANV/5T5ea8PxXNrn7322is9A/ngwYPDvHnz6kPxVUYREIE6JOD1D9aIX375peVks802C61atarDXClpERCBYiIgIbGYzobyIgIlRoAuVrxssDzggAPSXbAefvhhm2ESiwo5ERABESgUAeqf2bNnh/79+5ugyCQr++yzjw254A2hQqWteEWgkAS4fvnReOf5isPy9qWXXpJVYiHBK24RqOcEqHd4r//hhx8C7/MLFy60uujUU08NjEGsd/t6foGo+CLwXwISEnUpiIAILDMBrILWW2+90KFDB4tr5syZoV+/ftawX+bIFYEIiIAIVELgqaeeCuPHj7eGzv77758er7WSIDokAiVF4IQTTjDL//nz54cBAwaEBQsWlFT+lVkREIHSI/DZZ59Zt2be8bfeemvreeSl8K7Pvq2lCIhA/SMgIbH+nXOVWATyToCvlwy+3LVr19CiRQsTEO+77z6bwTnviSlCERABEfgvgTFjxoTbbrvNujI3a9YsnHPOOZpRUldH2RFgnMSOHTuaWM44ic8++6ysgsruLKtAIlA8BBYtWhRuuOEGGzJklVVWCd26dQtNmjSxDGKtyESLvPvLiYAI1F8CEhLr77lXyUUg7wSaN28eunTpYqLi5MmTw4033hiWLFmS93QUoQiIQP0lgHUEP7pd9e7d2yZ3okFz/PHHhzZt2ljjhoaOnAiUC4HGjRvbh7rVVlvNinTrrbcGZnHmPnDn94VvaykCIiACNSGAteHAgQPDsGHDLPgf/vCHcPjhh5t4WJP4FEYERKA8Cfz+msiVZ9FUKhEQgdomwBfKjTfeOHz88cdh0qRJNkAzE7HwEoLFIuOq6AtmbZ8VpScC5UWAeoQJVvr27Rt69Ohh9crOO+8cevbsGRBc5ESg3Ajw3GT8T4YNef/998O3334bpk+fHtq3b29dnikvQiL+9Iwtt7Ov8ohAYQn4RwivQ958881w/vnnh++++y40atQo3HnnnemPdIXNiWIXAREoJQL6ZF9KZ0t5FYESIMBYiZdffnlo2LBh+OWXX8LNN98chg4dWsFyogSKoSyKgAgUIQEsJXCvvfaaCYc0fKhrunfvbsMqFGGWlSURyBsBuhfutNNOFt+QIUOsWz9W/y4E5C0hRSQCIlCvCPgHiGnTpoW//vWv4euvvw7LL798OP300wNDK8jKv15dDiqsCOREQBaJOWGSJxEQgVwIuMUhXZzpgjVixIgwZ86c8Oqrr4ZtttkmtGrVSl0jcgEpPyIgAmkCLpLQ0GGd+oQhFGjwrLTSSuGyyy4LZ5xxhho6aWJaKTcCfg9gcbvFFltYl0NmK//ggw9s+JAddtjBZlOl3C4IlBsDlUcERKAwBKhfcOPGjQtnnnlmwCIR16lTJxsnkTESJSQaEv2JgAjECEhIjMHQqgiIwLIR4GWERgxdnDfffPOwcOHC8O677wYGbUZUREjcbLPN1NBZNswKLQL1jgD1Ch8qXn755XDBBRfYuIjUMyeeeKJZTyAoev1T7+CowGVPAEtcb8gzoRndDd944w0bJ/Tf//63HaN7P0OISEgs+8tBBRSBvBPgwxwf5KhXeJYyJNEdd9xhlv5e9+Q9UUUoAiJQ0gQkJJb06VPmRaC4CMQbMCussELYc889w9y5c8Pnn38evv/++zB48GATGTfZZJOw6qqr5px5BARcPP5MgXPtOhbiAABAAElEQVT1lyms9omACBQHAbeOiN/vWF/dddddNisz48NRvzC5Sq9evcLqq69uGef+V4OnOM6hcpFfAtwT/Li+uS+wSkRQfOedd+wZ+/bbbwdmMN9yyy3DWmutlX5WZrqX8pszxSYCIlAKBDK9H7OPIYieeuop68L84YcfWj3Trl27cO+995pBQCmUTXkUARGoGwISEuuGu1IVgXpBgPFVsJLgRYUGDxMksPziiy/CtttuG9Zcc810gycbEF50vDHEMi4uJMP48cr8JMNoWwREoHYI+L2cvD+5b/3e9Zzglx+O2WkZA/Gee+4JP/74o43bdOqpp4brrrvOLLPwQ5wSESEhV44EuLZdRKR8WOMyQ3mTJk3M6p8ZzEePHm0TnTVt2tQmZsEPjnuLe4nwcctGO/jfv0z3oIflmK8n793/BtdCBESgFglkepZmu7c9W/6M5R52v0ymwgzw1157bZgyZYp5ZTxEPtrxUcL9eRxaioAIiECcwO+iiuW3N4T4Xq2LgAiIQB4JMBj8/fffH2688cYwceJEi5kxFDt37mxfQTfddFObedKFg7gg4FVU/BjrvAxxLO7XX3ri+/JYDEUlAiJQDQJ+7/p96vet37tEFW/UsI7DHx8f+ODwyCOPmGXEggUL7BhWWBdeeKFZJiKUeBhfmif9iUA9IMB9xb3C8CEI7e+9955tcy906NDB7pEdd9wxPZO5339+Pzoi9vszk7B+37Luz1T2sc1PTgREoHYIcG/iuD+5B+P3Jvv9fvX9LP0DAsd9P+vu2Md7+LBhw0KPHj3C1KlT7RC9hBgq5Morrwx8jCAe/Ho9EI/X49JSBESgfhOQkFi/z79KLwK1QoDGCNaINHQuvvhiGyDeE95www3D7rvvHk444YRAo4cZWL1Rgx9/EfKXGY6xzgsWx9j2xo43lPTC43S1FIG6I8D96fcv96k3irzx40v2+33NeKpvvfVWePrpp62h8+WXX6YLwJhNPXv2tPoCa2cc4eREoD4S8OcdS+4T7o0BAwaYCA8PLP532223cPjhh4cDDzwwrLPOOnY/+n3p9x9Lfh4fYX0f6+x352F03zkRLUWgdgj4fUtq3Ie89zImanw/x7hfeQf2e5V9OPx/+umn4bnnnrMfH+oWL15sx6gbLr300oClPx/55URABEQgFwISEnOhJD8iIAI1JsDLS7xRQhesgQMHhltuucVmiMPyCMcL0corrxx23XXXsP3224e2bdtaQ4jxz5gxjskUVlxxxdCgQQPzy4uSvywRnjRw/hJlG/oTAREoKAEXCrn/+FiAQ2TgxzHuR+oAflgms/zpp59snboAS8OZM2ea9SGWVe+//77t87ioF5i4qWvXrmYtQSOHtIiXpQSNgp5eRV7kBLif4vcaVkY33XRTYMxEhgHAcZwxRRlXkW6LPF+bN29uwwJghcRz1Z+tPFO55/znz1XHwH0Zf+76fi1FQATyQ8CFQe69+P3nz1PuP3+ukiJ1wM8//2zPX5Y8Z7n3eb4yNjnWh9QHfMifPn26+ffn9vrrrx86duxoE5b5hwbilxMBERCBXAhISMyFkvyIgAjkhYC/CPFyNG7cuPD888/buGcTJkxYKn4aP8xMycDxWCl6g4cGEdZI8YYOfnn58RcgtuMvYEtFrh0iIAJ5IcA9TUMmfr/5xwFv7HAcAYL9NHSwgqChM3/+/DBnzhybLAI/SYfwcdJJJ1k3TcaD4752ATGeHuHYj8OPnAjUNwJc/1z73I+MezZ06NDw4IMPmnWv349xJgjyWCzyoY7na1xM5Nnqz1PuM7ZZevwcS95/8bi1LgIiUHMC3MM8L/2+iz8buc/5sY8f6/5s5T7Hop8PdXygmzdvngmJCItJR9flo48+Ohx33HE2OzPv1bj485O4uc91ryfpaVsERMAJSEh0ElqKgAgUnAAvSDh/MeFFiK+mo0aNCs8880z45JNPbMBnvqIiMsiJgAjUDwJ8KFh77bWt+yUWUwcffLANdYA1Mo0brzOy0UjWLdn8ab8I1AcC3A8ICHywGzJkiFkkTZ482ax/Ee8RCeREQATKnwAiIcIhPyZQaRfNyIwVIh/q/aNApudnpn3lT0slFAERqA4BCYnVoSW/IiACeSHACwoNGbcgJFK2+YqKdeK0adMCjR4Ggf7666/D7Nmz7YfoiCUTFk38Mn1pzUsGFYkIiEBeCCAAYkFMYwarJ4RBLKAaN25s1sZ0sWzZsmVgEpXWrVvbD2sprDHkREAEak4gLhbyrJw0aZI9T5mdlecqP6wX+XC3cOFC+2HRhF9+cUuomudCIUVABApBgGcr79A8W33oH56d/OjJw4e5jTfeOKy33nqhVatWgW7M6667rn2YS75/FyJ/ilMERKD8CUhILP9zrBKKQNERiH/p9HUyGRcYedHh5903WOc4P/a5hRLrdO3wsCw5hn+54ifg55GxvZiNF6H4rrvuCvvtt5/OY/GfPjtH3HM4ziU/GjdYEfrSi8E+7kvvssVx9+NWh8TlP9/n4bUUARHIjYA/L7mHcPHnod+vyWerh2E/4fDnz1eWcedxxPdpvXgI+HOVHNHF9dBDD7Wx8s4555xwySWX2PktntwqJ9kI+P3r91v8eekf27hv2e+OD3f+HMYPYdn2uPDPdvwa8bBaioAIiEB1COiTf3Voya8IiEBeCPgLjDdUiJQXnnhjBz+8EPGrzHmjh7De+GGZbPhUFoeO1R0BzjNWMG+++aZZnXJNDB48OHTu3NnOZ/yaqLtcKuVsBDh/3sjx+5olP78n/RzG9xHGGzbcq2xzPL7Mlqb2i4AIVE2A+8mfjwgN3Id+33GM+48lv7jDH/vi96Kvuz+25YqXQPycvvzyyzbJBrl9/fXXw3nnnRc22GCD4s28cpYm4AKh32/xZ6m/7+KZ4+7H73V/vnLcw7GOYxt/1A+exm9H9C8CIiACuROQRWLurORTBEQgzwT8xYdoveHi68mk/EUo/nLkfjye+MuzH9OyOAnwAsv54nwyU+8+++xj1ojklq6vTz/9dNh3332XauQWZ2mUq1wJ+L3K/cy6W0wQPl4H+Hau8cqfCIjA0gS4x7jX4s9Nv89cZMRPXEyI181Lx6g9pUKA88gsvXyUe+uttyzb1Ld//etfw+WXXx4aNGhQKkVRPnMg4M9W7u9s78vuh+i8HmApJwIiIAI1IaDpDWtCTWFEQATyQoAXGP8RYXw9mQANoXhjKH48/nIU36/14iVAw5XzyUyDffr0SYuI5JixMJlxlDEzcTSI+HGeWcqVLgG/xzn/NGpxvo91v5fZJycCIrBsBLiPuNf8HvP7iiX3H3VwXEQkNa+bly1lha5rApxHhgzhQ507hoEZMGCATbrj+1hS77r4FN+v9dIh4Pc4Oa7sfZnj8XqAbTkREAERqAkBCYk1oaYwIiACRUWAlyZ/MSqqjCkzlRKg4YKlxEsvvVTBH42aF154IYwcOdL2x1+KWXexqUIgbZQFAd3LZXEaVQgREIE6JjB//vxw6623hp9//rlCTr766qvwwAMP2Ec8f5byLOYdyrcrBNBG2RCIi41lUygVRAREoM4ISEisM/RKWAREQATqN4GffvopPPbYY+Hbb79dCsTcuXPDPffcY1YS/vLrSzV2lsKlHSIgAiIgAiJgBBAGBw0aFMaMGZORyOOPPx4mT56cPuZWq3q2ppFoRQREQAREoAoCEhKrAKTDIiACIiAChSEwduxYExKzNV5eeeWVMHz48KW6XGG1JicCIiACIiACIrA0AcZG7Nev31LWiO5zwoQJ4dFHH00f5xnMj491ciIgAiIgAiKQCwG1xnKhJD8iIAIiIAJ5JcBYTXfeeWdYuHBh1ngZK7Fv377psRKzetQBERABERABERABI8DszD40SCYkjE388MMPh1mzZtlhLBj5yYmACIiACIhArgQkJOZKSv5EQAREQATyQgDLhxEjRiw1NmIycvwNGTIkfPDBB8lD2hYBERABERABEYgR4JnJJGW33XZb2towdrjCKmMlIiYiIPo4xLJIrIBIGyIgAiIgApUQkJBYCRwdEgEREAERyB8BGjk0WhgbkZkjM42NmExt9uzZ4e6779ZszUkw2hYBERABERCBGAGesU8//XQYPXp0bG/mVfzyHJ44caJ5QET8z3/+k9mz9oqACIiACIhAgoCExAQQbYqACIiACOSXQLxxQuOFRs4TTzyR8wyRL7/8slkwElZOBERABERABETgNwI8F/33zTffmJVhcqbmbKwYK5EJz+jqjNP4w9lIab8IiIAIiECSgITEJBFti4AIiIAI5JUAM0LisHigwdOnT58wf/78nNNgHMX77ruv0vEUc45MHkVABERABESgTAjEP7C99tpr9tEt16L5WIkzZsywIOranCs5+RMBERABEZCQqGtABERABESgVgjQ4Hn33XerHBsxU2ZefPHF8P7772c6pH0iIAIiIAIiUO8I+AQpPFuZnKxXr15Vjo2YhPTll1/aDM4eV/K4tkVABERABEQgEwEJiZmoaJ8IiIAIiEDeCSxatCj0798/0P2quu777783S0Y1dqpLTv5FQAREQATKkUB8kpRBgwaFzz77rNrFRIR86KGHwuTJk6sdVgFEQAREQATqLwEJifX33KvkIiACIlCrBMaOHRsGDhyY89iIycwxVuLIkSNrHD4Zn7ZFQAREQAREoNQJ8HEOMXDJkiU1KgpWiY8//ni1rRlrlJgCiYAIiIAIlAUBCYllcRpVCBEQAREobgK//vpruOOOO8LcuXNrnFG6bjG+ImMmyomACIiACIhAfSbgFvqvvvpqePvtt2uMgrES+/XrF3ysxBpHpIAiIAIiIAL1hsBy9aakKqgIiIAIiECdEcBiAjGxffv2S+WBxsunn36a3s+A75tttllo0aJFep+v0A1r1qxZYbXVVvNdWoqACIiACIhAvSPgk6Ng7b/XXnstVX4+vn388cdh8eLF6WPrrLNOaNOmTfBJ0PwA3aSxTGzZsqXv0lIEREAEREAEshL4XdQoS2U9qgMiIAIiIAIikCcC//nPf9IzN9OI8e2nnnoqHHPMMelUGjRoYIPGd+3aNWBxQWOJRg7+eWQtt5y+gaVhaUUEREAERKDeE+D5iHNxkWclAuOhhx4aJk6cmOZz0kknhd69e4eGDRva85UD+OWZzMc+PV/TqLQiAiIgAiJQCQG1xiqBo0MiIAIiIALLTsC/VyEGeiOHWF1M9OP/n70zgbt2qBv/tNlbZN8f2SlUlpLlsaUSSYpXWUokRAhpkVRvRcuLNiGStwUpSv8iWSq7ZG9FZSstdiV1/vOd/K537us5577v86znvs93Pp9zrm3mNzPfmWuW3zVL2yfs1qMmcK+RgAQkIAEJSGAkgbquHPlk5FV8mONuu05FBvVxXU+PdO2VBCQgAQlI4D8E7JWZEyQgAQlIYJYSYFRhr84JHZfxdlqwN167szRCCpeABCQgAQlMQALUxbG2Yrfg9/qw182u9yQgAQlIYHgJOCJxeNPemEtAAhKYLQTGO1JitgRGTyQgAQlIQAJDTKBXnezHuiHOFEZdAhKQQJ8EHJHYJzCtS0ACEpCABCQgAQlIQAISkIAEJCABCUhgGAmoSBzGVDfOEpCABCQgAQlIQAISkIAEJCABCUhAAhLok4CKxD6BaV0CEpCABCQgAQlIQAISkIAEJCABCUhAAsNIQEXiMKa6cZaABCQgAQlIQAISkIAEJCABCUhAAhKQQJ8EVCT2CUzrEpCABCQgAQlIQAISkIAEJCABCUhAAhIYRgIqEocx1Y2zBCQgAQlIQAISkIAEJCABCUhAAhKQgAT6JKAisU9gWpeABCQgAQlIQAISkIAEJCABCUhAAhKQwDASUJE4jKlunCUgAQlIQAISkIAEJCABCUhAAhKQgAQk0CcBFYl9AtO6BCQgAQlIQAISkIAEJCABCUhAAhKQgASGkYCKxGFMdeMsAQlIQAISkIAEJCABCUhAAhKQgAQkIIE+CahI7BOY1iUgAQlIQAISkIAEJCABCUhAAhKQgAQkMIwEVCQOY6obZwlIQAISkIAEJCABCUhAAhKQgAQkIAEJ9ElARWKfwLQuAQlIQAISkIAEJCABCUhAAhKQgAQkIIFhJKAicRhT3ThLQAISkIAEJCABCUhAAhKQgAQkIAEJSKBPAioS+wSmdQlIQAISkIAEJCABCUhAAhKQgAQkIAEJDCMBFYnDmOrGWQISkIAEJCABCUhAAhKQgAQkIAEJSEACfRJQkdgnMK1LQAISkIAEJCABCUhAAhKQgAQkIAEJSGAYCahIHMZUN84SkIAEJCABCUhAAhKQgAQkIAEJSEACEuiTgIrEPoFpXQISkIAEJCABCUhAAhKQgAQkIAEJSEACw0hAReIwprpxloAEJCABCUhAAhKQgAQkIAEJSEACEpBAnwRUJPYJTOsSkIAEJCABCUhAAhKQgAQkIAEJSEACEhhGAioShzHVjbMEJCABCUhAAhKQgAQkIAEJSEACEpCABPokoCKxT2Bal4AEJCABCUhAAhKQgAQkIAEJSEACEpDAMBJQkTiMqW6cJSABCUhAAhKQgAQkIAEJSEACEpCABCTQJwEViX0C07oEJCABCUhAAhKQgAQkIAEJSEACEpCABIaRgIrEYUx14ywBCUhAAhKQgAQkIAEJSEACEpCABCQggT4JqEjsE5jWJSABCUhAAhKQgAQkIAEJSEACEpCABCQwjARUJA5jqhtnCUhAAhKQgAQkIAEJSEACEpCABCQgAQn0SUBFYp/AtC4BCUhAAhKQgAQkIAEJSEACEpCABCQggWEkoCJxGFPdOEtAAhKQgAQkIAEJSEACEpCABCQgAQlIoE8CKhL7BKZ1CUhAAhKQgAQkIAEJSEACEpCABCQgAQkMIwEVicOY6sZZAhKQgAQkIAEJSEACEpCABCQgAQlIQAJ9ElCR2CcwrUtAAhKQgAQkIAEJSEACEpCABCQgAQlIYBgJqEgcxlQ3zhKQgAQkIAEJSEACEpCABCQgAQlIQAIS6JOAisQ+gWldAhKQgAQkIAEJSEACEpCABCQgAQlIQALDSEBF4jCmunGWgAQkIAEJSEACEpCABCQgAQlIQAISkECfBFQk9glM6xKQgAQkIAEJSEACEpCABCQgAQlIQAISGEYCKhKHMdWNswQkIAEJSEACEpCABCQgAQlIQAISkIAE+iSgIrFPYFqXgAQkIAEJSEACEpCABCQgAQlIQAISkMAwElCROIypbpwlIAEJSEACEpCABCQgAQlIQAISkIAEJNAnARWJfQLTugQkIAEJSEACEpCABCQgAQlIQAISkIAEhpGAisRhTHXjLAEJSEACEpCABCQgAQlIQAISkIAEJCCBPgmoSOwTmNYlIAEJSEACEpCABCQgAQlIQAISkIAEJDCMBFQkDmOqG2cJSEACEpCABCQgAQlIQAISkIAEJCABCfRJQEVin8C0LgEJSEACEpCABCQgAQlIQAISkIAEJCCBYSSgInEYU904S0ACEpCABCQgAQlIQAISkIAEJCABCUigTwIqEvsEpnUJSEACEpCABCQgAQlIQAISkIAEJCABCQwjARWJw5jqxlkCEpCABCQgAQlIQAISkIAEJCABCUhAAn0SUJHYJzCtS0ACEpCABCQgAQlIQAISkIAEJCABCUhgGAmoSBzGVDfOEpCABCQgAQlIQAISkIAEJCABCUhAAhLok4CKxD6BaV0CEpCABCQgAQlIQAISkIAEJCABCUhAAsNIQEXiMKa6cZaABCQgAQlIQAISkIAEJCABCUhAAhKQQJ8EVCT2CUzrEpCABCQgAQlIQAISkIAEJCABCUhAAhIYRgIqEocx1Y2zBCQgAQlIQAISkIAEJCABCUhAAhKQgAT6JKAisU9gWpeABCQgAQlIQAISkIAEJCABCUhAAhKQwDASUJE4jKlunCUgAQlIQAISkIAEJCABCUhAAhKQgAQk0CcBFYl9AtO6BCQgAQlIQAISkIAEJCABCUhAAhKQgASGkYCKxGFMdeMsAQlIQAISkIAEJCABCUhAAhKQgAQkIIE+CahI7BOY1iUgAQlIQAISkIAEJCABCUhAAhKQgAQkMIwEVCQOY6obZwlIQAISkIAEJCABCUhAAhKQgAQkIAEJ9ElARWKfwLQuAQlIQAISkIAEJCABCUhAAhKQgAQkIIFhJKAicRhT3ThLQAISkIAEJCABCUhAAhKQgAQkIAEJSKBPAioS+wSmdQlIQAISkIAEJCABCUhAAhKQgAQkIAEJDCMBFYnDmOrGWQISkIAEJCABCUhAAhKQgAQkIAEJSEACfRJQkdgnMK1LQAISkIAEJCABCUhAAhKQgAQkIAEJSGAYCahIHMZUN84SkIAEJCABCUhAAhKQgAQkIAEJSEACEuiTgIrEPoFpXQISkIAEJCABCUhAAhKQgAQkIAEJSEACw0hAReIwprpxloAEJCABCUhAAhKQgAQkIAEJSEACEpBAnwRUJPYJTOsSkIAEJCABCUhAAhKQgAQkIAEJSEACEhhGAioShzHVjbMEJCABCUhAAhKQgAQkIAEJSEACEpCABPokoCKxT2Bal4AEJCABCUhAAhKQgAQkIAEJSEACEpDAMBJQkTiMqW6cJSABCUhAAhKQgAQkIAEJSEACEpCABCTQJwEViX0C07oEJCABCUhAAhKQgAQkIAEJSEACEpCABIaRgIrEYUx14ywBCUhAAhKQgAQkIAEJSEACEpCABCQggT4JqEjsE5jWJSABCUhAAhKQgAQkIAEJSEACEpCABCQwjARUJA5jqhtnCUhAAhKQgAQkIAEJSEACEpCABCQgAQn0SUBFYp/AtC4BCUhAAhKQgAQkIAEJSEACEpCABCQggWEkoCJxGFPdOEtAAhKQgAQkIAEJSEACEpCABCQgAQlIoE8CKhL7BKZ1CUhAAhKQgAQkIAEJSEACEpCABCQgAQkMIwEVicOY6sZZAhKQgAQkIAEJSEACEpCABCQgAQlIQAJ9ElCR2CcwrUtAAhKQgAQkIAEJSEACEpCABCQgAQlIYBgJqEgcxlQ3zhKQgAQkIAEJSEACEpCABCQgAQlIQAIS6JOAisQ+gWldAhKQgAQkIAEJSEACEpCABCQgAQlIQALDSEBF4jCmunGWgAQkIAEJSEACEpCABCQgAQlIQAISkECfBFQk9glM6xKQgAQkIAEJSEACEpCABCQgAQlIQAISGEYCKhKHMdWNswQkIIEBINDpdBK/Xmas573ceV8CEpCABCQwzASsW4c59Y27BCQggVlPQEXirGesDxKQgAQk0IPAv//9767KxFAijtYZ6iHS2xKQgAQkIIGhJkDdSf3azfSqd7vZ9Z4EJCABCUigGwEVid2oeE8CEpCABOY4ATo7T32q1dQcTwgDIAEJSEACE4oAisSnPOUpXcPMfevWrmi8KQEJSEAC4yTw9HHa05oEJCABCUhgphKgM8Nv/vnnT8svv3wje6655krPetaz0tOfbhXVQPFEAhKQgAQkME4C1K3UoUsvvfSIUf8LL7xwetrTnlZGK0YdPE6RWpOABCQgAQk0BJ6Sv1j1XqCqseaJBCQggdQ0RqPYaB9hFPfkJYHxEvjb3/6WbrvttmKdUYjPeMYzSueHDo9GAv0QoGNcm7qjXJ/XdjyXwCAQiLqTY30eYYt7ce1RAqMRIL/8/e9/T7/97W/TP/7xj8bqQgstlJZddtnyEa9dXjaWPJFAFwJ1fonzqFfjunYWZVb9rNu92o3nEpDAxCHgcI+Jk1aGVAKzhACKm2gIcI6Ja86599e//jXdeeed6d57701/+tOf0t13353++Mc/lvsPPPBAeuSRR9Kjjz5aGqs0XJ944oniDrf/+te/SqcoZCNTIwEJSGBGCFBGMTUvjiifGX3DaFZ+8847bxnp+pznPCfRcV588cXLb4kllkiLLrpoWmaZZdKCCy5YRubMSDh0K4GawGidZOrAqFs5J/8+9NBDpT6lTr3vvvvSXXfdVepY6lnqVp4/9thjpX795z//mfhRv1KvRp3KMfytw+K5BCQggX4JRJ2KO0auUk5F/TrPPPOkueeeOz3zmc9MCyywQHruc5+bFllkkbTUUksl6tbFFlssLbnkkqWuxQ2G8gk5YSir8EMjAQlMfAIqEid+GhoDCUw3ATojsU4O59HJQSCdmIsvvjh9//vfT7/4xS9KZ+fPf/5zuv/++5sOzHR7rEMJSEACs5kA5RuKRUa60vFZbbXV0lZbbZU23HDD0iEiONiplTJ2eGZzIk0i78hH0Ymu8xSKwCuuuCL98Ic/TJdffnn5QMdHOkZmoyjUSEACEphoBFiihroVheLznve8NHXq1LT55punKVOmdK1T6XPUCsaJFl/DKwEJ5DZzbtw4tdmcIIEhJMCrH8pDlIlcM7Lw6quvTmeeeWb6+te/XpSG3dDQYOCLJKN++ELJCCC+PvKLL5ihoORYKyi7yfOeBCQggX4JxEgsyq44R0kTP6bzMUKaEV18GOHYrclDGbbTTjul7bbbLm266aZlJGOtQIyyrN/waX94CUT9Sn3I+eOPP14+yH3rW99Kp59+erOUQ5sQeZGRPvwY+cMv6lbyYV2/Rh41f7Ypei0BCcwIAepTTNSrHOkvxGjoum6l3/Dggw92HWDALIENNtgg7bbbbkWpGOt1hgIxyrAZCatuJSCBOUdAReKcY6/PEpijBKKBEB2dW265JX384x9P559/fplaVXe4mRq43nrrpbXWWiutuuqq5asjisT55ptv3IrEkGenZ44mu55LYNIQiDIslDYco6PDyK7o7KBMZCQ1U0d/+ctfphtuuCFdeeWVZWmGGgajFV/96len/fffP6277rrlEX5YZtWUPB8Pgajv6Cgz0pC69dxzz0233nrrCOcoCtdcc83S2V5ppZXK2rAxbZBnKBZVJI5A5oUEJDCLCVDvYaKORYnIef2RjvqVJY1QJFK33nHHHen6668vgxF+97vfjfhoRzm2/vrrp3322Sdtv/32zeAC69ZZnJCKl8AsJqAicRYDVrwEBpkADQPWZDr++OPT5z//+fTwww+X4KIgXGONNdKWW26Zttlmm7T22muXUYfx9TCO440bnSr8otEQHSwbEOOlpz0JSGA8BOpyBvvtcirKHo6MEOPjCSPELrnkknTttdeWThHuGEXxzne+M+29995lilZbDnY0EhiLAJ3sU089NR1zzDGlk4198hZT/bbYYosyrZ6pf4zwjzxG3uQXI3Z6+REd/LHs9XLvfQlIQAK9CIxVvkR7PtyjaIz2PeUXm+exdMN3vvOdUrey5iuG8m+zzTZLRxxxRHrpS1/qR7oA6FECE5SAisQJmnAGWwIzg8DPf/7zdPjhh6cLL7ywrM1EZ+aFL3xh2m+//UplzzQEOyozg7QyJCCB2UUglDHj+VhBh4j16S644IJ08sknpx//+MclmIwCW2eddcoHFkZiayTQDwE2Izv66KPTCSecUEbs4Jb1ww455JAyxY88RadaIwEJSGCiEWgrEnuFn5kAV111VfrKV75SlktiRCNmlVVWSe9///vTDjvsUJZv4B4yMeOpt4tF/yQggTlOQEXiHE8CAyCB2U+AKQnnnXdeURjec889ZTTEiiuumA488MC0yy67lBES0VCIkRKzP5T6KAEJSGDWE4i1YikXTzvttKI8ZIoWhh0oP/jBD6bdd9+9UfxQNo5n1NisD7k+DBoB8savfvWrtOuuu6Zrrrmm5BN2Nn3LW95SpvUtu+yyfpwbtEQzPBKQwEwnQB2JoUxkqREUih/96EfTj370ozIjgI91jPx/z3vek5797Gc3/tvnaFB4IoGBJ/C0I7MZ+FAaQAlIYIYJUJljqKTPOOOMdNBBB5WdmLnHzqXHHXdc2nrrrcsGKtjhq6AVOnQ0EpDAZCZAOReKwRe96EVp4403LlOzbr/99rKI/GWXXZaWWWaZtPrqqxd7lo+TOTdMf9zIQ4zy33fffctuzEhi5A2dZ9bdZK1hR9tMP19dSkACE4cA5WHUlZR7U/KSDkxr5h7lJGsX/+xnPytHRv+zjqLl48RJX0MqAQioSDQfSGAICKBEpPJmWsFZZ51VRiKyZglrITKN+dhjj00rrLBCIRF2sa+RgAQkMFkJ1GUd5R0/OjIofLbddtvSsbniiivSQw89VNZRZGQZikaWe7B8nKy5YvriRaf5t7/9bdlI4Lrrrit55GUve1n69re/XTZSYfRNfMzDB/PP9HHWlQQkMDEIRBkX5R7XbCS16aablg8sfKBjIyo2PmN99o022qiM+leZODHS11BKAAIqEs0HEhgCAkzdo/N7+eWXj5jOzHpN733ve9OCCy5YRtpQgWOPit/KfAgyhlGUwBATiBETHOsyj7KP0REsBs90ZxRDDzzwQNmNcoMNNkhMT9VIoCZw5513lqVB6BxjGN3/2c9+Ni2//PJNXVrXqdHJrmV4LgEJSGAyEaCco9zjF/UtfYyVV145sZwSaxI/+OCD6cYbbyz9kBe/+MXNEiKTiYNxkcBkJaAicbKmrPGSQEWAyvzuu+9Ou+22W7r11ltLJ5mpzaxN8qxnPavpREfnhmOcV2I8lYAEJDBpCNRlXLcyj80wUCbS8bn00kvLyETWTmTkBBtn1O4nDRQj0jcBlM2HHnpo+sY3vlHyxEte8pJ05plnpqWWWmqaPNItn/XtoQ4kIAEJTDACddlHncqyD6uttlrZ6Axl4tVXX12WD1l11VVLzKxfJ1gCG9yhJPDUoYy1kZbAkBF49NFH06c+9al0ww03lJhvs802ZfdIphl0M1bg3ah4TwISmIwE6g5OO34s/8BHl+222648Ym2nY445JjHKWyMBCHzve98ru5IyqpVOMEuFsHmA9aj5QwISkEB3AoxS3HLLLdPhhx+eFlhggTLN+aijjkqM7tZIQAITg4AjEidGOhlKCcwQgfPPPz+9733vS4899lj54nfyySenpZdeupFph6dB4YkEJCCBEQRY327NNdcsU5x///vfp5tuuimtu+66aaWVVmqURSiRYurWCMdeTFoCpPevf/3rsvMonV+UzieeeGIZsUqdan6YtElvxCQggZlAgJGJa6+9drrrrrvStddem+67775SbjLqn3oXQ92KsZ9SMPgngYEi4IjEgUoOAyOBmU8A5eGnP/3psg4J05jf9a53pSl59zQMHZ2opMsN/yQgAQlIYBoCTMNiKQhGUbBpFbvcs2FVmFgHKq49Tn4C1J1f+9rXmpH+O+64Y3rFK15hh3fyJ70xlIAEZgIB+iBzzz136ZfwYY6R/meccUZZM5FnGBSI1K8aCUhg8Aj4Zg5emhgiCcw0AnR0zj777MTOo5jNN988veENbyhrfsXUPL/yzTTcCpKABCYpAcrJrbbaKr32ta8tMWSR+O9+97t+iJmk6T2eaLHuMNOY//nPf6Y11lgjHXDAAU2nl/xi3ToeitqRgASGmQDl5POe97y0//77p3nnnbeMTmSjKvovKBNDoTjMjIy7BAaVgIrEQU0ZwyWBmUDg/vvvT9/85jcTayTy1Y+Ozvzzz18kRycnjjPBO0VIQAISmLQE2Hxl7733TosuumhZJuL0008vSqRJG2EjNiqBr371q2VdL+rQHXbYoSgTo9PLvegIjyrEhxKQgASGlADlJD+mOL/uda8rZSgoWI7p9ttvLyMReRYDH4YUk9GWwMASUJE4sEljwCQw4wTYofmiiy4qgrbYYou01lprNUKZKkAFrpGABCQggbEJ0JlZb7310iabbFIsMyqRXZxDeTS2BG1MZAKkPz/SmzW9vvOd75TosGnZHnvsUTrD9RS8+nwix9uwS0ACEpiVBChXF1988bTbbrsVb/7yl78kPtRwH2NZWjD4J4GBI6AiceCSxABJYMYJROV76aWXJkYlMl1g2223TayRqJGABCQggf4JMDKCMvT1r399szzEOeec078gXUxIAqQ/PxSJt9xyS9lohYi86lWvGrF5WUQuRtvEtUcJSEACEpiWAOUq5eXWW2+dFltssaJAvPzyyxMKRUd2T8vLOxIYFAIqEgclJQyHBGYSAZSIVMhUvhdccEGRusQSS6SXvOQlftWbSYwVIwEJDBcBylN+lK+slcgoNAydnQceeKCc88zRiQXFpP4jja+77rqywyjT3flIp9JwUie5kZOABGYRAcrTqDcXXnjhNHXq1OITo/3vvPNOy9ZZxF2xEpgZBFQkzgyKypDAABHgyx7TAO6777508803l5Ats8wyacUVVxygUBoUCUhAAhOPAOUroxLXWWedEng6OqzlhIlRFeXCv0lLgM1VUCDT+V1qqaXSCiusMGnjasQkIAEJzEoCoUTED2ZPrb/++okPNPfee2/65S9/2QyMmJVhULYEJDB9BFQkTh83XUlg4Ai0R8PceOONZZMVAsq6XlTQGglIQAIS6J8AI87o8DAqERPrJN5zzz1FkVh3hvqXrouJRIC69uqrry5BZrfR5ZZbbiIF37BKQAISGBgCDHygfsWgQFxttdXSggsuWK6vvPLKcnSNxILBPwkMHAEViQOXJAZIAtNHICricM1GK//4xz/K5Yte9KKmoo7nHiUgAQlIYHwEKF8ZcRjmBS94QXrGM56RHn744XTbbbc1CsZ47nHyEvjzn/9cNlshhlOmTEkLLbTQ5I2sMZOABCQwGwkwwjvK1BtuuKH43O7fzMbg6JUEJDAKARWJo8DxkQQmEoG6omXEBJ1bpmBhVl999WYNkokUJ8MqAQlIYJAIxMiIRRddtOns/Pa3v23WT3Rk4iCl1swNS6Ttr371qyKYOnfllVf2I93Mxaw0CUhgiAksueSS6dnPfnYh8Otf/zo9/vjjQ0zDqEtgsAmoSBzs9DF0Ehg3ATo1oUx87LHH0h//+MfilvW8nvvc56pIHDdJLUpAAhIYncBznvOcxMLwmN///vdFkegaiaMzm+hPY1o7H+kwKJWZ2ky6o2QMReNEj6fhl4AEJDA7CVB2Rvk6//zzl52b8f/RRx8t673PzrDolwQkMH4CKhLHz0qbEpgwBB555JH0t7/9rYSXr3tzzTVX6eQwUlEjAQlIQAIzRmCBBRZIKBMxrJNI2cpPZdKMcR1k1zG1/a677irB5MMdG5lpJCABCUhgxghQnsYHmShXn3jiiTIownp1xtjqWgKzioCKxFlFVrkSmIMEWBvxoYceKiFgNGKMlIkRi3MwaHotAQlIYMITYNTEM5/5zBIP1sxjNAXlq2XshE/aMSNAemNI60UWWaQ5jxE15YZ/EpCABCQwbgKhLOTI0iEYylQGRcSzcQvTogQkMFsIPH22+KInEpDAbCXA2ohMCcAwaoZNAWZlB5dKHvkcGZXDBgSMiuRrIoYRkXPPPXei8815P2GJBkTIR14/7rGPiTD+52pw/3uFs9f9iBvHsbgw5T14sjverM4XvSiTP2PELHZQdKPwHiv8tbyIRz9uwv2MuA0ZM3qcVWFA7vQw6Raftqx+wxz2kc06RzEimvSmPJhR0w7fjMrrxz3hn3feeYuT+++/vxxj/cR+5Gh34hGIsov3jLW85mQ+HC+98YaRjjttB+pw3lmuqSciv5PnBzWfjzeO42XWr71Z7T/pEW0q0oC2VDstCAOmnzqglxvSnrKNI2a++eYrv3Lx5F8dJsr1dvsumNR+xDki+gln7W+38/Cr27N+70UY2+GjDiPO4RfvBm2p0UwvWaO5GbZncA7WHGO0P3nvwQcfnCafDxsf4yuBQSUweuk3qKE2XBKQwKgEaGz+/e9/L3aYgkdjMyrpUR32+ZBKHtkcaSxdd9116bzzzktXXXVVuuWWW9Jf//rX4u9iiy2WlltuufT85z8/bb/99mnddddN88wzT3HXbgi3g1A3wmjE0VidHkMYa7fI5TeW/2P5NZacYDSWnHjeDmd9nzQkvMGk/axOY+RwzS/sf/jDH27Wztxqq61KWsCk3zCOFecIV6/jFVdckQ488MDmMTv0ffWrX202r2gejHISceLYLQ3jec0kxPUbX9xFnINnNz9Dfn0Md93s86xb+Gr3cT7eMLfTvZu/ITOOvWRzv/3O4Ga8YY40oCz68pe/nK699tri5Ytf/OL09re/PbwvbCMM45WN43b4GoGz4QTFSihDUbwQFs3kJ0CeRsmGIa8yKjXyYT95d3aTijD28pd4sdbn9773vfTjH/84XX/99enee+8t7QhGXS6xxBJplVVWSdQbr3jFK9KCCy7YS1TP+1EetDn1ut9TUOtBvHvIQXb8WtZ6XuKO31hlZdhDUDe7vRhzP+wjA9OLQXnY5Tn3zznnnHT++eeXsLI257777ttsShHuesmP592OuGmHB3uUa29729vSnXfeWeqBvfbaK+26664jRHzta18r+YWbtO/e/OY3jwgTcY/0CH84Rjjr+mWE4D4v8AeZo8kLfyMtwos6feIedrsxYWOtz3/+82XGD4rV3XffPb3oRS8qzkaTHwxCfs0l7rWPveRhj2cY5I5mr1iagH+x2QqcorydgNEwyBKY9ARUJE76JDaCw0gARSLTmzEo7KKxwXW3xhH3p8eE3D/96U/pE5/4RDr77LObjQdqeXxRZPe1Cy+8MJ155plp/fXXTx/72MfS8ssv3zSwa/v1eTT6aCzFeTxHsRjx4flojch4Fg1O3EX4Q17I4rpuqMXz+sjzaIB2cxd2uz2LRiTxQU5th3s8x7TjFH7W9rEXXEIW6R/x5XkoYM8666wUO46ivNt2221H2MNuNxNygx12Iuxhvx2muM8xwo0bwoLSMJRKPGekKnnj9a9//QgWPOtlwn9k1ybYcawZ1HaCV30v5MSxm52IYxxr98EGd5zX7rvZx234Vcup79fu6vO2/fo6/I0whB/jcY/d0ezFs7DXTXZ9D/v8GIH6ox/9KJH/MIxyqRWJ3AvZ8U4jh/QLecQHO8QPOxwjfbET7pE1Owx+hyKR8DBKRTP5CVC2RlqTBxiNFO/c7M6D/dCOd6XthneHkepnnHFG+vSnP13qh/gIGXZ/97vfJX58APr2t7+d1lxzzXTQQQelrbfeusSfd3M0+fG+Bh/sY+Jd5n48Cz/j2HbL/SgTOK/dRpnH/dFMuMdtfd7LDXZCdjuctXviU18jD3dxr5Zf32vLxF6351dffXU6+eSTy7OXvOQlaY899khspleb4IH7On5hp5tfkX+xg7uIK3n95z//efrNb35T0pf0rp8j66c//WkJE25RMO+8886cjjARpghPt+twQHrXeSniEc859rKD3LFMhAF7YT/uRby5Dib4j4lntHX/93//t2wAwqi5zTbbrFEkYi9khrtussK/sB9245pjmJAX1xzjnYh7hA0TYYz7E/lImxBDnKIvM5HjY9glMFkJuEbiZE1Z4zXUBGho0HnHxPSXurEyo3Ci4YJMRiHusssu6VOf+lS64447SsVP42fKlCll5CFKwxVXXLE0DrHPQvUoHFEaXXTRRcX+aOHBDT/iFP5in3P8iWPd+Kzl4RY78cMNv5DL/fq87ba+rs+RgZ9tWdhBXhx5HufhF+6iocq92nDNM351nDiv/av95bwtB5nhN53dOK/9CvkR3njGdS0vzpHBL8KBfezS4Qg7IaM+hhvsMLqBdK8N0+D/3//7f82X59Fk1e6w1w57hJE4189qmd3OscsvZNZu8TPk8pzzWgbPI71qd5yHO+zUhvvBn/u1vAhH23593eu89hM/MLXs2h1249fNXh0+nrfDFe9kLR87Yer7ca/bkXDCL5ggI/yuwxfxwe70+NPN7+m9h/+hSERGW/kyvXJ1N9gEqFcp7zCMSCJPRl6M/DnYMRgZOqZpH3rooWV02w033NDkYz40MdLqpS99aVpjjTUSMxswDzzwQBmBtnseiYVSi7WY410NyfU7y714X+v73MOE217s4nm4pUzhvF22cB1p0UtW8fDJv3CPLEwt/0kr5RD2CAdyQ3bcb7vjfshEAPGMOHBd28cuZSj3arkhO46462Xa8sIecqN8xk47XKPJruMZ8uJYP+smI+IR9oNbXHMkPBjct2UEq7gfx+Lgyb+2H9iJeyG7th/n2Kl5hd24H0fuIzOOuA/5IavbETshow53fS/kEs94B5BV+xWyudfNX9zVccZOcAu3E/3IAAgMDKxbJ3pqGv7JTMARiZM5dY3b0BKgkRGdnVizhsYHlXKvxkk/sGi40Ej9wx/+kA444IB02WWXFec0Zl74whem/fffPzF9ka+K2EVRRCfli1/8Yrr00ktL2Jg6tffeexelIiMcujWYCGsY/GPkBMdYl4aO/FgNKL5mRqMLBvBALh1CnnEe8uJZ+Fn7H/fqI3KZ/kOYsIvyChnIIz51nLAbDUdGtHCNG+7V9wkTjSjk1Aa7IYOGFemLv7iFA/bDv5oJdiJ8uA+De/ziGQb5uAsZHMNPnsMeZhEG/MNf/OdeuMNu29RyGMFw9913FyvhBxfkIfLT6quvXp5FuOq4lAfVX7iP9Ti5jrTkiAlOdbhrmRHuSAPiGMoC7iEn4ok84gILDHIircuN/Be88a9OE8JBXuEe64whJ/zGbcSFvBHpgvzgXNsNv7od23IIR8Shjjd+RJzJt6MZwop9wkY8IkzhDj/iGX5wnyPy4z2L9MQfzpEXJjjHdR1O4oOMmD6MbH7BFr/nhCHM0dnBf95J4sX98abVnAi3fs4YgShPkEIeJL3Jg5EPuZ4ohnKMmQHUy7xj5FuWIXnHO96Rttxyy7TwwguXd413lQ+Ap556ahmRyIhiFIrvfve7i7v99ttv1DwfZVJdTvMOUw7yrrffl5plXVZgN8oV3FAmUO5wjzKO33gN6US5RryRwQ/3Ub5wjh912LAfaU244hlukBeyOEfJ3Da4x4S9kBEscEdcwh7nmMhzHOMZ4SBdkIUhLBFmrpFVc8QtcQz72A3+2A/TjnPcjyP+Y4ewR7jiGf6Rp6JsJwzELThhL+Qjh7BQbkaciC/ccIfhfpyXG0/+EY+QGfLDb8JFvIhf2/AMmdF+ivBRjoc/yK65hXzc8YxfhJcjcSAfEnbc0VYgbMiLMBIOrnkeacY5bihDohxphzfchz/hL+4IF9eEB5nEgXvEse13W+5EuIYJJuI4EcJsGCUwjARG7z0MIxHjLIFJQIBGCg0KTDSEOKdS5kdDZEYMDRwaMO9///vTT37ykyIKpSHr43CPNZXwJxpnWFhttdXK+krvete70umnn14aP7fddlv67//+77LmDJttdDN/+ctfipLp4osvLlNs2DGThuKyyy5blJZMp2HEYzS62jK+8pWvFCUm99dZZ530hje8Id10002lQ4Rykw5RrP+0wQYbpE033bQ0Qgn7aJyYqv3DH/6wrAfJ2lLwWHLJJctakIzC3HzzzcuC0W3mdKaOP/740jEjTK985SuLn6wree6555Yp4HvuuWd69atfPQ3D22+/vShiUcahdGPtGNboWnXVVcvoz9e+9rWN8hbZkQbHHXdcgnXsNsozRgUedthhDbdXvepVJX3gGCzpKDCV54ILLkjXXHNNCRsjUEhr1rzcaKONiht22MOvcIf8tuEZDW7WeIodxQk38kljeF555ZVFkVjnm7acuCZsN954YxnJyPSre+65pzTIl8/T5UlnuC6zzDLpBz/4Qfr+979fnDHKhvxZp2uEmw5BLY/1wWjMIm+99dYr07bIc9/5znfKNF0EwoApujENh3t0yn/xi19wWkbzbLfddiW/sXboz372s/Sa17wmvfWtby2dCsLBu0p8//jHPxbOMGAqGcsBMApoSh7Z+7KXvaxwXnzxxYvc0f4YYcQ6Z5dffnkzTZH0WXnllctURBT85IMvfelLTX7YbbfdyuijbtxJm+9+97tlWiPhohOGsoG0Y7001jvFzgknnNBsoLN7Hq3EBwXSiKUM+HgA2zC8f5QDYXhf3vSmN8Vlc0QuU96ZUglTFBi8+0svvXRiah95ljSYU4b8Qb4mDxHXOl/NqTDp76wlQL3KO4uJ9I90j/uzNgQzRzrxoB5mvTfKPuKwWZ6m+aEPfagsPdL2hTqW+hE7fCgMZeJHP/rRUtbyPExdD8CE+oryiDruvvvuK9Yoiyk7eI833njj0k4J93U5hJtvfOMbpT1DuUPZibKKMolyhXKTKaasGUiZQ5mAArQOQ8iNI89Yv5myhbBR9xAf2iCUJ3zMov7gvA4L7uDE9G7aIxjKQcou6h/ChDxGcLIecdvQ1qDNwBRlykDKasozyvUNN9ywKG/hGHVCuMcv2gbR1uI+U80/+MEPNgpL6inqIuRhIty0N/hIx7qXrFsNf+JAm4cRp/AivP0YyjvqVOpWyuYwlNFHHXVUE4YXvOAF6Y1vfOOI+hG7cCAuxIulVijnCRP19dprr12WXIED/mDaaUm7Jd41plLzIRrupAt1FHmSeq5tmD2Dn9Sx1O8o32izkf9o903JdS1xor2D3zDiQzn1O/nsM5/5TKmHYs0+8uGpWblOPsSgBKUNTJ6oDbJor9Hm4j2gHYcMpqWvsMIKpb1CXUo+qOMa57yftJPhhKGdx7tIun7rW99KrNsIk0022aRwwb9wW4djIp2HIpEwE3+NBCQwoARygaORgAQmGYGs9OnkhjqtsE5ey6iTv1iWGObGV4ffjJrcCelkhUonN9iLH7nR0skNuk5WUIwQnTvXI67xOzeoOltssUUnN/7LLytnOnla6wh7XOTGQycrXjq5gdfJDfziD/Gpf1lJ2smN1U5en7GTG2Ylbu34ZUVO42aHHXbo5MZgJzdSO4S5lsV5Vrh0Dj744E4eMVf8nyZQ+UZumHdy47GTG7yd3NiZRgZy8kL0ndww7OSGXgcG/GDGMXdgitvw+z3veU/n6KOP7uRGdJGVv6R3TjrppCYuuMkN1k5el6eTOzid3Pjt6mdu7HZyo72TlWrFH8Ie6Z0VUV3dRBg45k5JJytDG7fwzx2jTu7gdJBd241z7r/85S/v5M5EcYufhLedBnE/N6A7WQlUZMH/4x//eCdPcW9k5zWYCqdu7pER8cmKyE7uqHVWWmmlTu4wNe4jXHlUQCc3tDu5kd05/PDDm+e5ozBNupIuWcFZ4p87o13zBcxhSJ7Pm8Q08nJHuJMb9wStMXkkT/N8991375x44omd3FlowpkVmY1dTng3s+Kvk5WyPTnnDkond+A7uQPUcB4hJF/APXfOOlmx3lMO7PfZZ59OXq+wQ1yDV16zsmEbcuGSO0glH+N/2I0j6UeepXzJnbMm//I8d/yLPLi+5S1vmcZtyIhjXsB/RJ6JuMAyd7a6uieNsxKikxXT5f2IvBHhnx3H3Hlr8ktWDMwOL/VjDhOgjqNMJO/yDtWmV7lV2xmU8zzCsEP5Fe8gccmKphHvYbew5g8JnTwSsdTJ1OHUzZRplGPxDsYxK7tKebnUUks15V/4x5GyOytPOlkB1snKkGn8Rg7lJ/U89vPHkFIPwr9b3Ut9lBWAnayoK/VIt/BTrmXlZCnX8oYOTfzrcFG2ZKVkJ38c6Vre1nVA/mDYyR9LSjskwpkVPSO8pjzLCqRO/jjY6eUn8ckKsU5W0JX6KBgiiPZBt/ZKHWbqp6yga/wlnvnjYalfadfUduM8K+9KuPMU9U7+cNW4jZOs6CxtJexjNyuz4lGHdkvI6XXMH81K/UhcYECYbr311s4222zTtB3bbvEnfwgs6Uy7B7dtg51wRxrRZqvjeNFFF41wkpXEnU9+8pPlfa3dhoysfO1kpWpp75C3o02RN4/pZAViCQPlO3k13HQ78i5QH4Uh7LwX5I+s2Ox0q0eRw33aK3nJn675jTZnVmo3fmdFaScrbDtZ0VnukTfy+sPh7aQ4ZsV3iRvpRVtPIwEJDCYBvrpoJCCBSUaAEzPalQAAQABJREFUhnQo3/L6R10bJzMSZRqd+St807ChkXPzzTePWyTKl/zluJO/Rpdj/jrcdEIQQgOMxhcdkLrBRoMJBSkN/fo+53mURNPoqwNSKxJpxEeDnMYijGhE1rJ4TtzaDWsawTSG81SwEf5jHzl5RMA0Sg86Pu1GbVuRSGcuOiCEIxSJEQcUejTg8+i0JpyEHQ50/vKIxOY+7mlQoyiqDUpNFDIRd+zRccEt9/nROCV+GI5f//rXp+n0RDzbnSEUpyhXUUR2M6Qn/OgUBmuUUOQZlKaRBsjhXoQjZIV7jnSW8mi2Rk7Io8FJ+OqOAg10FHRhp1YkEh4MnYw86qDpPIRd5BCeOm3oOOfRiY28sRSJeaTHNOnTViTmXS+LQj385Yg/hLXOr9wnfnnE4whla8SDjmq3jg6d63YeodMUHwGQiyKxbVCC152zCB+y2oplFHqELeyQdwgXHUEUl7ipOXIe+Y5jXuKg2I8w0BmLTlLIxB5M8KfOx4TlIx/5SMkzwSLkzOojnekIS16qYVZ7p/wBIIAiMT7MUL5PVHPaaac17yv1KeXweAzvGB/tUFL98pe/LD8UhihMKLcpoznenj8a1WVl/R7XdVnc58Mc7YHa4BflXZQdhLNWxiCHsjJkxDHPfujaHiFsl1xyyQilDG6ofyhb8ojHEfUAZcuxxx5bFHt1uGpFIvV+u9xtKxIpm9vlGWVilGehuCIsxI+PX8Q9yjPCQF1QK09xQ/yjHOWDXq1IzCPAi3IsmIwWT8owymA+0NVmNEUiiiz8pr0SflBn1mH6r//6r/LhlPxAXPgQlkfrNfZxB2MYUtdEWcp9zuFQxynCVtfxKOBqd7i9qFIk4nfe3brJQxHWaP9F3uJ+nklTFMghD0VinjFR8jRKdj5cEt54jhvSK9KAdnAe5VrsE1/qP9pV7fyOn+22CrL4YPnZz362uIu4cmwrEttxJjwoEiO/1G4n6nkeYVryCWlNXtNIQAKDSUBF4mCmi6GSwAwRoMEWDexZoUjMG2aMGNGU11QqjScCHR2J0SIQHQ7shn0UZpxjUDLGCD0aWHQg8vTLMsKM0W8oyt773vc2o9uiQYeSr5aDrFqRiD0acYyI5OsvDXwanbijE8FzfjQWGc0WhvDyw29GUGKHxhthzNOGixwUCYzMgkWt6MzTNouyKmS1FYnIolFLetFBpfFNmIINHYJQ0uAnHZIvfOELZbRjnppdRqHlNaoaO8gjfnm6dcMTGTTMaqaMXmTEGff51fYZNYCyCVn8YHPkkUcWe8STkW8ob+oO1CqrrNLJU5tKNGFVG+JCR5MRhyFzxx13LFz40s8IUe7TKWHkQDf3kQakCw3+kEOHjJF/jOojPfMU4g4jxUjDsBNHOm7kD0w0uskHKAzDDh22vBtmGZ2APEZlvvOd7yydhbATx7EUidgjzehoYJcRsXl31OI/8aEzzsiXkIdy74gjjihpC2eUeXAmvsjBHsrjPBWvSVviQWeH0R8hh8Y3nWlGmtBx5uv+KaecUka81J2wsN9WJOZpep28o/cIeYz8zdOhiyxkcs69kBfhQyaKRNKcsBHWPF2sM3Xq1EbeJpts0uQ78h52wqCo4XmEDXaMeiQOjLYl79Gx5j0MP3knKPOi/AhZs/r4vve9rwkDo6c1k58A7xodefIn79hENLwnzCCId4wPAXfccUeJymjvEM+iHOac9zt+4Y5jnj474kMjZQT1CeUM7y/vMopMFDVRfhAWyscYAUZg8KsekRjhpa5hZgFyKCO//OUvF6VllAfU8dTDbcUYshkNF/aoO1AyofyhbKEM+Z//+Z8R9SRlMvUkYQlTKxIjTCiUGFFIeyPvfl2swoL8Utd7lGco7Sj3KONpUxDHujwjXIyajLYMo0exX6cZH6kYIc/9kMVoUfwkrNSJEU8UkHwc5QMNfvKhGf6M/AslJuHiXh3PtiKRuijkozzG37qeoK1DfRlhoh3Bx0Xc8MEuLyvT+Ifydq+99urkqd4lTLBHaUydEkz5WJqnKxf3yAhT5xnsck0dSb2x0047NSNrcYN84hYyUdZRvyOX+p3ZMNQvMYMn7HGEMXkZOSjz4JaXAmja1igIURRGfElLPpJjn/cCP6IdjjzacShH8ZN8CyvCUn+Ypa1FusZ7RZzbikRkkW7kTT6UwhV+uKnTL3hNxCMsiSdpy2wZjQQkMJgEVCQOZroYKgnMEAEaFdF4ouHSa6TY9HpCg4pKnh+NVZQ4YWjI0KDpZqKBxTPshFKnbvzQaKJxFfJpfH3uc5+bpoGEWxqqdObCLo02RjXU/rcVicjmK3f4GeGgs1CPgGT6FF+Uw9CgZKRB+IVChynkhAMZ8aMxT4M7RtlxRKETYWorEmkQIpe4ICvkET4apXX4aWRfe+21IxrWMMUNnYT48k3ji9FSEcc4MoImwo+CGXdtg923ve1tjT1GClyUFZsR/to++YzRBCEz797dTHHDPmHDcI7d4AuTU7JiC794hlIzZDA1F0VWN8PI1VrxhgKQxjjMwyCPH431Or7IrxWJ2IdvnX/oTJCXgxd2Qh6Ne6YoRzg5jkeRiHKYTmEtE7nkcxTA0SlCGZbXZpomTfCfTgejIfCT941OIp08DApalK8x5Z3nKN1hWPtJWsCPjnMdB87bikQU6/VIEzp8dMKDRfE4/3GPqcsRh5DL1Oba0IlESRDPt99++xFhC7ukY16jrVHE8z4jK/JJlGPEBQU0HeGQSWed8MxOw+jS6KzzXmomP4HJoEik/qvLPZRulCOYusxopybvf9QZ8U7GPY4YjnxkiA85vB9MXeYDQcgON7yvlC3xDvMBDgVh+IG9ekQi9ijT+QDDs6hfsE+9iiIpZOF/fNiKeKAkDMUZfiEbt8jiF+HnQ0n9YZGPe/EcO21FIvUCZTflU8jDHudMS44Pi5TRLFHC/drAhdGd9eh5pkyzxEoY/GcKb5Q3KH9jCZY6bJx/85vfHNH+YEQXZWvY4wg76pBaycloQaaYh2krEpliGszDTl7PuWFO3c37ganzB9coKSPspA1p0TaEi3ZW3im8kYnSmLSNsOOmXd/QXrk9j4Ctw4b/fBytmfLhkxkAkdfDf9INpXTdliEfoUgkPpFvsY+9+JBJ/QRrwkaahv8c+dhe10/k24tyOyryBzI5x2/aFvGxGH+ZBo0SHDnIbisS4UiejLZu5Kc6nBG3iXqMPgZp/YEPfGCiRsNwS2DSE5g428vl0lUjAQlMH4Fckk2fwx6uWFg8TFYKlc1V4jo31MtpbgDFLT5YNJu/xE3s5ZED5TI3Fho3uUHdLF7NzfzFuyxmHnJz46osKI1bFrVmkemsQCvus8IinXPOOT0Xms5f+lPuBJRFrsPPCEdu9KWs4GgWKWeXShY0D8OC1rFpB/fyum5lYXDCgYzcuCvxzJ2GlBU9KSvyil8sgI6/NY+QyTE3IFNWPJa4ICuY8CwrJ8qC2pzjB4vcs7A4JpjiL27Y3IWNZDD4lTsszSLVEdfysPWH3Tp/EGcWLcfgJ4uH54Z9wwW7YZ/F7bMiqWw6gH0WMif9SKPacJ0VtWVjFe5nBWBZtJ9w4UdWpDbW2dQlj44pcajlcJ6//CcWTMcQbzalYZFymIdBHr88KjPljlfPvEAcWFg9N8aLUxjmDklxR7givZCF3Tx1LGUlXBPX8G+0I+9GbgSXTQWwV7POneiyUHr4k5WwZdF3/Au7HLkmbxJXDGHJHZImb+ZOUcqKwLIJCs/zyJay4H3u7JQF7LmHgVdWCqc8krdsTPCfu9P+w/mkk05q8g6LwWeFWXGL3xE+XCKPBf+X67HhScRtWl/+E6+4j1zswiR3zJpdP3n38wii4ifhj3zMORsi8C6HyZ3/smlCXM/uI3HQTH4CpHOkdf0uTISY847xfmelXvOO8U7xHudRayUK8Y51iw/x5d3DYK++DvtZqVHe4az8KLfyx6NSfuSPNM37ywPc4i/lI5snYSjL2Jwpyn0414wJI2U0ZVz4TZw4zx9OS3mQlXVFFv6zmVoYNvpig6mQnRVMKX+kK2EiTvgVsvIHorJhB+ULv6xQKhu8hKz6iN/UM9Q3+eNLqYsjfxCG2FgON9Qhr3vd60bU8dxHRv4wmQ455BAui6EeZBOxkEUYsVcbrqm36vts0pVHhDfhZfMSmNX2kAmHrAhL+YNiIm0wbJZCPd3L4E+kPzIibN3skz/ieVZcp1NOOaW5njp1asqKsGmcIZ+wEKY82q48ZyMcyvbwt+0o6rspeaOUiBd28D8ro8rGKuGGtgqbnZFOdfi5zh+OSzpyHiaYj/VOEO62Hdoq0bagfZJHoZZN00iHkMsR/9ghnbCFDDbFySPyIhjTHGGU15dO+eNiSXtkYsL9NA4m+I3IRxM8GgZfApOSwH9Kn0kZNSMlgeEkEA3lOvYzuyKmsRoGZUm78RWNvmisRQOUa84xEaawyz2esbtr/rrMZWlwoTzL04bKNX/hPm6wu2L+Ol92Q+QeyiGUd/mrd1hpjige8/Te5ro+IR4obGj05ZGI5Ze/Rqf8RbxYo4HNfQwNOZR2dcONePCDf/7yXRQ2ddyKwy5/7AicR4eMeEIc6dSgNCMMGMJFBwcFZy9DpwG3hAGFIDsY5uljvayX+3UcuJGn+5QdgzlH4Yd7djgMg+w6DdhdEdb5y3rZVZCdifPIyWIduzCgI5FH+jXKKTpddADC5FF7pSOVR5qUTm7+Ql/SFAZh8JO0DZO/8CeUb9GIjvtx5D6N8zz1KN2RFZNtg2x20Aw/kMfum7gjb9ZcOOdHvsojKRK7dI/HoGhda621itVaHjfyFLMmLXl/yMO1gr4tP+Rwn7RFYcs90gbmYfIInxFs4z5H4kXnPU/VLrtRxjtY28kjY5v3j/t0gPJoyWKlHQduogTI6yCO2IW5WM5/3ezzLN6VsMc1dvMImxG7O0/NHU7iV+e3cMORzjdlA0oCdsGk801eml2GMBN2OJLXNZOfAGkd7w1pP5FMvHfUY1Hu8W7xDkW8er1rEc/2O43MugxGeZaXHgnraY899mjKj7hZ+8GuuezEfOSRR5bHeepzqQO43/aLj27UcfX9+py6mvKIeg9Tfwisy1sUkigRkUe8CU8th7YAH9DGY5bPuyXnkZAjrIYsyq5QZsJps7zjNWVcHf/aIYohWOaRZaXOpFzPo/yKlfGWL+0yNE83Lu2WPEKu9qo5R/FKOZpH55d71Im75w+h4zHxHvSyGxxQqEWbjnvUi+TBOn1qGSgR84jQkg+I98X5AyUflbq9b3lEZaMIrWVwTj6kXYLhYy47MJO2hBu57XRAyYgSljzYr0FmhA8/UQRGO5mPejCNdnLYCz7kRxSrsQNzHj1ado7m43A7jISL9lOvdmy/4da+BCQggRkhoCJxRujpVgIDRoDGUbfGHY0ROg4coxEzI0GPL9jIoOMQjbWQWTfUwr+6odUtjLjlPooyGtIY3DIiqltjKvzgqzqNzjB5Ok7i102RSCej7vSEmzgyeoJGXXS0aNCFiYYw13RyusmPeHULL/yj4RgyOU558ks658GKc9Iy73DNaTGM9KBTNppBYRdhwB6dirEUibU83NLhwC9Mnl6T8kYvIxS5tX3OYYUSB0M+yNOQynn9h+ItT20ut4gjDXZMdGYZTUKjGUUi5txzzy0jVUiLMPCoOx6kAfkw8jXPg2+w5prRJN0UieRbRuaEQRYyRzN0ulA4jleRSL6s41DLruMC97zeXunk1Hbq80iTuBfKXfJIpDlsUUpH/MMuR+yEPTq/5N9It9oe4Qp7dLrIn+Rn7tX5s3bD6EBYR3rWz8Y6j/RDNnmvlpF3Y0958fmeImBScxlNyd5TiA8kMCQEeMd4vyhvQ6nBNeU8ptf7PRYeyl4M5QTlEnVCGOrv0coO7FGm4hY5hIcyrVtZjDII5V8vQ5nGh5JQJFLGh6FsYMQjBsUp8olvt7o63MSRMEXdEvfiiNIr2gLteNZlPPYpy77yla+E067HKHt5SJjbMrs6qm5Sptf1GrML8nTcysbIU9padf1I+o3HT9iNJ7/AjvBEXUMaM4I+Lz0yMiDVFWGq2TFSveZSWS0fzSIcdZiwX8vggyf1WRjSPdzFvbxW4XQr6Op8RD6r2260A2in9jKEg7Zn2CHsfFSkbuvWfgglYjBpx6OXP96XgAQkMLMJqEic2USVJ4E5SKBuzEQwopHRqyEc9vo50pCJL+co22i4M1ouDI1F/KWhQ5i4rv2Pa46YsMexVkTRSKfTQ2O0HTfs4gcNLRSE4R+NOEYodTOM6gse3Z4jq+1P2GPadBjChay2Cdkcg0HYqeMf9zjytZq4YMI959yLL9pc07hmqnM/plaEjscdfqKMjHRBMcgItfEa3OEGOfyCZV7nrkkTRpTkNYCKSJ5jjwY+Iy+Y1gZnlLaMJojRGFhGbh0fFH9MaQ+uccRunBMeRlt0M/Cs5TH6krxWp0E3d3SMGbUxHkOnt1tHALd1PicsTGfqx0TY6zxCR5u8GfGv5cEi7hMuOi3Ruavtkf5h4BGjdrjXiw1+0gmr4xQyxjpGmLDHB4Da9MskFAW1DM8lIIH/EOD9pd7mfaWswFAuoHBB6RZLhPzH9vj/63KhLgNQ2KFEqcueblIJD8q4UGi2y4FwQ9i71bvxnLIkFKTco24JQ1lHODDIoP6owx322kfcjGYPjjGduh3Pus1AWJim24+J8gy5UZeO5b7d/kFJyG+8BiUwYR0tzuOVhT3ShPYY9TcG2fHBsNwYxx9ueylzaT9FWGv+nNf8UdTFR+Sw3/aa/IoiekYNYY28jKwpT34s7uYv4eQ++THeSdyQX6nju7UfmPESpo5z3PMoAQlIYHYRUJE4u0jrjwQmEQEaPUzDCSVTXmh8xFRfGo80pmggccREo557PKcBxL1oSIX9ujFFQ5DGFA31sB8N6miU8dWW6b8hn4ZX/eW5xo7bCE99v9c5MvnhV93JIlzRMMYtMkMp1ktWr/u4izjVdvCThm0YOkgxzTrujXWsG5xj2eU54aBDF2zpcLH+XbfGbDd52Ispy8iAHYquCy+8sLFOxxIFEZ2JSDPs0pEl7WFLxwNlHaMUiTd82+lKZ5PGeowG6cWw15Qu5NWdUhRoyIv8Fw30CCMR4N7MGvWGki4MYZmSOxscx2uwj6nl0PmIjnzk22Ip/8En4kI8645O2OEY8eccO3AmfSJPRF6Pa+yRxrVCk3vjNbW82m/ko7SNTvp45DHqRCMBCfQmQBlA/Zh3UW7Wm2UJDUZ91WV/LwlRhvC8LgPCfv0OU3dTLnQrm8M+73+U+XEvyjTKW35t0y7bkEGbYjRDnCMctBnqDya93IU/dZzbdmsG7TDUbQb8pi6N+qotp9s1IzXHY+oylPqSei0+plJP1OEYSx7LZQSnseyO9zlleK3EW/7JEfGjca1l0+6pFcT1s5p5+zzyEfapt/lgN5pBCUtenFEDv7oNyujCXnGN/MN7Uo+gxT1x7vUOEEbc1nGe0XDrXgISkEC/BFQk9ktM+xKYYARobERjZWYFndFbrE0TG2uwQQJrBrKYeDRC2w2cukNAx6WeHsrUSBrNNLZobNPopNFHgx+lE50eTMjmPOLE2j71tGO+UBM+ZIUd7IdBBmGpZcWz9hEZ2CUu9cg2wl4rYiKucUROLR8Z40mHaGxGuPGTc+7TOWCKUkx/aYe1vm7LqZ+NdU4jP5R3cMw7WyYWpsdEHJDPr44jz+s05jn2L87rG8VUM+ywYU29aQ332ga3KB8ZKYNyKLiiWArDKAs6v0xRoyPVzZCH6vUDazs01BnJGoYpXSg36UhF/qjjgz1Ga7DW1swwdVxQILI5Dmt0tk2wjnwQz7mPmZI7ivG+EF7WCWTqOOfBLdxwDzm8t7060rGAO3bpjPL+xaYEyMF9bbDHpgBjddJqN/V5LS/yHu89Ju/gWjbTqe3X5/iNQUYtp7bjuQQk8H8EeGcoF6ivmWbLBzHe3y984QtlGYteCpv/k5BK3V1vBMLHIepo6ihGflG2UlbiF2ses5lWuywKedynTI0ynLIw6lrql251TCjO4lkv2eEHR8p6wsfHFhQ21C1RR9X26vNgNVrZ0qvswS3xIIycY+9jH/tYev3rX1+8qGV2K+N7ya3DF+d1/BkZTnrEqE42Wnn3u98dVnseCSMm6pWeFvt8gDzaZCj1+MhFXXXQQQeVjcv6FNW3dRSQrM2MYSMZlIS1orstkPDVbZX28/Fek8/igypuyGsoCmlPtU3wpu0RU9JJe2b9IKfbO9CW4bUEJCCBOUXgP7sezCnf9VcCEpiQBGjso1yIEW80klj/JxpC3SIVDSIaavvtt19ZXJoFplkAO9aToQGFgiXk0sg666yzRqyD1paN4iQWNOcZm5fUI/na9rmuG/Hdnsc9whx2kRvnNDgvu+yysDbNESUNO0R+8pOfLD8UZ6EcmcZyjxs0uFnvjo4Bho4ZG6HAJDpdbad3ZOUaSiKmUNF4jc5B295o10w7jlFgKGnpMEZHqHYX4UCZh3/4i0IXhRKcYEcnFeVnL6VVLa99zmhXGv+1qTfSQJkbnYS6I1Xbh3uvEYmEj+n44RZ2jKwlrtwjDpHe0dhnE5j77ruv9mK6z0nbWO+Lzi1p28sQDhSdvDuRtqG4o5PGJkJhzjjjjLJwfsQr7ke8SJPTTjstbk9zpPMbm6vwkPWseqUfMnnGAvXTa4Ix7vEXZSIG5uxOPZohLVjIHybsqh7TvUdz4zMJDDOBKBdQ/MUHInjwno/nIwmjttjA6o1vfGOpw9mgimUoKE8xKGpYviIMG0jUo/fjfhxpO1BmhWFN324Kl3hOeRHlc9yjHOpVJ4YdPlaGEok4sKFG/TEw7HGkrmZjLzbWog4/4YQTui4DUbupzwkL4eQj15T8oQfDPXYfxkTdWS6qP+pbyjJ+KJZiVGFlZcxTlIh8DApD/TtauQiD8JOydHr8DL/qYx1HwkO4MLBlN+Ve/uAOJWiEiSP14/QYNpqJfEn7CcX5aPmEDVLG8w6MFRYUgGw4F+0oFJisCUk+bRvCR5iYgcGa1hja1y996UubsLfdeC0BCUhgUAioSByUlDAcEphgBDbYYIOyi22MYPjud7+bXve61xUFGw3XaLDRMETpwTWNNHZoRGmCHRr0O+20U9pwww3Lc+yuueaaIzo4KOTo5PCMhhhHDJ0TRksdeOCBzXROplyzU2/Y6YaUBn6tvOhmp74XDVFGqm2zzTbFLfLpTKFkI17hH0fCRcfjHe94R9nJ9v3vf39RPtE4HMtEuIgn5+zkS2MYgz/vec97ygi76AxyHz/hi9KFUZ0olfih2I1wYQ8TSknOUd7SqMdObY+v+LE2Ic8ZRYHSFDsRPtzDhQ1UyAfh7yGHHNLwwQ5TzskXIZ8Rq+9973t7/nAfI/XIG/XC9MhgFGysxUnY2AjmvPPOG9EpwR4/GuaMxIh8SHhqQ/gZlROb0eDfUUcdVTqQ5M1IA+wRb5SMH/rQh0btlNXyxzpn5A4jdYLphz/84dLRJC0jDhwJx1VXXVV2IyZtSFsY0jHCoDRn1+SYMkfHi12ZUbTiNn74Q3qwqctoa20S30MPPbTpBKHMPfjgg0t+ITzBA79RIpMnGWE8mkEpXiv3UYrSkQzGwQCl6Pbbb98odxkNe/bZZ0+jiCAcKK632mqromyHCwxmxrS00eLhMwlMFgKsS3j44Yc3o7JRYlAenXjiiWX0FO9mXXZSLmHngx/8YKnfGNVHOUl5vf/++zdTT2kP7Lrrrk35cdNNN5WNs2JX4Jof000pqyizMIxkZARdtClqu3FOWRG/uEeZVNeJcT+OxIURcZQRYY9ZFGxE0k3JSXlLO+Jd73pX+aGMG8/0YMolmIWikzJv9913b6b1whbFKiwjHBFGPhLRvoj6G/9jVCHhR3Zdf6OA5YMmz/iF4ePUDjvsUEazce/iPCMAZShphQx+GNzw4XfnnXdu6m/K03qZmGKx9Vf7xaN6+jAfdmJ6LmkUHFAM77bbbo0k1kKmXUcd3jbUDXykpk3Bb7O803Xbz7abXtcoyrfccsvm8fHHH19G/lPXR1rxkHDwQZp6r1Za1rywxzVpSn7DwJTw1kzjnDYUaYmBCe2o+BBcbj75hwyU1rRlCBcGRTzukUV+qt/DJ52VA/lIIwEJSGCOEsgFlUYCEphkBLKCp5MbeLQYO1np0MkNpZkaw9yw6+TGTSc3HDu549/JjcbiF8c8oqiTFUKdrNjq5FFenTxKrZO//neyUqeTv9IWe4SLX24wlecROOTmxlEnK646+WtuYzePUOxkRUsnK0A6uVHWyY3uzqc//elOVjo2drKyonPYYYd1csMsxJVjbpQ2drLSspMVGCOe1xeXXnppJzd6i/2s1Oicf/75zWPim78qd7KysjzPjclOHtXRyR2STm7QFx65Ed751Kc+1clf3xs/80iIwimYYZd4B4PcMWv84CTsxc2sSGn44ucLX/jCTu6MdHIno1iBR1YadvAnZObp4Z2f/vSnRVbI4Uj8ww5hPOecczp5FEInj+Yq8vAbk0eYjIgD6ZanvnWIHyY3tovbPEqzkZe/wndyg7hwiDhkJWIndyaKHZ7n6crFfa+/3JDu5MZ8IzOP6CjssI/M3Onr5CnATRoRlzyKrbjJyqxOHl3RyVPpOscdd1zJh5EvI85Tpkxp3gXSk18endfJSrgRfuYOdgd5ubPWyR3hTu6IdXKHubET8vLozU7ujI2ITu64NPbyLtslv46w8OQF8cmdvIYzYc0Ksc7nP//5wpn3gLyaO7sd/CHt8Td3ZAp7wh4md2Y6ucPV+JuV1p1NNtmkA/88IrPIy4rVTlbEdnJnvbEX8ciK+hBVjrjBfTwn7fJ6lZ2stO3gF7882rPzyle+csR7Gvbz5joj5BFW3v9ID96hrCTsZGVg5/ZcPkS+wl4eXdwhnUIW5cnHP/7xTlZilLKB9zsrdTtTp07t8M5jj7Iid9JL/hjh8Sy+OPLII5t0ycqHWeyb4geBAHk/f+Ap+S5/hBiEIE13GChPjz322KaM5l2i3ZBHGXZ4h3k/KQsoCyn/N9544xHve96YopNHE07jfx4N38lKnOYdzkq4Tp7SW+ok6j9k5tHk5R2u63nKmPwBpLznCKUMPOmkk5r3PI/i7uSPh41/PMdQbvDLiskR5dYHPvCBpj7CHu2RSDviSt2RFTwdwot7yttzzz23U9dr1A3Ua7XJHy+buOWPY538QaV+3JwTvptvvrmzxhprNPapm/MHq05eN6/EjzqPupq4R3lG2PKyDg2HiN/pp5/epBX1AG075OfRi6VMxh4mf1AZEQfK2/wxqJNH+ReZ2KO8Ip2pK/CP+iUrTguDkEMbIy8tUp5Tj2dlV+HURDCfUF/hnh91yzHHHFPyDWGCS8ii/K7bf+SdI444opOVyEUcbVQ4kE+inuDYbh9hOdoU+HnKKacUP8KfIuzJP/jTxqH+ijDib/74VeJP/Z4/lJU2Wx412fgbdkk32rhhqLOJE2kYdkh/2rfEl3xEewx7GNohERfs016l3qP9it9ZeVnaLvmjYiOP9482DgY5xAG7tZ+0RzDd4lweTIK/PGq1MCGtyScaCUhgMAnwxUMjAQlMMgKzWpEYuGj85ZEGnTyqoENnIRpXHGmY0gjgF0qQeM49GrF5VFzT6EImDScaRzSeaHChzAs3NMhwR2ObY91AyyMYOnlURFGG4bZuYNWKxDyVeroVidGoo1FDIz7CRdxojNNYJxx1uFDu0WDHbfzaisSxGkkwziPhOnk0wgg/YZBHlRS/az+5R2cowhtpxbGtNKvTiM4NHUv48cujATs0uiOe+EH8ULTS+avTNK/b2Pnc5z7XKHHxG1l5ZETjHsUPnScM8rsZ3KEkQnGMv/iXR3c2+YJ0paFOp6judBE2eMQveBDWPNq1CQMKKsKFnEgPOl10DMcjD+Vr3cnMaxpOtyKR+BMGOHfL53lkSekAtTnTicBdMIxz8lleV6mJK/zq9K3l5FGdJe9E2rYVicikc1R3cMaSFwp47OURJ9MkL0p44hR+1mn25je/ubGP39jNa5pNYxf3dFbruNDRj48l9XvfCJyFJyoSZyHcARU9mRSJIEYx/+Uvf3maDyV12dGub3mHUbJQRkQ5FMnFO8gPhV8eUTaiPqxl1u8w5/FRMcpm5FEW1IrEPMKrfNjBDv7yPOxx3k2RyP34kMqRDyC1UoZyiLKfOqxdtlDn0g5B2VebXorECFfYxW9+fKDMa+ZNU55RZtKWqFlwnWczlPgRR2QGExRVKD+7laEoblH84R8G5S8foKIuxA3piKKKX+0n57vttlv5IBphRkY3RSL3a8OHn/rDaV2u5xGuRSb2iUMe2dnJMzumCT+cKcfbYaJNVyvywl/iEQxOeVKRSLjbeZF7+AvP+gMaYcSvdnuBeKDsC2Z8KGh/KERmHnHb+E84Qhb1eCidsccHVz6q1+3Fmk8dX+SQH/gonGcblKgiI+TU9WEoEtvxDT6T4agicTKkonEYBgJObc6lt0YCEpg+ArkhVjb/YEoo00ZYXy9MbgA10zI4D8NUqKw8S5/4xCfKtKrcsIpHZcpSblyVKTGswcRmCyw6jckFcpGXG0/lyDUmN77KlJTcqS/TbJBXyyyWnvzrdb+20+2c8OMf7pmKxXTOmGbEs6ycKuvS5Y5KsYcMpiXDJI8gbO7hvmaBPRj2MtiFB9OkmUpNXDHczw3kMjUJv4NF7tylPCIyvepVryphbcvOI8jKVPLgEHKQhYxgjzum/R599NEj1qwjfrlzUab0RDxIH9I/d0Sa6VQ8Y2ptTKFFHlOgmU6HaYer3Mx/hAteuaNXbuEfU7NiuhFhzKMLCn/W2Yw1r7hPHOLHNWvtkcfyyLoQX474QTw58iMdmSq89957N9PXuskj3+bROyUeIRB7GOIb5/FsPEf8ZxpaHl3brGsVfmeFc5nqFJyZCs305z333HNE2kY84MZ0dqbgh8FtMOGc6fWsaca7Evk37LaPrNFEfGPqN8/b8rJCuZFXT/3Dz7AbckkH/M7K4XIr4hl2wx7xYTpbHunSxCXswoQp3cjGkJ94F5l6nZUBIcKjBCQwTgKUCaxVfPLJJ5epzZSvmHh/o/yI8o33nLKSqamUEbyvbUP5yrp4WckzYrOkWma8w7hleZOszByxQQX3u8nGHfepQ+I5xzjHXW0Id9Q3lBFbbLFFKW9j2inPaVOwLEJdtrC+4Qc+8IG0yy67lHKzllmfE55gw/3wK+zwHE4sd8I6yxjsw5W6NJZ44D71Gctx0D6CIYZ4RX3FBh5MR4+yO+REGRr2cMcafVkJWuq/YIO9PLqtmbqOvazkSnnkfKlbon1Rxwc73Qx2iBvTj9k8JSsCi7V2mMItYaBNRB3Fkeuwyzq7+QNhU64TP/IYHNhcDn/49TLI4tdmj33us5wH7bbI2xH2Om+T3rR3mFKMm16GZ0x5ZwmeMIQtZEW64QdsSU/aF73SLGTQvsB/prQTTmQiA//4dYtbt3shz6MEJCCB2UHAlvfsoKwfEpikBKKRQwMYRRLKJ9bTy1OCy3qINMxpDOUv4GUHQ5RJrANEAysaXL3QYIcdDlFAsMlFnqJSFGfIpPOTR8uV9QNpeLE5SzSi8Q8TjU+UmyikMKw9M5q/NKRZxw/FFWEOxRfxDEPDlsYhnR/W8GPdGxQcNCRpLNIgZZ031hvKX8FL/KNBiB3CzpqQKIYw9cLo4QfHiAd+03ljbUkUhKzrxMLddEKIF8/YpGLTTTdt1qbqFcc8arIoaEgn1hC8I28wQgMe0w4H4aQT9epXvzrlaW5lF2XWtEJxSdrAJk91K2ss5S/xRUbEE/9ZgxH2LHJPJ2O0nTuL4yf/WOOJTkSwJ36s5UQeQz4/0oA1h/JIttIBZu1NOkh0FCNcdI6wd2RWmtUmZLTTFAUseYkOMvLgQkOduKHYQrGNbBaKDxN5rpZFZxF2+ENnrldaIIP8QKeBjjxKXjYdYL2kPHKzKBGJO2nGO4Ad8nw3efjPj7SaOnVqyZe8g6xpRh6BHbtfk4fYZCFPh2vyF+HALe9LyOEe16xVRdzJ5xfmXbSRR5hDHrxYszJPVSz2SCcM70Ati3swydPeSn7JI2bL5ii8Z3CqO2VhFx6sccW7zw/FNOtJkfdgAmfWYiPvhxKxGxvkaSQggd4EeG9416ifWXuUdWfZeALlGuU95RB1LOU5ZQLvN2Uj73jbxDvIc95R6ivKIupvNtBCccYz6gR2qWddZY64a5cZlDV8qKIsoDxi5+VQyLT9pRyhLGVNYcKLoU6L8IR9/CYO1Jds5MaGXNRrUbZQxsOBuoVyppthoyzW68XwASc+joRfhIXwcgxOtAeo9yn72CQsNoeiPCNOhJs6ZsqUKQ2LkFeHgboRHnmac6m/o8wlTFEOYh9/CRtrFLPGI3ULa1HCH3vUsyhTqRNYYxb7mDoNsEd9wnPCgrKrNtilXOdDTtRfedRks3Yj+SXYhFyUqrQ9qE9YK/H2vEEbdS1yYE+Y9t1336JUxn8Ytg3tIPhiyBO9TLilDmd9Y9qTbDTGB07qHsIGe5SH5EPyNRuHIR+3fNCM8Nd+8HEtjzIt6/fSHiD/kFfJd8QBQ3wxcEbxiN/E9+L8YZT3inqZD3GEn3Ucd9xxx1Kvdktz7pFfWYMSs/yTG5KVC/8kIAEJzEECT8mF5bSl9BwMkF5LQAIzTiBPcyyNE5QrfA09MitT6kbmjPswugSKFRpK8ZUZpRwNMhp/3RpKo0v7z1Ma+jTAkEmHgUY+irq2iSItGnLt59NzTbijIdx2T4M0FImEicbk9Maxlk08+LVlcQ9lKopEOnk0hFGYte3VskY7Hy1utTsWAo8RYaQnfvaTp8brT+3neM6Ry4gG8gZ5jIZ75Asa94xcZDQIhs4WO3xH566WjxwMfHlvanl09ngOYzqYp556arHLLtIouWIkR7n55F+v9KvtdDuHMxsTkN9J23h3utkd7R7u6XjwHhI+lH+RXnQs6bigsMTQuaVjHHmcsGPqd4g8R6eV0TukfS2vWJ7Ov/HkC+IAEzrBvF/Ep1sHbzqDMN3O2HiC0bjEgTI3NgKaboE6HHgCbDCEIgpFGwqFvCbrwId5tAD2KqcoO6lrKY9416lz6/JgNJndnvGOUH5QX1IOUa5Rvs2IzNqfKEeITz91YV2vEU/Kligna/n9nkd4usWPMhQWUZ5RnkZ51s1+N7+R30888ZN6kl2a8QuFF2k6q8xY4eM5P+pZ6lvCwoey4DArw0XbCT9RXpLe8cEX9uPlP1b4iFvIi3eMa94p4ky+Q5lOe4VwaEYSYPMb6lPaavRhqGs1EpDA4BFwROLgpYkhksCEJ0CDicZRu4HUT8O3DYGvt4yKGMvMrIZg7c9o4UaxwW9mm2iEtuVyH8UWv5lhRotbLZ+GPqO/pteM159u8qNTQueWURUoyejskR/oENEZ4BcGezRA8RPFYRimhtVckcsoGY409hmRgDK4LQ/3yKIzVisOsN+r41P7E/6P5whn5I7XEG46pXnttuKEcKIw5X1hNA/Po1ODBa4ZWVjvosqoCO4TZkwcy8WTf3S2YpmB+v6Mno8nX8B4PO/+jIZF9xIYNgK9yinKT5R9M8vwnqMo4jcrTJQj3cqu0fyb0Xqtl+wIT7fnUXd1ezbee6PJ7yYDP6nb+M0OM1b4eM6P+jtG8c2ucHXj0G++GSusdfzrd2xWtRfHCo/PJSABCcwKAioSZwVVZUpAAhKQwEwnwAhM1q3KC8kXZRfT5JniHJ2Stod5R+oRikSm0LU7DHkx9JR3USxOmX50ZB69i+IK5Rs/OtQo2TA/+9nP0m233VbOkcPUZRR2c9IQtksuuaSEO6YhMhWdaWjRmSGsnEecmO6GXQyjcOqpbXMyLvotAQlIQAISkIAEJCABCQw+ATdbGfw0MoQSkIAEhpoASjAUZij4mE7I+lIoCVm4/cQTT2zWZGIkIj8UZzfddFNZYJ2pRBjWCHzNa14zjSKRdaQY5ciPTU/YIIAp3JhQxHHOyEYWf2daFIb1t2I6cLkxB/8IC4pB4vDzn/88HXDAAUXZyr1aich0LtY7/NrXvlZCyygV1tyKqeBzMAp6LQEJSEACEpCABCQgAQlMEAKOSJwgCWUwJSABCQwjAUbRYeLIwujs8BmL1bOLJZsDsNEIG9iEQg1lGcrEMCwqz2Y7KNZqw6hG7LLoO+sAsjA6i+GzAPqUKVPKPTYgYJRfPa2Z3ZPZIZkRi3PSoGBFkchi9ygSuWYDATYn2XbbbcuoSdZh4poF7tmoB2Urhk1O2JRGIwEJSEACEpCABCQgAQlIYLwEVCSOl5T2JCABCUhgthMIxV8o7Nh1+OSTTy67GLNZCAvIo0i84IILyrqJKNLYnIP1DDEsaM7Ow2y60l7PkBGHLOj9xS9+Me2+++5l90UWo2eHURRujNhry2ONIxR07Fg8CIY4MKKQxchZK/Gb3/xmWcidnZlZ/5F1SmEHDxZ4x+CG9SI/8pGPTLNb9yDEyTBIQAISkIAEJCABCUhAAoNLwKnNg5s2hkwCEpDA0BNAkVj/UIptuOGG6bTTTktvetObmg19GInILpiMKgwlIgv7H3300emkk07quTkN8rbYYotiZ+eddx5VHpuSHHPMMekzn/lM2W0xlJtzMpGCDTt/ErYPfehDZRo3YWIUJxvTxO6rEc6ddtopff3rX0+M7kSpGMraeO5RAhKQgAQkIAEJSEACEpBALwKOSOxFxvsSkIAEJDCQBFDgMcpwvfXWS/vvv3+64ooryrTeO+64oygRF1tssbTRRhuV3/Oe97xGUcboQkytOIt7W221Vdp4443L+oKXX355kcd0YJSSIW/q1Kll52JGKg6iYbfnd77znWW0JnG4/vrr0x/+8IeyozM7sK666qpp0003Ldxm1q7fg8jBMElAAhKQgAQkIAEJSEACs47AYPaGZl18lSwBCUhAApOEANOMX/ziFyemO6NcjHUUiR4j7cLE/diIBUVi/Rx73EO5xs7O/NqG5/yQgfKR80E0KDmXWGKJxA7U/DDEPxSmXA/CSErCoZGABCQgAQlIQAISkIAEJh4BFYkTL80MsQQkIIGhJhBKsVDshWIM5WA8AxDnKNHieRx5FsrFbgpFnofBj1pmLSPsDNoxOETYOcZ5HZdeDAYtPoZHAhKQgAQkIAEJSEACEhgcAioSByctDIkEJCABCfRBAOUYir1aYci9MPG8vu52Hvc41u7jPvdQunV7FnYG5RhhjPDCJhSLhLFWhLaVqIMSB8MhAQlIQAISkIAEJCABCQwuARWJg5s2hkwCEpCABLoQQFkWCrP2sYv1mXJroindIrxxrJnNFCAKkYAEJCABCUhAAhKQgASGkoCKxKFMdiMtAQlIYPIQCGXi5ImRMZGABCQgAQlIQAISkIAEJDCYBP5vNfrBDJ+hkoAEJCABCUhAAhKQgAQkIAEJSEACEpCABAaAgIrEAUgEgyABCUhAAhKQgAQkIAEJSEACEpCABCQggUEnoCJx0FPI8ElAAhKQgAQkIAEJSEACEpCABCQgAQlIYAAIqEgcgEQwCBKQgAQkIAEJSEACEpCABCQgAQlIQAISGHQCKhIHPYUMnwQkIAEJSEACEpCABCQgAQlIQAISkIAEBoCAisQBSASDIAEJSEACEpCABCQgAQlIQAISkIAEJCCBQSegInHQU8jwSUACEpCABCQgAQlIQAISkIAEJCABCUhgAAioSByARDAIEpCABCQgAQlIQAISkIAEJCABCUhAAhIYdAIqEgc9hQyfBCQgAQlIQAIDRaDT6SR+muEmYB4Y7vQ39hKQgAQkIIFhJaAicVhT3ngPHYF///vfiZ9GAhKQgARmjIAKpBnjNydck2Z1PTgz6sOZIWNOsNBPCUhAAhKQgAQkMCMEnj4jjnUrAQkMPoEnnngiPfbYY+lpT3taCexTnvKUwQ+0IZSABCQw4AT+9a9/OSpxwNMogheKX+o/lH8PPvhgmmeeedJcc81VrNTPw81YR9w8/vjjY1nzuQQkIAEJ9EHgH//4Rx+2tSoBCcwpAioS5xR5/ZXAbCLwgx/8IN15551JBeJsAq43EpDAUBD43e9+NxTxnAyRROnHj3rw9ttvT3vuuWfafPPN0x577JEWX3zxolzkWT/15MMPP5z22muvyYDHOEhAAhIYGAJ86NFIQAKDT0BF4uCnkSGUwAwRuPnmm9P111/vyJkZoqhjCUhAAiMJLLrooiNveDWwBJ761P+s5MMI/RNPPDFdfPHF6fLLL08//OEP08EHH5w222yzNO+88yZGmcbo/bEi8/e//z2dfvrpY1nzuQQkIAEJ9EFgvGVwHyK1KgEJzAICKhJnAVRFSmCQCCy44ILpWc961iAFybBIQAISmPAEGL123333Tfh4DEMEYi3DCy+8MJ166qklykyfu+SSS9Jll12Wdt555/S2t70trbfeeuPGQWd3xRVXHLd9LUpAAhKQwNgE+KDDyHGNBCQw2ARUJA52+hg6Ccwwge222y69/e1vT09/uq/7DMNUgAQkIIEnCTCy7fjjj5fHgBOIac2PPPJIUSL++c9/HhHif/7zn+m0005LP/3pT9M+++yTdtlll7TQQguNOc2ZD3RnnnnmCFleSEACEpDAjBG45ZZb0o477jhjQnQtAQnMcgJqFmY5Yj2QwJwlsMgii6TnP//5KhLnbDLouwQkMMkIPPe5zy3KJhRVmsElEGsfMnV59913T3/7298SIxOZ5hyGNPzNb36TDjrooPTVr341ve997ytrKC6wwAJhpayj2FzkEz7OUbdqJCABCUhg5hFg2QiNBCQw+AT+s2jM4IfTEEpAAhKQgAQkIAEJSKBvAigTUfy9/OUvTyeddFL68Ic/nJZYYomuow6vueaa9Na3vjXtt99+ZXpdvTs35xoJSEACEpCABCQw7ARUJA57DjD+EpCABCQgAQlIYBITiOnNrJXILs2HHXZYmcrMrs2MLG0bpj9/+ctfThtssEH66Ec/mu6+++5ipZ9dndsyvZaABCQgAQlIQAKThYCKxMmSksZDAhKQgAQkIAEJSGAaAuzaHL/YEXT55ZdPn/jEJ9KXvvSltPbaa5fnbYf33ntvOuqoo9Kb3/zmdP7555fpzU5lb1PyWgISkIAEJCCBYSPgGonDluLGVwISkIAEJCCBmUrgqquuSg888EBXmYx4W3PNNUddp5Y1oW666aZ0//33d5URN6dMmTLmTsGE44YbbkjsSoxhFF1b+YVSjfX9Fl100RDd9XjPPfekm2++ueuzuDnffPOlF7zgBemZz3xm3Op6vPXWW9Ndd91VnnULEw/Gw4p43XjjjWOyWm655dJKK63UhCV2bmbq8oMPPtjcn3/++dMRRxxRRiCec845zf04YTOWCy64oKyruP3227tTd4DxKAEJSEACEpDA0BJQkTi0SW/EJSABCUhAAhKYGQTYnIM1+LqZqVOnplNOOSWxcQcKvW7TY9kA5Mgjj0xXXnllNxHNvQMOOKBsBNLc6HLy61//uqzvV0/HbSsS55577nTCCSekrbfeulEydgvXT37yk7KTcRdvmlsrrLBCWXdwrI1H2OX6K1/5SnHXS5G48cYbF1bsiNyLFcpWRglefvnlTRi6ney7776Faf0MmaTVddddV98u56FonObBkzd4ftZZZ/V67H0JSEACEpCABCQwNAS6t3qHJvpGVAISkIAEJCABCcwYgdFGEtYjFVFGxdRafOSa0YEouLDH2nyjmUcffXS0x+UZI+j++te/jiprnnnmSY8//nixH0rGUCTW19gZK0yMIqx3QO4VwIcffnhMWTOT1SOPPNIEBc6hvCStxopT49ATCUhAAhKQgAQkIIFpCKhInAaJNyQgAQlIQAISkMDMJ1ArEWe+9OmTiCJzEM3MZBVK0kGMp2GSgAQkIAEJSEACE42AisSJlmKGVwISkIAEJCCBCUugHvE3KEo8wsSP8AyS0m1msRqkOE3YjGvAJSABCUhAAhKQwJMEVCSaFSQgAQlIQAISkMAMENh1113Tkksu2VUCG3484xnPaJ6hHGsrttjw441vfGPacMMNG3vdTjbZZJNmOnS359wjHPvss8+IDUXadlnPceWVV27fnuZ69dVXT+9+97unuV/fWHjhhRO/bvGq7b3iFa9ICy20UH1rmvMVV1wxzTXXXM39bjJhtfPOO6cNNtigsdftZKONNhrB6l//+lexRlptvvnm0zhhbcmzzz67xGOah0/eWHzxxRMb44w2lb2XW+9LQAISkIAEJCCByUJAReJkSUnjIQEJSEACEpDAHCGA4m7dddft6XetOOw2CpHNRfbaa6+e7uNBLSfutY/LLrtsOuyww9q3p7muZXFeX4fltddeO6211lpx2fPYzW3b8mtf+9q03XbbtW9Pc13L6saKTWv23HPPady1b9RyeBaySKsY6cjaiXfeeWf60pe+lC666KLmflsWCkR2bN57772L32NtitN277UEJCABCUhAAhKYTARUJE6m1DQuEpCABCQgAQnMdgIoqUJRNT2eo/RqK76mRw5uJrus6Y1fmy8jFM8777x07LHHpksvvbSMXuzGnJGPRxxxRGKE40MPPTTT0qmbX96TgAQkIAEJSEACE4GAisSJkEqGUQISkIAEJCABCUhgugkwCpERiCgQr7nmmnTccceVqczsct02KIVXWWWVdNBBB6UddtghPfvZzy4KRBSJGglIQAISkIAEJDDsBFQkDnsOMP4SkIAEJCABCUhgkhNgROIDDzyQTjzxxHTCCSekO+64o+tU5rnnnju95S1vKVOYmdqNwW0oIic5JqMnAQlIQAISkIAExiSgInFMRFqQgAQkIAEJSEACEpjIBB588MGyxuG3vvWt9MQTT0wTlXnmmSdtuumm6eCDD04ve9nLyqYv7enQ7etphHhDAhKQgAQkIAEJDAGBpw5BHI2iBCQgAQlIQAISkMAQE5h33nnLrtj1rtCBY+mll05HHXVUOvXUU8uOzigV22teokRUkRjEPEpAAhKQgAQkMMwEVCQOc+obdwlIQAISkIAEJDAEBJ7+9KenXXfdtYw6jOgussgiZQrzT37yk3TggQemRRddNB55lIAEJCABCUhAAhLoQcCpzT3AeFsCEpCABCQgAQlIYHIQYDThc57znHTIIYeUXZrXWmutdOihhxbF4nzzzVdGG7IZS3sk4uSIvbGQgAQkIAEJSEACM4+AisSZx1JJEpCABCQgAQlIQAIDSIDdmlESrr/++umCCy5Iyy23XGJEIgYlI5upOHV5ABPOIElAAhKQgAQkMHAEVCQOXJIYIAlIQAISkIAEJCCBmUkAJSLKQnZlXmeddYropz3taeUe9zEqEgsG/yQgAQlIQAISkMCoBFQkjorHhxKQgAQkIAEJSEACE50ASkKmLmPa05d5phJxoqew4ZeABCQgAQlIYHYRUJE4u0jrjwQkIAEJSEACEpDAHCPACMS2UYHYJuK1BCQgAQlIQAISGJ2AuzaPzsenEpCABCQgAQlIQAISkIAEJCABCUhAAhKQQCagItFsIAEJSEACEpCABCQgAQlIQAISkIAEJCABCYxJQEXimIi0IAEJSEACEpCABCQgAQlIQAISkIAEJCABCahINA9IQAISkIAEJCABCUhAAhKQgAQkIAEJSEACYxJQkTgmIi1IQAISkIAEJCABCUhAAhKQgAQkIAEJSEACKhLNAxKQgAQkIAEJSEACEpCABCQgAQlIQAISkMCYBFQkjolICxKQgAQkIAEJSEACEpCABCQgAQlIQAISkICKRPOABCQgAQlIQAISkIAEJCABCUhAAhKQgAQkMCYBFYljItKCBCQgAQlIQCdLeAUAABppSURBVAISkIAEJCABCUhAAhKQgAQkoCLRPCABCUhAAhKQgAQkIAEJSEACEpCABCQgAQmMSUBF4piItCABCUhAAhKQgAQkIAEJSEACEpCABCQgAQmoSDQPSOD/t3ensXpU9R/AD7IUCpXNApWtloICihIV3KJI3EmMJi6JW4JxQV+4JBiXN/71hYlbgpoYlxcY3EFFYyIaQkAFccddwCqLBVoKtFCWtlT58z16bqZXyr239/bpzPN8Jnl4nmfuPDNnPmc4p+c355whQIAAAQIECBAgQIAAAQIECBAgMKOAQOKMRDYgQIAAAQIECBAgQIAAAQIECBAgQEAg0TVAgAABAgQIECBAgAABAgQIECBAgMCMAgKJMxLZgAABAgQIECBAgAABAgQIECBAgAABgUTXAAECBAgQIECAAAECBAgQIECAAAECMwoIJM5IZAMCBAgQIECAAAECBAgQIECAAAECBAQSXQMECBAgQIAAAQIECBAgQIAAAQIECMwoIJA4I5ENCBAgQIAAAQIECBAgQIAAAQIECBAQSHQNECBAgAABAgQIECBAgAABAgQIECAwo4BA4oxENiBAgAABAgQIECBAgAABAgQIECBAQCDRNUCAAAECBAgQIECAAAECBAgQIECAwIwCAokzEtmAAAECBAgQIECAAAECBAgQIECAAAGBRNcAAQIECBAgQIAAAQIECBAgQIAAAQIzCggkzkhkAwIECBAgQIAAAQIECBAgQIAAAQIEBBJdAwQIECBAgAABAgQIECBAgAABAgQIzCggkDgjkQ0IDE/ggQceKP/+97+Hl3ApJkCAAAECBAgQIECAAAECBHorIJDY26yRMAI7JpAgYpbddtutvieg2NbVFf5DgAABAgQIECBAgAABAgQIENgBgT124Dd+QoBATwVa0FBvxJ5mkGQRIECAAAECBAgQIECAAIEBCwgkDjjzJJ3AdIH0QszrEY94xFSPxNYzcfq2vhMgQIAAAQIECBAgQIAAAQIE5iIgkDgXLdsS6LlACxq29yTXsOaeZ5rkESBAgAABAgQIECBAgACBgQiYI3EgGSWZBAgQIECAAAEC/RBwk64f+SAVBAgQIECAwOgFBBJHb+6IBEYuYM7EkZM7IAECYy7Q5qTNae6+++5jfrZOLwKZNiSvLK1eTUDxX//6V13nPwQIECBAgACBSRAQSJyEXHaOEynQGjtp4HSHOk8khpMmQIDAAgt0e6TlcwssLfBh7G4AAurYAWSSJBIgMAiB7o2Z1pYZRMIlksCECQgkTliGO93xFkhDNq9ur4mcsUbOeOe7syNAYPQC3cBheiRq8Iw+D0Z9xORxq0+7jd1Rp8PxCBAgMK4C3bI1ZW73+7ies/MiMEQBD1sZYq5JM4HtCHR7yHQbO9312/mp1QQIECAwB4FuIFEQcQ5wA9+01a0t//O9rRv4qUk+AQIEdrlAK1uTkNSt6tddniUSQOAhBQQSH5LFSgLDFGjzdKXSbZ+7FfIwz0qqCRAg0D+BrVu3TiVqjz38c2oKY4w/pG5tQcNu/o/xKTs1AgQIjFSgtVtS1qZubWXuSBPhYAQIzChgaPOMRDYgMDyBbiDx/vvvL61HYipnQwSGl59STIBA/wS6ZWsaO63x07+UStFCCXSHsG/ZsqXuNvVrq2MX6jj2Q4AAgUkV6N6kaZ0iJtXCeRPos4Bb6H3OHWkjsIMC0wOJaeDmlfUWAgQIEJi/QAKJbdlrr73aR+9jLNANJLbGbm7OdXsqjvHpOzUCBAjsdIHNmzfXY6Qnorp1p3M7AIEdFhBV2GE6PyTQb4E999yzJjC9JtJbwtCAfueX1BEgMCyB1thJqvfee++aeD3ThpWHc0lt8jb1ahvGft9999Ue/t3g4lz2Z1sCBAgQ+F+BVre2oc16+/+vkTUE+iAgkNiHXJAGAgsskMZOCyRu2rRJIHGBfe2OAIHJFkgvtNbYicSiRYsMbx3zS6IFElvd6ibdmGe40yNAYJcI5CZNlgQS99lnH6OpdkkuOCiBmQUEEmc2sgWBwQmkodN6yNx9993m7hpcDkowAQJ9Fsiw5tykyZKGTnqppWeant99zrX5pa0NX953333rjhJYvOeee+a3U78mQIAAgXojrvXov+uuu6pIytz99tuPDgECPRUQSOxpxkgWgfkIZE6RxYsX111s3LjRA1bmg+m3BAgQmCaQ3oit18SSJUsEEKf5jPPX/ffff+r07rzzzqnPPhAgQIDAjgkkiJhXhjGvX7++7iSBxNSvFgIE+ikgkNjPfJEqAvMSSCCx3cW74447SvehAPPasR8TIECAQA0itt5oBx10kKFXE3BNtN4yye8safDedttttfGboe7m8ZqAi8ApEiCwUwRaj++Us+vWravHyLoDDzxQZ4idIm6nBOYvIJA4f0N7INA7gfRGPOCAA2q6br/99tKeLpmGjsZO77JLgggQGJhApoxow68OPfRQgcSB5d+OJLcFEg877LD683xfu3Zt/Zwh7XkloGghQIAAgdkLtHIzZWimCFmzZk39caYMWbp0aV03+73ZkgCBUQnsMaoDOQ4BAqMTyJxdBx98cD1gGjptCJ75u0aXB45EgMD4CmRIa27SZDnyyCMFEsc3q6fOrAUSjzrqqLouN+VuuOGGGkBM3Zq/pweNhQABAgRmL9AtN/MQq9WrV9cfZ7733KizECDQTwH/4ulnvkgVgXkJpPI9+uij61289Ea8/vrr6/7S2BFMnBetHxMgQKDO4XTrrbdWiRUrVgggTcA1kZ4yWY477rj6nsDh3/72t/o5/8l39esUhw8ECBCYlUC33Ey9mimZsuQmXXu41ax2ZCMCBEYqIJA4Um4HIzA6gWOOOaYsWrSoHvCqq66qjZzWo2J0qXAkAgQIjIdAdx68a665ptx7770l89GuXLnS0KvxyOKHPYuW/+mR2OYgXrVq1dQQd9OGPCyfPxIgQOAhBdI2Sfma9xtvvLFs2LChbnfiiSc+5PZWEiDQDwGBxH7kg1QQWFCBNGie+MQnTgUSr7jiCnMjLqiwnREgMGkC6ZHWbsakTM2S+ZvaUNdJ85i0802vmQzByw26k046qZ5+evvfdNNNtX7NfF4WAgQIEJibQMrW1uP76quvrg+xyh5OOeWUue3I1gQIjFRAIHGk3A5GYDQCqZQz3O7Rj350PeC1115bbr75ZsOuRsPvKAQIjJlAbs7klcZOpou4/PLL6xkefvjhJb2/u0OzxuzUnc5/BVoeJ2D4tKc9ra697rrr6jyJkAgQIEBgfgKZzz0jqDZt2lR7fT/+8Y+f3w79mgCBnSogkLhTee2cwOgF2vCqzJN4+umn1wSkx8Svf/3rqd40o0+VIxIgQGC4AumJ1iaET0PnlltuqSdzwgknlGXLlg33xKR81gItkJhg8tOf/vQ6d9fGjRvLZZddNjV1SKt/Z71TGxIgQGDCBVq5melCLr300qqRunX58uUTLuP0CfRbQCCx3/kjdQTmLJDGTuYayfL85z+/JKCYJ4xefPHF9S7fnHfoBwQIECBQBe6///7yzW9+s/ZKzIoXv/jFU0OyEI23QBq7qVtTx3Ybueeff37ZvHlzPfkWbBxvCWdHgACBhRNo5eavfvWrkvmHs5x88sme2LxwxPZEYKcICCTuFFY7JbDrBDKHV5trJBXxqaeeWntLfPvb3y6rV6/eJmHZtt0J3OYPvhAgQIDA/whkmoiLLrqors/UEblZY5kMgW7dmic3tx7/N9xwQ7nwwgtrPdsaxJMh4iwJECAwf4GUmxnO/IUvfKHepMuTml/60pfWh5lpo8zf1x4I7CwBgcSdJWu/BHaRQIbftcZMhtydccYZtVfirbfeWs4999yyZcuWbVLWtt1mpS8ECBAgsI1AAknf+ta3SoKJKWdf97rXlSVLlpgyYhul8f3SbtDlDDNP4plnnlnf09A977zzypo1a6ZGA4yvgjMjQIDA/ATaqKm2l9StP/nJT8qVV15ZV6XH92mnnVbbMq3DQ94tBAj0S0AgsV/5ITUEFlQgDZ80dpf/d56RNHYydKBbIXc/L+jB7YwAAQJjJLBq1apyzjnn1B4Txx57bC1bE1BMICnlqLJ0jDJ7FqeSBwG8/OUvr1tmnsQLLrigjgZwPcwCzyYECEysQLspkzoz5WWmX0rdunbt2rJ48eLyzne+s77nb+nskJf6dWIvFyfeYwGBxB5njqQRWAiBI444opx11lm1gZMHBHzqU58q69evr7tO5dweILAQx7IPAgQIjKNAGjof/ehHy4YNG+rpveENbyjHH3/8OJ6qc5qlQHolvvWtby2pY9PT/2Mf+1i5/vrrt/m1xu82HL4QIDDhAumNuHXr1imFlJGZZ/aSSy6p6zJlxPOe97waOEz7JC9tlSkuHwj0SkAgsVfZITEEdo7Aa17zmjqXV+7upddE5iHJQwMsBAgQIDCzwOc///ny1a9+tW74pCc9qbz97W+vw1rbjZjWs0LgaGbLcdkijdtnP/vZdYhzzunmm28u7373u8u6deumetGkzrUQIECAwH8E0hsxN2GypL684ooryoc//OF6M+ZRj3pUOfvss8shhxxi/vb/cPkvgV4LCCT2OnskjsDCCKRSfv/731+WLl1ad/jpT3+6fO9739vmruDCHMleCBAg0H+BNGBa0K/7eXrKEwi69NJLy8c//vE6Gfxhhx1WPvjBD5b9999/atM2TGtqhQ8TIZDrJoHkd7zjHeUpT3lKPecf/ehH5ROf+MTUjbrtXRvt2psIKCdJgMDEC0yvZ/M9D6p673vfW2/CpKx829veVp75zGfqgTjxVwuAoQjs/n8PLkNJrHQSILBjAuk5cfTRR5d99tmnTmh8xx13lJ/+9KflxBNPLCtXrqw7bQ2bvGd7CwECBMZVYHp51+Ziml7+/fCHP6xTQ9x00011eoj0nMi8sykju+VkPrchWONq5ry2FWh5nno1dWkeFpCHmv3sZz+rgeaTTjqpPugsv+peK/me4X2tN2u+WwgQIDDOAq1ubXXvP/7xj/KWt7yltkVSFr7yla8sCUnkAWZZUmZOLzfH2ce5ERiigEDiEHNNmgnsoMBxxx1X7rrrrnLVVVfVyY1/85vflOUPPohlxYoVtZGc3XYr7u7nHTyknxEgQKB3At2yLY2Y6UGdBBYz5OpNb3pTue6662r5mHkRP/CBD9QbMq1R1LsTk6BdIrBs2bJy1FFH1Z7+CRL+8pe/rEPznvGMZ9Rrp11v+VuunVxvbd0uSbCDEiBAYCcJpIxrN+faIbrlXeaSzfQgeUhVtst0IZ/97GfrfLPd7dpvvRMg0E8BgcR+5otUEdgpAosWLSrPec5zypo1a8qf/vSn2nvioosuKln/uMc9ruy1115TdwHbPwJU6jslK+yUAIFdLNDtFdbKuTSA7rvvvvKZz3ymvOtd7yrpiZi/5aEaH/nIR8qBBx5YU92238Wn4PA9EnjsYx9bMvT9F7/4RUmv/x//+MfltttuK1l/0EEH1euoBaCnB657dBqSQoAAgXkJpH5sZVzq2bZkbvaLL764vPnNb649t1MennLKKeXcc8+t5WT7TdveOwEC/RYQSOx3/kgdgXkLtEq8BQb33HPPcuqpp5aNGzeWP/zhD+Wee+6pFfo///nPcvLJJ9chWflHQGsot/d5J8QOCBAg0BOBlIdZuuVb1mXOpg996EPlnHPOqU9ozqTweVhVnth88MEHb7N9T05FMnaxQK6hNIDTKM4Q50wj8oMf/KDOQfz73/++XH755eUJT3hCOfTQQ2vvRI3lXZxhDk+AwEgEumXjvffeWz73uc/VXv2rVq2qdelTn/rU8sUvfrGWm9ubT3YkCXUQAgR2SEAgcYfY/IjAsAS6lXkaMfvtt1954QtfWBYvXlx7Jqb3RBo8X/va18rmzZvrQ1nSaNbgGVY+Sy0BArMTaGVi3hMA+utf/1q+8pWvlAxfzvyx6TmRJ0hmzqbuw1WyvYVAV6DdpMu1kcZw5kZ88pOfXK655pqyevXqcsstt5Svf/3r5eqrry6HH354va5yQ89CgACBcRZI2Zh5Y7/73e/W+RC//OUv1+mV9t577/La1762BhYz5ZK2xjhfBc5tnAV2e/Af0A+M8wk6NwKTLtD+F08jJ5V6t8JO0PCSSy6pT03785//XBvUaeAcf/zx5UUvelF5/etfX4c85zf5fWtEt33Gtq2bdGfnT4BA/wVSBmZJGZZgYSZ8P//888t3vvOdcu2119YbKSnTUgYmiPiyl72sPjCjlXnKu/7n8ahTOL1ezfEzEiC9bs4+++ySB/Zs3bq1Jusxj3lMHRFw1lln1Sc950Et7Zpq73NNv2tzrmK2J0BgNgLTy5Y2willVf42vRdh/t7+dvvtt5cLL7ywfOMb3yi//e1vawAxx8z0IO95z3vqdCEHHHDANm2S2aTJNgQI9EdAILE/eSElBHaZQHokZsjBeeedV3tRtITkHwS5W3jaaafVeUwyZGvp0qUllf++++5bn66WeRUtBAgQ6JtAGjoJ4GTOw0zlsGHDhto7ItM4ZB67PEwlPbG7y7HHHlte8YpXlPe97321jGs3Ubrb+ExgtgK5WZdAYubX/N3vfle2bNky9dP0eH3BC15QA4qZozjfU79mxEBeqVu7N/4SsEydnFd32d767jY+EyBAYK4C7cbb9HKolTmpWzM9UurWBA7T+/qPf/xjuezBh6j8/Oc/rzfm2jEzT+wZZ5xRhzZn3tjp5VjbzjsBAsMREEgcTl5JKYEFFcidw9ZIzj8K8kpDJ0OwvvSlL9XJ4rsHzLb5h0AaOwkkLlmypA6NTkAxjZ68p+GTHhbZNj0b897uWOZzXhYCBAjMRyABwtYzIu8JFuY9rwRu8sp8THfffXd9pbGTz3feeWcNJObGSft9S8chhxxSXvWqV5UzzzyznHDCCbX8amVX28Y7gbkK5DrLdZQnf+fBZp/85CdrL9jp+3nkIx9Z69ZMKdLq09SlqWvzngei5ZU6NvvLq9Wp7X36Pn0nQIDAXARaWyB1bD7nPT33W92aGyGpW3NjLu/dunX9+vVl3bp1ZdOmTdscMsOYX/KSl5Q3vvGN5VnPelYt39St2xD5QmCwAgKJg806CScwf4HWmE5DJHcH2z8e8o+E73//+7UnReZ1uvHGG+vdxvzdQoAAgaEL5IZI5qtL0PD0008vr371q2vAJg9XyZJGVHdxE6Sr4fPDCbR6dHpjOfVtGuVXXnllueCCC2rPnQQY165dOzX0+eH2628ECBDou0DmXj/yyCPLihUrynOf+9zaw3/58uVTbYykP2Vk6tTUs+rWvueo9BHYvoBA4vZt/IXARAikIn+o4VI5+fTsyTDAPMk0c4n95S9/qfOIZQL5NWvWlNyBTMPIQoAAgT4KJJiTOZmWLVtWXwkcZrqGvI444oiSBk56eW1vmFXrUdbHc5Omfgvk2uk2lrvXWP6W3jt///vfa/3a6tYWWMwDClL/WggQINBHgZRn6Umd6RhyU+6YY46pN+ZWrlxZ69XMB5uRS91yLwHE1iGhWzb28fykiQCBmQUEEmc2sgWBsRZolXq3sp9+wm2bBB1b4DHb5HMbQpj3NHwSWMwrQyDa9m1/aTy1fbV13gkQIDBbgTQ+uj0YEijMKz0J856gYIaApldEplvIK+tT7qSMy2/z/nDlXTct7XfddT4TmI3A9Lpue9dctmuv7Ld9Th2a4fitbk39mnWpR/NK/dqOMb2unU36bEOAAIGuQOrKVk61z6lbM1VRXm36otSrCRK2HvzdOjVlUn6bMqobLGz77R7PZwIEhi0gkDjs/JN6AgQIECBAgAABAgQIECBAgAABAiMR8OSDkTA7CAECBAgQIECAAAECBAgQIECAAIFhCwgkDjv/pJ4AAQIECBAgQIAAAQIECBAgQIDASAQEEkfC7CAECBAgQIAAAQIECBAgQIAAAQIEhi0gkDjs/JN6AgQIECBAgAABAgQIECBAgAABAiMREEgcCbODECBAgAABAgQIECBAgAABAgQIEBi2gEDisPNP6gkQIECAAAECBAgQIECAAAECBAiMREAgcSTMDkKAAAECBAgQIECAAAECBAgQIEBg2AICicPOP6knQIAAAQIECBAgQIAAAQIECBAgMBIBgcSRMDsIAQIECBAgQIAAAQIECBAgQIAAgWELCCQOO/+kngABAgQIECBAgAABAgQIECBAgMBIBAQSR8LsIAQIECBAgAABAgQIECBAgAABAgSGLSCQOOz8k3oCBAgQIECAAAECBAgQIECAAAECIxEQSBwJs4MQIECAAAECBAgQIECAAAECBAgQGLaAQOKw80/qCRAgQIAAAQIECBAgQIAAAQIECIxEQCBxJMwOQoAAAQIECBAgQIAAAQIECBAgQGDYAgKJw84/qSdAgAABAgQIECBAgAABAgQIECAwEgGBxJEwOwgBAgQIECBAgAABAgQIECBAgACBYQsIJA47/6SeAAECBAgQIECAAAECBAgQIECAwEgEBBJHwuwgBAgQIECAAAECBAgQIECAAAECBIYtIJA47PyTegIECBAgQIAAAQIECBAgQIAAAQIjERBIHAmzgxAgQIAAAQIECBAgQIAAAQIECBAYtoBA4rDzT+oJECBAgAABAgQIECBAgAABAgQIjERAIHEkzA5CgAABAgQIECBAgAABAgQIECBAYNgCAonDzj+pJ0CAAAECBAgQIECAAAECBAgQIDASAYHEkTA7CAECBAgQIECAAAECBAgQIECAAIFhCwgkDjv/pJ4AAQIECBAgQIAAAQIECBAgQIDASAQEEkfC7CAECBAgQIAAAQIECBAgQIAAAQIEhi0gkDjs/JN6AgQIECBAgAABAgQIECBAgAABAiMREEgcCbODECBAgAABAgQIECBAgAABAgQIEBi2gEDisPNP6gkQIECAAAECBAgQIECAAAECBAiMREAgcSTMDkKAAAECBAgQIECAAAECBAgQIEBg2AICicPOP6knQIAAAQIECBAgQIAAAQIECBAgMBKB/wc+FRdZnnSe6AAAAABJRU5ErkJggg==;" vertex="1" parent="1">
          <mxGeometry x="70" y="110" width="605.58" height="380" as="geometry" />
        </mxCell>
      </root>
    </mxGraphModel>
  </diagram>
</mxfile>
